<svg xmlns="http://www.w3.org/2000/svg" viewBox="0 0 937.42 865.98"><defs><style>.cls-1{fill:#d3d3d3;}</style></defs><g id="Layer_2" data-name="Layer 2"><g id="FINAL"><path class="cls-1" d="M461.43,800.52c-20.42,0-34.36-15.65-34.36-35.84,0-14.84,8-23.41,16.23-28.16l6,12.32a18.25,18.25,0,0,0-9.66,15.84c0,12.22,9.26,21.1,21.81,21.1s21.82-8.88,21.82-21.1a18.07,18.07,0,0,0-9.67-15.84l5.88-12.32c8.27,4.85,16.34,13.32,16.34,28.16C495.8,784.87,481.85,800.52,461.43,800.52Zm33.17-72.58H428.16V713.61h54V685.14H494.6Zm-26.49-50.37H428.16V663h39.45c9.26,0,15.64-5.45,15.64-15.85s-6.38-15.75-15.64-15.75H428.16V616.81H468c16.53,0,27.79,9.89,27.79,30.38S484.44,677.57,468.11,677.57Zm26.49-74H428.16V568.16c0-12.82,8.07-19.38,16.94-19.38,8.36,0,13.94,5.24,15.24,11.6,1.09-7.16,8-12.92,16.33-12.92,10,0,17.93,6.77,17.93,19.58Zm-47-40.17c-4.19,0-7.27,3-7.27,7.87v18h14.44v-18C454.76,566.44,451.77,563.41,447.59,563.41Zm27.09-1.31c-4.18,0-7.77,3-7.77,8.68v18.47h15.44V570.78C482.35,565.33,479.46,562.1,474.68,562.1ZM230.07,462.84V436.05q19.52-17.71,31.31-28.84t18.19-18.33Q286,381.67,288,377a23.69,23.69,0,0,0,2-9.58,13.59,13.59,0,0,0-4.47-10.61q-4.49-4-11.59-4a34.22,34.22,0,0,0-16.06,3.71,42.11,42.11,0,0,0-13,10.92L225.8,346.23a59.91,59.91,0,0,1,21.65-17.1,64,64,0,0,1,27.14-5.76,59.74,59.74,0,0,1,19.68,3.09,44,44,0,0,1,15.27,8.85,40.42,40.42,0,0,1,9.9,13.81A44.12,44.12,0,0,1,323,367a45.49,45.49,0,0,1-2.32,14.42,62.08,62.08,0,0,1-7.58,14.83,140.25,140.25,0,0,1-13.64,16.9q-8.39,9.06-20.37,20.6H324v29Zm165.17,2.47a56.14,56.14,0,0,1-24.74-5.26,54.1,54.1,0,0,1-18.64-14.73,66.42,66.42,0,0,1-11.81-22.55,102.07,102.07,0,0,1,0-57.07,66.56,66.56,0,0,1,11.81-22.56,54.21,54.21,0,0,1,18.64-14.73,60.68,60.68,0,0,1,49.38,0,53.88,53.88,0,0,1,18.73,14.73,66.58,66.58,0,0,1,11.82,22.56,102.07,102.07,0,0,1,0,57.07,66.43,66.43,0,0,1-11.82,22.55,53.77,53.77,0,0,1-18.73,14.73A56.35,56.35,0,0,1,395.24,465.31Zm-.1-29.46a19.47,19.47,0,0,0,11.08-3.19,26.29,26.29,0,0,0,8-8.76,46.72,46.72,0,0,0,5-13.19,79.36,79.36,0,0,0,0-33,46.76,46.76,0,0,0-5-13.18,26.29,26.29,0,0,0-8-8.76,19.55,19.55,0,0,0-11.08-3.19,19.18,19.18,0,0,0-10.88,3.19,26.29,26.29,0,0,0-8,8.76,46.16,46.16,0,0,0-5,13.18,79.36,79.36,0,0,0,0,33,46.12,46.12,0,0,0,5,13.19,26.29,26.29,0,0,0,8,8.76A19.1,19.1,0,0,0,395.14,435.85Zm128.78,29.46a56.14,56.14,0,0,1-24.74-5.26,54.19,54.19,0,0,1-18.64-14.73,66.59,66.59,0,0,1-11.81-22.55,102.07,102.07,0,0,1,0-57.07,66.74,66.74,0,0,1,11.81-22.56,54.31,54.31,0,0,1,18.64-14.73,60.68,60.68,0,0,1,49.38,0,53.88,53.88,0,0,1,18.73,14.73,66.58,66.58,0,0,1,11.82,22.56,102.07,102.07,0,0,1,0,57.07,66.43,66.43,0,0,1-11.82,22.55,53.77,53.77,0,0,1-18.73,14.73A56.32,56.32,0,0,1,523.92,465.31Zm-.1-29.46a19.47,19.47,0,0,0,11.08-3.19,26.29,26.29,0,0,0,8-8.76,46.41,46.41,0,0,0,5-13.19,79.36,79.36,0,0,0,0-33,46.46,46.46,0,0,0-5-13.18,26.29,26.29,0,0,0-8-8.76,19.55,19.55,0,0,0-11.08-3.19,19.2,19.2,0,0,0-10.88,3.19,26.29,26.29,0,0,0-8,8.76,46.16,46.16,0,0,0-5,13.18,79.81,79.81,0,0,0,0,33,46.12,46.12,0,0,0,5,13.19,26.29,26.29,0,0,0,8,8.76A19.12,19.12,0,0,0,523.82,435.85ZM652.6,465.31a56.14,56.14,0,0,1-24.74-5.26,54.06,54.06,0,0,1-18.63-14.73,66.24,66.24,0,0,1-11.81-22.55,101.83,101.83,0,0,1,0-57.07,66.38,66.38,0,0,1,11.81-22.56,54.18,54.18,0,0,1,18.63-14.73,60.68,60.68,0,0,1,49.38,0A54,54,0,0,1,696,343.14a66.74,66.74,0,0,1,11.81,22.56,102.07,102.07,0,0,1,0,57.07A66.59,66.59,0,0,1,696,445.32a53.89,53.89,0,0,1-18.74,14.73A56.32,56.32,0,0,1,652.6,465.31Zm-.1-29.46a19.47,19.47,0,0,0,11.08-3.19,26.29,26.29,0,0,0,8-8.76,46.12,46.12,0,0,0,5-13.19,79.36,79.36,0,0,0,0-33,46.16,46.16,0,0,0-5-13.18,26.29,26.29,0,0,0-8-8.76,19.55,19.55,0,0,0-11.08-3.19,19.22,19.22,0,0,0-10.88,3.19,26.16,26.16,0,0,0-8,8.76,46.17,46.17,0,0,0-5,13.18,79.81,79.81,0,0,0,0,33,46.12,46.12,0,0,0,5,13.19,26.16,26.16,0,0,0,8,8.76A19.15,19.15,0,0,0,652.5,435.85ZM174,403.13l14.41,9.46-2.92-17L199,384.83l-17-2.48-6.1-16.11-7.62,15.45-17.22.83,12.35,12-4.54,16.63Zm584.78,0,14.41,9.46-2.92-17,13.45-10.78-17-2.48-6.1-16.11L753,381.69l-17.22.83,12.35,12-4.54,16.63Zm-95,257.67a43.94,43.94,0,0,0-4.37-4.37,49.31,49.31,0,0,1,9,6.26c1.31-3.25,2.2-5.67,4-11.44,3.36-10.62,6.7-29.68-.26-38.39-6-7.53-17-11.49-19.18-12.2-14.1-4.69-34.2-4.88-49.88,0-2.15.67-13.16,4.67-19.18,12.2-7,8.71-3.62,27.77-.26,38.39,3,9.32,6.46,16.92,6.51,18.18s-3.7,8.09-3.7,18.22c0,16.06,5.14,35.55,29.74,35.55h27.24c23.7-.17,29.74-18.71,29.74-35.54a42.82,42.82,0,0,0-6-21.87A43.35,43.35,0,0,0,663.78,660.8Zm-33.92-16.34a43.26,43.26,0,0,0-26.63,9.12,39,39,0,0,0-4.08,4.07,20.3,20.3,0,0,1,6.26-8.2c-2.27-4.73-5.63-11.87-6.72-16.45-2.08-8.71,4.43-12.3,10.06-14.73,6.36-2.74,14.47-3.14,19.32-3.14s13,.4,19.32,3.14c5.63,2.43,12.14,6,10.06,14.73-1,4.4-5.15,13.25-7.78,14.08S637.36,644.46,629.86,644.46ZM302.11,601.84c-30.3,0-55,25-55,55.7s24.66,55.7,55,55.7,55-25,55-55.7S332.41,601.84,302.11,601.84Zm27.53,83.61a38.6,38.6,0,0,1-55.05,0,2.33,2.33,0,0,1,0-3.28,2.25,2.25,0,0,1,3.23,0,34.09,34.09,0,0,0,48.59,0,2.25,2.25,0,0,1,3.23,0A2.33,2.33,0,0,1,329.64,685.45Zm-41.27-27.91a13.74,13.74,0,1,1,13.74,13.93A13.85,13.85,0,0,1,288.37,657.54Zm41.27-24.6a2.26,2.26,0,0,1-3.23,0,34.09,34.09,0,0,0-48.59,0,2.27,2.27,0,0,1-3.23,0,2.34,2.34,0,0,1,0-3.29,38.62,38.62,0,0,1,55.05,0A2.34,2.34,0,0,1,329.64,632.94Zm267.93,167.7-32.94,14.51L596.28,798Zm-62.91-46.48,7.93-4.29c.18.19.36.37.56.55Zm402.76-390H842.53V271.49H732.59C726.56,120.75,603.71,0,453.52,0S180.46,120.75,174.44,271.49H94.64v92.69H0l52.92,92.08L0,548.35H147.21v-5.29l.19.12-.19-.13v-9.36l.25.16-.25-.18v-9.36l.31.19-.31-.21v-9.35l.36.22-.36-.25V511h42.62V865.74l112-62.64.35.21,4-2.26-3.11,2.8L408.36,866V511H512.61V866l105.24-62.13-3.11-2.8,4,2.26.35-.21,112,62.64V511h59.08v37.34H937.42L884.5,456.23ZM453.52,49.08C577.89,49.08,680,147.48,688,271.49h-7.66c-8-119.73-106.7-214.65-226.85-214.65S234.7,151.76,226.67,271.49H219C227,147.48,329.15,49.08,453.52,49.08Zm18.36,222.41a21.46,21.46,0,0,0-36.73,0h-8.6a29.12,29.12,0,0,1,53.92,0Zm31.81,0c-5.21-23.22-25.71-40.6-50.17-40.6s-45,17.38-50.2,40.6h-7.83A60.17,60.17,0,0,1,408,244.85l-96.26-97.56c-4.36-4.42,2.39-11.27,6.76-6.86Q366.61,189.2,414.72,238a58.13,58.13,0,0,1,38.81-14.82c16.31.06,31,5.6,40.41,16.31l94.59-95.86c4.37-4.42,11.13,2.43,6.77,6.85l-94.93,96.21a60.3,60.3,0,0,1,11.13,24.85Zm-190.47,0h-3.6c5.88-13.73,13.79-27.26,27.37-34.13C325.29,245.5,318.46,258.42,313.22,271.49Zm-10.77,0h-3.56c5.09-14.41,12-28.66,24.21-37.92C312.85,244,307,257.64,302.45,271.49Zm-10.87,0h-3.5c4.5-15.13,10.65-29.81,21.5-41.5C300.65,242.29,295.49,256.8,291.58,271.49Zm-10.91,0h-3.43c4-15.9,9.46-31.43,19.07-44.85C288.7,240.73,284.1,256,280.67,271.49Zm-10.93,0h-3.38c3.51-16.69,8.41-33.07,16.89-48C276.72,238.93,272.7,255.1,269.74,271.49Zm-10.83,0h-3.48c3.08-17.49,7.46-34.73,14.94-50.88A354,354,0,0,0,258.91,271.49Zm-11.16,0H244.5c2.7-18.26,6.58-36.32,13.15-53.61A370.21,370.21,0,0,0,247.75,271.49ZM404.5,141a34.49,34.49,0,0,0,8.22,11.29c.94.91,1.92,1.79,2.91,2.64.25-.91.42-1.6.42-1.6h0l9.45-36.05c.85-.39,1.71-.78,2.58-1.15a124.4,124.4,0,0,1,22.38-7l-2.93,11.5,15.82-.05c8.32,0,12.79-3.34,12.77-8.72,0-3-1.75-5.09-5.7-5.93,1.22-.14,2.46-.28,3.71-.4,5.68-.59,11.48-.77,17-1,2.56-.09,5.23-.15,8-.15a20.76,20.76,0,0,1,.15,2.51c0,10.89-7.07,19-18.89,22,7.49,2.67,12.81,8.28,12.84,17.09,0,14.8-12.12,26.08-38.31,26.15l-43.82.12,3.4-13c-1.84-.85-3.64-1.75-5.37-2.73-5.38-3.05-10.45-6.43-14.56-11a27.69,27.69,0,0,1-3.62-5,18.25,18.25,0,0,1-2.32-11.31c.33-3.83,2.66-7.66,5.21-10.39a41.59,41.59,0,0,1,8.72-6.67c7.18-4.38,16.47-7.86,27-10.38l4-15.19,35.13-.09c16.69,0,25.23,5,28.69,11.91a181.19,181.19,0,0,1,23,4.11c.5.12,1.68.36,1.53.93.08.39-1.4.1-2.07,0A198.24,198.24,0,0,0,486.3,102c-5.56.21-11.36.39-17,1-17.12,1.78-31.71,4.53-46.06,10.62a50.26,50.26,0,0,0-12.43,7.26c-3.56,2.91-7.27,6.85-7.73,12.27A14.64,14.64,0,0,0,404.5,141ZM654.82,271.49h-3.48a354,354,0,0,0-11.46-50.88C647.36,236.76,651.74,254,654.82,271.49Zm-2.22-53.61c6.57,17.29,10.45,35.35,13.15,53.61H662.5A370.21,370.21,0,0,0,652.6,217.88Zm-8.71,53.61h-3.38c-3-16.39-7-32.56-13.51-48C635.48,238.42,640.38,254.8,643.89,271.49Zm-10.88,0h-3.43c-3.43-15.53-8-30.76-15.64-44.85C623.55,240.06,629,255.59,633,271.49Zm-10.84,0h-3.5c-3.91-14.69-9.07-29.2-18-41.5C611.52,241.68,617.67,256.36,622.17,271.49Zm-10.81,0H607.8c-4.5-13.85-10.4-27.52-20.65-37.92C599.38,242.83,606.27,257.08,611.36,271.49Zm-38.1-34.13c13.58,6.87,21.49,20.4,27.37,34.13H597C591.79,258.42,585,245.5,573.26,237.36Zm-547.34,296,40-69.62,4.29-7.47-4.29-7.48-40-69.6H94.64V511h1l36,22.37Zm106.29-.66L100.78,511h9.9l21.53,13.38Zm0-9.38L114.36,511h11.41l6.44,4Zm0-9.38L127.94,511h4.27ZM398.36,848.46,345.74,817.4l7.61,3.35-23.16-12.53-10.25-6.05,4.44-4-.63,1.28L356.68,814l-31.13-16.85,3.82-3.43L360,807.2l-28.5-15.42,4-3.61,27.81,12.25-25.87-14,4.22-3.79,25,11-23.24-12.58,4.42-4L370,786.87l-20.61-11.15,4.61-4.14,19.33,8.51-18-9.73,4.81-4.31,16.5,7.27L361.32,765l5-4.49,13.67,6-12.71-6.88,5.2-4.68,10.84,4.78-10.08-5.46,5.4-4.85,8,3.54-7.45-4,.48-.44-.63.36-.32-.17c-.18.19-.37.37-.56.55l.11,0-75.95,42.47-.34-.2L199.83,848.69V511h5l1.47,35.17L207.64,511h7.11l1.47,35.17L217.6,511h7.1l1.47,35.17L227.55,511h7.11l1.47,35.17L237.51,511h7.11l1.47,35.17L247.47,511h7.1L256,546.15,257.42,511h7.11L266,546.15,267.38,511h7.11L276,546.15,277.34,511h7.1l1.47,35.17L287.29,511h7.11l1.47,35.17L297.25,511h7.11l1.47,35.17L307.21,511h7.1l1.47,35.17L317.16,511h7.11l1.47,35.17L327.12,511h7.11l1.47,35.17L337.08,511h7.1l1.47,35.17L347,511h7.11l1.47,35.17L357,511h7.11l1.47,35.17L367,511h7.1l1.47,35.17L376.9,511H384l1.47,35.17L386.86,511H394l1.47,35.17L396.82,511h1.54Zm322.77.23L619,791.57l-.34.2-77.36-43.26,7.4,6.64L538,760.93l11.49-5.06,5.16,4.64-13.32,7.2,14.32-6.31,5,4.46-16,8.63,17.14-7.55,4.77,4.27-18.58,10,20-8.79,4.57,4.1L551.31,788l22.8-10,4.37,3.92-23.84,12.9,25.63-11.29,4.17,3.75L558,801.59l28.45-12.53,4,3.57-29.1,15.74,31.28-13.78,8.44,7.58-78.41,46.29V511h.91L525,546.15,526.37,511h7.11L535,546.15,536.33,511h7.11l1.46,35.17L546.28,511h7.11l1.47,35.17L556.24,511h7.11l1.47,35.17L566.2,511h7.11l1.46,35.17L576.15,511h7.11l1.47,35.17L586.11,511h7.11l1.47,35.17L596.07,511h7.1l1.47,35.17L606,511h7.11l1.47,35.17L616,511h7.11l1.47,35.17L625.94,511H633l1.47,35.17L635.89,511H643l1.47,35.17L645.85,511H653l1.47,35.17L655.81,511h7.1l1.47,35.17L665.76,511h7.11l1.47,35.17L675.72,511h7.11l1.47,35.17L685.68,511h7.1l1.47,35.17L695.63,511h7.11l1.47,35.17L705.59,511h7.11l1.47,35.17L715.55,511h5.58ZM114.64,491V291.49H822.53V491Zm707.07,20-16.5,11.94V511Zm-16.5,12.84L825.27,511H836l-30.81,22.29Zm106.29,9.5h-105L841.46,511h1.07V379.14h69l-40,69.61-4.29,7.48,4.29,7.47ZM456.67,153l-17.74,0,4.18-15.78,16.17,0c6.89,0,10.39,2.3,10.41,6.71C469.7,149.32,464.76,153,456.67,153Z"/></g></g></svg>