<?xml version="1.0" encoding="utf-8"?>
<!-- Generator: Adobe Illustrator 25.2.0, SVG Export Plug-In . SVG Version: 6.00 Build 0)  -->
<svg version="1.1" id="Layer_1" xmlns="http://www.w3.org/2000/svg" xmlns:xlink="http://www.w3.org/1999/xlink" x="0px" y="0px"
	 viewBox="0 0 678.7 767.6" style="enable-background:new 0 0 678.7 767.6;" xml:space="preserve">
<style type="text/css">
	.st0{display:none;fill:url(#SVGID_1_);}
	.st1{fill:#D3D3D3;}
</style>
<g id="Layer_2_1_">
	<g id="FINAL">
		
			<radialGradient id="SVGID_1_" cx="-56.99" cy="831.93" r="1239.27" gradientTransform="matrix(1 0 0 -1 0 770)" gradientUnits="userSpaceOnUse">
			<stop  offset="0.14" style="stop-color:#3F5CAA"/>
			<stop  offset="0.39" style="stop-color:#54439B"/>
			<stop  offset="0.66" style="stop-color:#54439B"/>
			<stop  offset="1" style="stop-color:#4054A4"/>
		</radialGradient>
		<path class="st0" d="M339.3,767.6c-14.6,0-28.7-3.5-39.8-9.9L39.8,607.8C17.1,594.7,0,565,0,538.8V228.8c0-26.2,17.1-55.9,39.8-69
			L299.5,9.9C310.6,3.5,324.7,0,339.3,0s28.8,3.5,39.8,9.9l259.7,149.9c22.7,13.1,39.8,42.8,39.8,69v309.9c0,26.2-17.1,55.9-39.8,69
			L379.2,757.7C368.1,764.1,353.9,767.6,339.3,767.6z"/>
		<path class="st1" d="M593.3,219.6L348.6,76.5c-4.7-2.8-12.5-2.8-17.2,0L86.6,219.6c-4.7,2.8-8.6,9.6-8.6,15.1v296.2
			c0,5.5,3.9,12.3,8.6,15.1l244.8,143.1c4.7,2.8,9.4,4.5,10.4,3.9s5.7-3.4,10.4-6.2L593.3,546c4.7-2.8,8.6-9.6,8.6-15.1V234.7
			C602,229.1,598.1,222.3,593.3,219.6z M299.5,142.9c0.4-2.5,1.6-4.9,3.4-6.7c1.7-1.7,3.6-3.1,5.7-4.3c5.5-3.1,11.5-5.4,17.6-6.7
			l2.6-9.8l22.9-0.1c10.9,0,16.5,3.2,18.7,7.7c5.1,0.6,10.1,1.4,15,2.6c0.3,0.1,1.1,0.2,1,0.6c0,0.3-0.9,0.1-1.4,0
			c-7.3-0.9-14.6-1.2-21.9-0.9c-3.6,0.1-7.4,0.2-11.1,0.6c-11.2,1.2-20.7,2.9-30.1,6.9c-2.9,1.2-5.7,2.7-8.1,4.7
			c-2.3,1.9-4.8,4.4-5,7.9c-0.2,1.8,0.1,3.5,0.9,5.1c1.3,2.8,3.1,5.2,5.4,7.3c0.6,0.6,1.3,1.2,1.9,1.7c0.2-0.6,0.3-1,0.3-1l0,0
			l6.2-23.2c0.5-0.2,1.1-0.5,1.7-0.7c4.7-2,9.6-3.5,14.6-4.5l-1.9,7.4h10.3c5.4,0,8.4-2.1,8.3-5.6c0-1.9-1.1-3.3-3.7-3.8l2.4-0.3
			c3.7-0.4,7.5-0.5,11.1-0.6c1.7-0.1,3.4-0.1,5.2-0.1c0.1,0.5,0.1,1.1,0.1,1.6c0,7-4.6,12.2-12.3,14.1c4.9,1.7,8.4,5.3,8.4,11
			c0,9.5-7.9,16.8-25,16.8l-28.6,0.1l2.2-8.4c-1.2-0.5-2.4-1.1-3.5-1.8c-3.5-1.8-6.7-4.2-9.5-7.1c-0.9-1-1.7-2.1-2.4-3.2
			C299.7,148,299.2,145.4,299.5,142.9z M149.3,338.1c0-7.9,1.9-14.1,5.7-18.5c3.8-4.5,9.2-7.4,16.1-8.8v8.1
			c-5.2,1.6-8.8,4.5-10.6,8.7c-1,2-1.4,4.2-1.2,6.5h12.2v20.5h-22.2V338.1z M112.4,338.1c0-7.8,1.9-13.9,5.6-18.5s9.1-7.5,16.2-8.9
			v8.1c-5.3,1.7-8.9,4.5-10.7,8.6c-0.9,2.1-1.3,4.4-1.2,6.6h12.2v20.5h-22.2L112.4,338.1z M185.1,518.4c-8.2,9.3-20,14.5-32.4,14.3
			c-21.8,0-39.6-14.6-39.6-37.9s17.8-37.9,39.6-37.9c16.4,0,26.2,8.7,31.3,17.8l-15.8,8.3c-3.1-5.6-9-9.2-15.5-9.3
			c-12,0-20.4,9.2-20.4,21.2s8.4,21.1,20.4,21.1c5.4,0,10.9-2.2,13.5-4.4v-5.7h-16.5v-16.6h35.3V518.4z M189.6,503.2
			c0-17.2,12.9-29.2,30.2-29.2s30.1,12,30.1,29.2c0,17.2-12.9,29.2-30.1,29.2S189.6,520.4,189.6,503.2L189.6,503.2z M258.3,586.4
			c0,4.9-3.6,9.9-11.4,9.9h-15.5l7.3-33.3h13.9c4.9,0,8.5,3.2,8.5,7.7c0,4.5-3.3,8.4-7.8,9C256.3,580.6,258.3,583.3,258.3,586.4
			L258.3,586.4z M300.4,596.3l-1.3-7.4h-16.7l-4.5,7.4h-5l20.8-33.3h5.1l6.1,33.3L300.4,596.3z M282.9,532.3
			c-17.2,0-30.2-12-30.2-29.2s12.9-29.2,30.2-29.2s30.1,12,30.1,29.2S300.1,532.4,282.9,532.3L282.9,532.3z M334.1,596.3h-11.4
			l7.3-33.3h11.1c7.7,0,13.9,6.3,13.9,14c0,0.1,0,0.2,0,0.3C355.1,586.3,348.6,596.3,334.1,596.3L334.1,596.3z M342.4,531.3h-23.8
			V475h23.7c17.8,0,30.5,10.6,30.5,28.1C372.8,520.7,360,531.4,342.4,531.3L342.4,531.3z M388.7,593.2c3.3,0,6.4-1.3,8.8-3.5
			l1.5-6.8h-11.5l0.8-3.7H404l-2.7,12.2c-3.3,3.5-8,5.5-12.8,5.5c-9.1,0-15.4-6-15.4-14.6c0-11.5,8.5-19.9,19-19.9
			c6.3,0,10.8,3.1,13.1,7.3l-3.8,1.8c-1.8-3.5-5.6-5.3-10-5.3c-7.4,0-14.1,6.7-14.1,16C377.5,588.7,381.9,593.2,388.7,593.2
			L388.7,593.2z M448.8,566.7h-17.7l-2.4,10.8h17.4l-0.8,3.7h-17.4l-2.5,11.5h17.8l-0.8,3.7h-21.9l7.4-33.3h21.9L448.8,566.7z
			 M435.1,531.4h-15.4l-8.5-35.4l-8.5,35.3h-15.4L371.1,475h16.3l8.6,37.6l9.6-37.6h11.1l9.6,37.6l8.5-37.6h16.4L435.1,531.4z
			 M468.7,531.4h-14.5V475h14.5V531.4z M452.2,308.7l-113.5,30.5l0,0l70.6,18.8l14.5,78.2c-55-12.6-73.9-53.4-85.1-97l0,0
			c-11.5,43.6-30,84.4-85.3,97l14.5-78.2l70.9-18.8l-113.5-30.5l-23.4-125.5c88.5,20.2,118.6,86,136.9,156
			c18.1-70,48.2-135.8,136.7-156L452.2,308.7z M333.6,339.2L333.6,339.2z M514.3,531.4h-37.2V475h14.5v43.7h22.6V531.4z
			 M501.3,369.3v-8.2c5.2-1.7,8.8-4.5,10.6-8.6c1-2,1.4-4.3,1.2-6.5h-12.3v-20.5H523V342c0,7.6-1.9,13.8-5.6,18.4
			S508.4,368,501.3,369.3L501.3,369.3z M557.4,531.4h-37.2V475h14.5v43.7h22.7L557.4,531.4z M559.8,342c0,7.4-1.8,13.5-5.4,18.2
			c-3.6,4.7-9.1,7.7-16.4,9.1v-8.2c5.4-1.6,9-4.6,10.7-8.9c0.8-2,1.1-4.1,1.1-6.2h-12.2v-20.5h22.2V342z"/>
		<path class="st1" d="M219.8,486.9c-9.4,0-15.4,7.1-15.4,16.3s6,16.3,15.4,16.3s15.3-7.2,15.3-16.3S229.1,486.9,219.8,486.9z"/>
		<path class="st1" d="M248.9,581.1h-9.8l-2.6,11.5H247c4.8,0,7.2-3.2,7.2-6.5C254.2,583.2,252.2,581.1,248.9,581.1z"/>
		<path class="st1" d="M251.8,566.6h-9.4l-2.4,10.8h10.4c4.9,0,6.6-3.2,6.6-6.2C256.7,568.6,254.5,566.5,251.8,566.6
			C251.8,566.6,251.8,566.6,251.8,566.6z"/>
		<path class="st1" d="M283.1,486.9c-9.4,0-15.4,7.1-15.4,16.3s6,16.3,15.4,16.3s15.3-7.2,15.3-16.3S292.4,486.9,283.1,486.9z"/>
		<polygon class="st1" points="284.7,585.2 298.9,585.2 295.7,567.2 		"/>
		<path class="st1" d="M340.6,566.6h-7l-5.8,26h7.1c9.8,0,16-7,16-15.2C351,571.2,346.5,566.6,340.6,566.6z"/>
		<path class="st1" d="M342.6,487.6h-9.2v31h9.1c9.9,0,15.6-7.2,15.6-15.5C358.1,494.4,352.9,487.6,342.6,487.6z"/>
		<path class="st1" d="M352.6,152.3c0-2.8-2.3-4.3-6.8-4.3h-10.6l-2.7,10.2h11.6C349.4,158.1,352.6,155.8,352.6,152.3z"/>
		<path class="st1" d="M340.6,41.9c9.3-0.1,18.4,2.3,26.5,6.9l242.3,141.6c15.7,9.1,26.2,27.5,26.2,45.7v293.3
			c0,18.2-10.5,36.6-26.2,45.7L370.7,714.7c-5.6,3.3-9.2,5.4-9.6,5.7c-5.8,3.5-12.5,5.4-19.2,5.4l0,0c-8.4,0-17.5-2.9-27.7-8.9
			L71.8,575.2c-15.6-9.2-26.2-27.5-26.2-45.7V236.2c0-18.2,10.5-36.6,26.2-45.7L314.1,48.8C322.2,44.2,331.3,41.8,340.6,41.9
			 M340.6,19.9c-13.2-0.1-26.2,3.4-37.6,9.9L60.7,171.4c-22.7,13.7-36.8,38.2-37.1,64.7v293.3c0.3,26.5,14.3,51,37.1,64.7L303,735.9
			c13.7,8,26.4,11.9,38.8,11.9c10.8,0,21.5-3,30.7-8.6c0.4-0.2,3.8-2.3,9.3-5.5l238.7-139.5c22.7-13.7,36.8-38.2,37.1-64.7V236.2
			c0-26.1-14.5-51.5-37.1-64.7L378.2,29.8C366.8,23.2,353.8,19.8,340.6,19.9L340.6,19.9z"/>
		<path class="st1" d="M341.9,711.4C341.9,711.4,341.8,711.4,341.9,711.4L341.9,711.4c-5.6,0-12.4-2.3-20.1-6.8l-243-142.1
			c-11-6.4-18.6-19.8-18.6-32.6V235.7c0-12.8,7.7-26.2,18.6-32.6l243-142.1c11.8-6.5,25.9-6.5,37.6,0l243.1,142.1
			c11,6.4,18.6,19.8,18.6,32.6v294.1c0,12.8-7.7,26.2-18.6,32.6L363,702.4c-5.4,3.2-9.3,5.5-10,5.9
			C349.7,710.3,345.8,711.4,341.9,711.4z M340.6,61.2c-5.6,0-11.3,1.4-16.4,4.2l-242.9,142c-9.5,5.6-16.2,17.2-16.2,28.3v294.1
			c0,11.1,6.6,22.7,16.2,28.3l243,142.1c6.9,4.1,12.8,6.1,17.5,6.1h0c3.1,0,6-0.8,8.6-2.4c0.7-0.4,4.6-2.7,10-5.9l239.4-139.9
			c9.5-5.6,16.2-17.2,16.2-28.3V235.7c0-11.1-6.6-22.7-16.2-28.3l-243-142.1C351.8,62.6,346.2,61.2,340.6,61.2z"/>
	</g>
</g>
</svg>
