<svg xmlns="http://www.w3.org/2000/svg" viewBox="0 0 885.81 885.81"><defs><style>.cls-1{fill:#d3d3d3;}</style></defs><g id="Layer_2" data-name="Layer 2"><g id="FINAL"><path class="cls-1" d="M456.24,346.82c7.08-5,14.87-9.1,21.41-14.7a131.15,131.15,0,0,0,39.11-57.27c6-17.11,11.5-34.17,11.55-52.52a32,32,0,0,1,.51-6.5c1.82-8.82,1.18-9.9-6.57-13.8-12.93-6.51-25.76-13.25-38.6-19.95-11-5.76-22-11.68-33-17.35a5.92,5.92,0,0,0-4.51-.07c-3.73,1.62-7.29,3.66-10.91,5.55-17.31,9.06-34.77,17.84-51.86,27.3-7.78,4.3-20.31,5.68-16.11,20.09.77,5.26,1.81,10.5,2.25,15.79,1.63,19.25,7.25,37.47,15.6,54.62,12.18,25,30.19,45,54.78,58.72C445.55,349.92,450.65,350.76,456.24,346.82ZM439.3,335.17c-19-12.91-34.18-29.46-44.4-49.86a158.17,158.17,0,0,1-15.52-50.82c-.76-5.86-2-11.72-2-17.59a9.15,9.15,0,0,1,3.93-6.87c16-8.65,32.25-16.84,48.4-25.21,4.68-2.42,9.15-5.29,14-7.31,2.42-1,6-1.72,8.11-.66,19.92,10,39.57,20.57,59.46,30.64,5.79,2.93,9.46,6.3,7.64,12-2.91,32.4-11.25,61.55-30.69,86.83-8.74,11.38-19.36,20.54-31,28.71C451.06,339.32,445.55,339.4,439.3,335.17ZM283.89,295.58c-11.83-9.23-19.79-21.33-24.68-37.44,3,.51,4.88.58,6.59,1.15,15.4,5.19,30.8,10.4,46.15,15.74a13.42,13.42,0,0,1,8.71,8c3.14,7.61,7.17,14.85,11,22.18,1.52,2.93,3.37,5.69,5.33,9C323.45,315.23,297.64,306.32,283.89,295.58Zm159-267.26c-228.61,0-414.59,186-414.59,414.59s186,414.58,414.59,414.58,414.58-186,414.58-414.58S671.51,28.32,442.91,28.32Zm399.23,407.8-41.85.7c0-3.3-.15-6.63-.3-9.91l41.81-1.84C842,428.73,842.08,432.45,842.14,436.12Zm-1.57-29.44-41.68,3.75c-.29-3.27-.64-6.59-1-9.86l41.56-4.9C839.86,399.32,840.24,403,840.57,406.68Zm-3.72-29.27-41.3,6.82c-.53-3.24-1.12-6.52-1.74-9.75l41.08-8C835.59,370.12,836.25,373.79,836.85,377.41ZM831,348.5l-40.67,9.86c-.77-3.2-1.6-6.42-2.47-9.59l40.38-11C829.17,341.32,830.1,344.92,831,348.5Zm-8-28.41L783.12,333c-1-3.13-2.08-6.3-3.19-9.41l39.45-14C820.61,313.05,821.81,316.59,822.94,320.09Zm-10.13-27.8-38.76,15.79c-1.24-3-2.54-6.12-3.88-9.14l38.3-16.87C810,285.45,811.42,288.89,812.81,292.29Zm-12.18-27L763.16,284c-1.46-2.94-3-5.91-4.54-8.82l36.94-19.67C797.29,258.73,799,262.05,800.63,265.34Zm-14.13-26-36,21.37c-1.67-2.83-3.42-5.68-5.18-8.47l35.38-22.34C782.68,233.05,784.63,236.23,786.5,239.38Zm-16-24.82-34.32,24c-1.88-2.7-3.83-5.41-5.78-8.05L764,205.57C766.22,208.52,768.39,211.55,770.5,214.56Zm-24.89-32.05c2.4,2.79,4.79,5.65,7.11,8.49l-32.46,26.42c-2.07-2.55-4.21-5.11-6.36-7.6Zm-12.35-13.69-30.42,28.73c-2.26-2.39-4.59-4.78-6.91-7.11l29.63-29.56C728.15,163.48,730.74,166.15,733.26,168.82Zm-21-20.69L684,179c-2.42-2.22-4.91-4.43-7.4-6.58L704,140.78C706.75,143.18,709.53,145.66,712.24,148.13Zm-22.47-19.07-25.9,32.87c-2.58-2-5.22-4.05-7.86-6l25-33.57C683.93,124.53,686.89,126.79,689.77,129.06ZM666,111.68l-23.4,34.7c-2.73-1.84-5.52-3.67-8.28-5.42l22.44-35.33C659.81,107.59,662.92,109.63,666,111.68ZM641,96.12l-20.79,36.32c-2.84-1.63-5.75-3.24-8.64-4.79l19.77-36.88C634.52,92.5,637.77,94.3,641,96.12ZM614.86,82.45l-18,37.76c-3-1.41-6-2.81-9-4.14l17-38.24C608.19,79.32,611.56,80.87,614.86,82.45ZM577.49,66.87c3.46,1.24,7,2.55,10.36,3.88l-15.19,39c-3.06-1.19-6.18-2.36-9.28-3.47ZM549.35,58c3.54,1,7.11,2,10.62,3.09l-12.25,40c-3.14-1-6.34-1.9-9.51-2.77Zm-28.72-6.79c3.6.71,7.24,1.49,10.82,2.3l-9.24,40.81c-3.2-.72-6.46-1.41-9.69-2.05Zm-29.15-4.63c3.64.44,7.33.94,11,1.48l-6.19,41.39c-3.26-.49-6.56-.93-9.81-1.33ZM462.1,44.07c3.67.18,7.39.4,11,.68L470,86.48c-3.27-.25-6.6-.45-9.89-.61Zm-19.19-.45h.76l-.06,41.85h-.7c-3.29,0-6.63,0-9.92.13l-1.14-41.83C435.52,43.67,439.24,43.62,442.91,43.62Zm-29.46,1.07,3,41.74c-3.28.24-6.6.53-9.87.85l-4.19-41.63C406.08,45.28,409.79,45,413.45,44.69Zm-29.32,3.23,6.11,41.4c-3.25.48-6.54,1-9.78,1.58L373.2,49.68C376.82,49.05,380.5,48.45,384.13,47.92Zm-29,5.38,9.16,40.84c-3.21.72-6.45,1.49-9.63,2.3l-10.3-40.56C347.91,55,351.53,54.11,355.12,53.3Zm-28.54,7.53,12.18,40c-3.16,1-6.34,2-9.47,3L316,64.22C319.49,63,323.05,61.91,326.58,60.83Zm-28,9.67,15.13,39c-3.07,1.19-6.17,2.44-9.21,3.72L288.31,74.65C291.71,73.23,295.17,71.83,298.6,70.5ZM271.44,82.21l18,37.78c-3,1.42-6,2.9-8.91,4.4l-19-37.27C264.77,85.44,268.12,83.79,271.44,82.21ZM245.25,95.9,266,132.24c-2.85,1.64-5.73,3.33-8.54,5L235.7,101.53C238.84,99.61,242.06,97.72,245.25,95.9Zm-25.1,15.58,23.38,34.71c-2.74,1.84-5.48,3.75-8.15,5.66l-24.33-34.06C214,115.66,217.1,113.54,220.15,111.48Zm-23.86,17.38,25.87,32.9c-2.59,2-5.18,4.13-7.71,6.23l-26.77-32.17C190.51,133.47,193.4,131.13,196.29,128.86Zm-22.51,19.08L202,178.85c-2.43,2.22-4.87,4.5-7.23,6.78l-29.06-30.12C168.35,153,171.07,150.42,173.78,147.94Zm-21,20.67,30.41,28.75c-2.26,2.39-4.51,4.84-6.71,7.3l-31.18-27.91C147.71,174,150.22,171.27,152.74,168.61Zm-19.45,22.15,32.43,26.45c-2.07,2.54-4.14,5.16-6.15,7.76l-33.15-25.55C128.66,196.52,131,193.61,133.29,190.76Zm-17.77,23.51,34.29,24c-1.89,2.69-3.76,5.45-5.56,8.19l-34.94-23C111.32,220.35,113.41,217.28,115.52,214.27ZM99.53,239l36,21.4c-1.68,2.82-3.34,5.7-4.93,8.57L94,248.59C95.8,245.39,97.65,242.17,99.53,239ZM85.41,264.87l37.45,18.68c-1.46,2.93-2.9,5.93-4.29,8.91L80.62,274.81C82.17,271.49,83.78,268.15,85.41,264.87ZM73.25,291.68,112,307.54c-1.24,3-2.46,6.14-3.62,9.22L69.2,302C70.5,298.54,71.86,295.08,73.25,291.68ZM63.09,319.39l39.8,12.94c-1,3.12-2,6.3-2.92,9.46L59.82,330C60.86,326.44,62,322.88,63.09,319.39ZM55,347.78l40.66,9.94c-.79,3.2-1.53,6.44-2.22,9.65l-40.91-8.8C53.32,355,54.15,351.36,55,347.78Zm-5.93,28.91,41.28,6.89c-.55,3.24-1.05,6.53-1.5,9.79l-41.45-5.74C47.92,384,48.48,380.3,49.09,376.69Zm-3.78,29.25L87,409.77c-.3,3.28-.56,6.6-.77,9.88L44.45,417C44.68,413.31,45,409.6,45.31,405.94Zm-1.69,37c0-2.5,0-5,.07-7.52l41.84.77c0,2.24-.06,4.51-.06,6.75,0,1,0,2.11,0,3.17l-41.85.36C43.62,445.27,43.62,444.09,43.62,442.91Zm.59,21.95L86,462.59c.18,3.29.4,6.61.67,9.89L45,475.89C44.66,472.24,44.41,468.52,44.21,464.86Zm2.68,29.37L88.4,488.9c.42,3.26.89,6.56,1.39,9.8l-41.34,6.48C47.88,501.56,47.36,497.87,46.89,494.23Zm4.84,29.1,41-8.39c.66,3.23,1.37,6.49,2.12,9.68L54.1,534.15C53.26,530.58,52.46,526.94,51.73,523.33Zm7,28.68L99,540.59c.9,3.17,1.85,6.36,2.84,9.49L61.88,562.62C60.78,559.11,59.71,555.54,58.71,552Zm9.12,28.12,39.3-14.38c1.13,3.09,2.32,6.21,3.54,9.28L71.79,590.5C70.43,587.08,69.1,583.59,67.83,580.13ZM79,607.51l38.12-17.27c1.36,3,2.78,6,4.23,9L83.74,617.55C82.13,614.23,80.54,610.86,79,607.51ZM92.22,634,129,613.92c1.58,2.89,3.22,5.79,4.87,8.64L97.66,643.62C95.81,640.45,94,637.2,92.22,634Zm15.1,25.39,35.15-22.72c1.79,2.76,3.64,5.54,5.5,8.26l-34.51,23.68C111.38,665.54,109.32,662.44,107.32,659.36Zm16.93,24.19,33.38-25.25c2,2.63,4,5.26,6.09,7.83l-32.67,26.15C128.76,689.42,126.47,686.48,124.25,683.55Zm18.66,22.86,31.43-27.63c2.18,2.48,4.41,5,6.64,7.35l-30.65,28.49C147.83,711.94,145.34,709.18,142.91,706.41Zm20.27,21.43L192.5,698c2.34,2.3,4.75,4.6,7.17,6.85l-28.49,30.65C168.48,733,165.79,730.4,163.18,727.84ZM185,747.71l27-31.94c2.51,2.12,5.08,4.24,7.65,6.3L193.5,754.74C190.63,752.44,187.76,750.07,185,747.71Zm23.18,18.21,24.63-33.83c2.65,1.93,5.37,3.85,8.08,5.71l-23.69,34.5C214.14,770.22,211.1,768.08,208.14,765.92Zm24.45,16.45,22.07-35.55c2.79,1.73,5.64,3.44,8.47,5.1l-21.08,36.15C238.88,786.22,235.7,784.31,232.59,782.37ZM258.17,797l19.39-37.08c2.9,1.52,5.87,3,8.81,4.45L268,802C264.73,800.35,261.42,798.67,258.17,797Zm36.76,16.9c-3.39-1.35-6.82-2.78-10.18-4.23l16.59-38.42c3,1.3,6.07,2.57,9.11,3.79Zm27.8,9.92c-3.5-1.11-7-2.28-10.51-3.48l13.69-39.55c3.11,1.08,6.28,2.13,9.4,3.11Zm28.46,7.82c-3.57-.84-7.19-1.75-10.74-2.69l10.71-40.45c3.18.84,6.41,1.65,9.61,2.4Zm29,5.68c-3.63-.58-7.3-1.21-10.91-1.88l7.68-41.14c3.22.6,6.51,1.17,9.76,1.68Zm29.28,3.52c-3.66-.3-7.36-.66-11-1.07L403,798.15c3.26.36,6.58.68,9.86,1Zm29.45,1.36c-3.67,0-7.38-.12-11.05-.26l1.56-41.82c3.28.13,6.61.2,9.9.24ZM100.7,442.91c0-188.7,153.51-342.21,342.21-342.21s342.2,153.51,342.2,342.21S631.6,785.12,442.91,785.12,100.7,631.6,100.7,442.91Zm356.6,399-1.49-41.82c3.29-.12,6.62-.28,9.9-.49l2.63,41.77C464.68,841.63,461,841.81,457.3,841.94Zm29.41-2.12-4.54-41.61c3.26-.35,6.57-.76,9.83-1.21l5.69,41.46C494.05,839,490.36,839.42,486.71,839.82Zm29.19-4.29-7.61-41.15c3.24-.6,6.5-1.25,9.71-1.93l8.75,40.92C523.16,834.14,519.51,834.87,515.9,835.53Zm28.8-6.43-10.64-40.48c3.17-.83,6.38-1.72,9.54-2.65l11.76,40.16C551.84,827.17,548.25,828.16,544.7,829.1Zm28.24-8.57L559.32,781c3.11-1.07,6.26-2.2,9.35-3.36l14.72,39.17C579.94,818.07,576.42,819.34,572.94,820.53Zm27.6-10.66L584,771.42c3-1.3,6.07-2.66,9.06-4l17.6,38C607.33,806.89,603.92,808.41,600.54,809.87Zm26.71-12.69L607.9,760.07c2.93-1.52,5.87-3.11,8.74-4.71L637,791.92C633.8,793.71,630.52,795.48,627.25,797.18Zm25.68-14.62-22-35.58c2.8-1.73,5.61-3.53,8.35-5.34l23,35C659.2,778.61,656.06,780.62,652.93,782.56Zm24.51-16.47-24.61-33.85c2.66-1.94,5.33-3.94,7.94-5.94l25.53,33.15C683.39,761.7,680.41,763.93,677.44,766.09Zm23.22-18.22-27-32c2.51-2.13,5-4.32,7.47-6.51L709,740.61C706.27,743.05,703.46,745.49,700.66,747.87ZM722.46,728l-29.3-29.88c2.34-2.3,4.69-4.66,7-7l30.11,29.06C727.7,722.79,725.08,725.43,722.46,728Zm20.28-21.4L711.33,679c2.17-2.47,4.34-5,6.44-7.53l32.16,26.77C747.59,701,745.17,703.84,742.74,706.6Zm18.65-22.83L728,658.5c2-2.61,4-5.3,5.87-8l34,24.34C765.81,677.85,763.6,680.85,761.39,683.77Zm16.92-24.13-35.13-22.75c1.79-2.76,3.56-5.57,5.26-8.37l35.74,21.76C782.28,653.41,780.3,656.55,778.31,659.64Zm15.09-25.31-36.72-20.09c1.58-2.88,3.14-5.82,4.63-8.73l37.25,19.07C796.89,627.83,795.16,631.12,793.4,634.33ZM806.57,608l-38.1-17.32c1.36-3,2.69-6,4-9L811,597.89C809.57,601.26,808.08,604.67,806.57,608Zm11.18-27.23-39.28-14.44c1.13-3.08,2.24-6.23,3.29-9.35l39.66,13.36C820.25,573.82,819,577.33,817.75,580.77Zm9.15-28-40.24-11.49c.9-3.16,1.77-6.38,2.58-9.56L829.79,542C828.88,545.59,827.91,549.18,826.9,552.72Zm7-28.66-41-8.47c.67-3.22,1.3-6.49,1.87-9.72l41.2,7.32C835.38,516.8,834.68,520.46,833.94,524.06Zm4.89-29.1-41.5-5.41c.42-3.25.81-6.57,1.14-9.84L840.11,484C839.73,487.62,839.3,491.32,838.83,495Zm2.73-29.37-41.78-2.34c.18-3.28.32-6.62.41-9.9L842,454.54C841.92,458.21,841.76,461.93,841.56,465.59ZM442.91,0C198.69,0,0,198.69,0,442.91s198.69,442.9,442.91,442.9,442.9-198.68,442.9-442.9S687.13,0,442.91,0Zm0,871.86c-236.53,0-429-192.43-429-428.95s192.43-429,429-429,429,192.43,429,429S679.43,871.86,442.91,871.86ZM253.6,235.4c-12.06-11.91-19.35-26.13-23.95-43.32,3,.47,5.33.45,7.36,1.25,4.75,1.87,9.32,4.16,14,6.22,32.13,14.16,64.31,28.22,96.33,42.63a13.74,13.74,0,0,1,6.62,7.35c7,20.83,12.89,42.07,25.83,60.44,8.18,11.62,17.44,22.12,28.64,30.79,10.14,7.85,20.59,15.31,30.91,22.94h-9.51c-12.37-5.09-25.33-9.09-37-15.47-29.89-16.37-51.34-40.56-62.94-73-1.93-5.38-5.13-9-11.1-10.24-5.56-1.16-10.9-3.31-16.4-4.81C284.42,255.3,267.33,249,253.6,235.4Zm295.11,6.78c32-14.41,64.2-28.47,96.33-42.63,4.67-2.06,9.25-4.35,14-6.22,2-.8,4.38-.78,7.36-1.25-4.6,17.19-11.89,31.41-23.94,43.32-13.73,13.56-30.83,19.9-48.81,24.82-5.5,1.5-10.84,3.65-16.4,4.81-6,1.25-9.17,4.86-11.1,10.24-11.6,32.4-33,56.59-62.93,73-11.66,6.38-24.62,10.38-37,15.47h-9.51c10.31-7.63,20.76-15.09,30.9-22.94,11.2-8.67,20.46-19.17,28.64-30.79,13-18.37,18.79-39.61,25.83-60.44A13.78,13.78,0,0,1,548.71,242.18Zm63.45,53.4c-13.75,10.74-39.57,19.65-53.07,18.54,2-3.27,3.82-6,5.33-9,3.79-7.33,7.83-14.57,11-22.18a13.42,13.42,0,0,1,8.71-8c15.35-5.34,30.75-10.55,46.16-15.74,1.71-.57,3.59-.64,6.58-1.15C631.94,274.25,624,286.35,612.16,295.58ZM288.59,198l-7.45-11.8a303.68,303.68,0,0,1,324.51.62l-7.49,11.77A289.71,289.71,0,0,0,288.59,198Zm188.49,63.41c0-6.65-4.09-10.88-9.82-12.9,9-2.24,14.47-8.35,14.45-16.56,0-.64,0-1.27-.12-1.9-2.09,0-4.13,0-6.08.12-4.26.17-8.69.3-13,.74-1,.09-1.91.2-2.84.31,3,.63,4.35,2.23,4.36,4.47,0,4.06-3.4,6.56-9.77,6.58l-12.09,0,2.23-8.67a96.51,96.51,0,0,0-17.11,5.29c-.67.28-1.32.57-2,.87L418.06,267h0l-.32,1.21c-.76-.65-1.51-1.31-2.24-2a26.22,26.22,0,0,1-6.28-8.51,10.9,10.9,0,0,1-1.1-6c.34-4.09,3.18-7.06,5.9-9.26a38.21,38.21,0,0,1,9.51-5.47c11-4.6,22.13-6.68,35.22-8,4.34-.44,8.77-.57,13-.73a153.48,153.48,0,0,1,25.65,1.07c.51.07,1.64.29,1.58,0,.12-.43-.79-.61-1.17-.7a138.79,138.79,0,0,0-17.59-3.1c-2.65-5.22-9.18-9-21.94-9l-26.85.07-3,11.46c-8.06,1.9-15.17,4.53-20.66,7.83a31.55,31.55,0,0,0-6.67,5,14,14,0,0,0-4,7.84,13.69,13.69,0,0,0,1.78,8.52,20.62,20.62,0,0,0,2.77,3.78,42.34,42.34,0,0,0,11.13,8.33c1.33.74,2.7,1.42,4.11,2.06l-2.6,9.79,33.5-.09C467.81,281.06,477.11,272.54,477.08,261.38Zm-27.95,5.33-13.57,0,3.2-11.91,12.36,0c5.27,0,7.95,1.73,8,5.06C459.09,263.91,455.31,266.69,449.13,266.71ZM214.51,460V396H241a19,19,0,0,1,7.49,1.34,15.16,15.16,0,0,1,5.23,3.55,14.53,14.53,0,0,1,3.12,5.19,18.34,18.34,0,0,1,1.06,6.24,15.67,15.67,0,0,1-2.93,9.84,12.87,12.87,0,0,1-7.34,4.84,11.44,11.44,0,0,1,4.51,1.78,13.46,13.46,0,0,1,3.6,3.5,17.88,17.88,0,0,1,2.35,4.8,18.32,18.32,0,0,1,.86,5.67,21.5,21.5,0,0,1-1.05,6.81,15.07,15.07,0,0,1-3.17,5.48,14.85,14.85,0,0,1-5.33,3.64,19.32,19.32,0,0,1-7.53,1.35Zm23.42-38.11a6.33,6.33,0,0,0,5.14-2,8,8,0,0,0,1.68-5.34,7.87,7.87,0,0,0-1.68-5.24,6.33,6.33,0,0,0-5.14-2H227.37v14.6Zm.48,26.78a7.1,7.1,0,0,0,5.52-2.05,8.25,8.25,0,0,0,1.87-5.78,8.42,8.42,0,0,0-1.87-5.58,6.8,6.8,0,0,0-5.52-2.24h-11v15.65Zm53.76,12.48a24.06,24.06,0,0,1-19.58-9.41,31.31,31.31,0,0,1-5.28-10.46,48.7,48.7,0,0,1,0-26.45,31.28,31.28,0,0,1,5.28-10.51,24.89,24.89,0,0,1,39.26,0,31.66,31.66,0,0,1,5.28,10.51,49,49,0,0,1,0,26.45,31.69,31.69,0,0,1-5.28,10.46,24.07,24.07,0,0,1-19.68,9.41Zm-.05-11.43a10.36,10.36,0,0,0,5.83-1.67,13.93,13.93,0,0,0,4.29-4.61,24.24,24.24,0,0,0,2.65-6.87,37.66,37.66,0,0,0,.91-8.54,38.3,38.3,0,0,0-.91-8.59,24.16,24.16,0,0,0-2.65-6.91A13.29,13.29,0,0,0,298,408a10.58,10.58,0,0,0-5.83-1.64,10.35,10.35,0,0,0-5.78,1.64,13.45,13.45,0,0,0-4.24,4.56,23.29,23.29,0,0,0-2.6,6.91,40.2,40.2,0,0,0-.87,8.59,39.52,39.52,0,0,0,.87,8.54,23.34,23.34,0,0,0,2.6,6.87,14.11,14.11,0,0,0,4.24,4.61A10.13,10.13,0,0,0,292.12,449.73ZM327.79,460V396h20.63a28.23,28.23,0,0,1,11.81,2.35A24.19,24.19,0,0,1,369,405a29.63,29.63,0,0,1,5.42,10.18,45.67,45.67,0,0,1,0,25.87A29.24,29.24,0,0,1,369,451.08a24.43,24.43,0,0,1-8.74,6.58A28.39,28.39,0,0,1,348.42,460Zm20.63-11.33a13,13,0,0,0,6.29-1.49,13.16,13.16,0,0,0,4.61-4.22,20.27,20.27,0,0,0,2.83-6.53,34.25,34.25,0,0,0,1-8.4q0-9.6-3.69-15.17t-11-5.57h-7.77v41.38ZM395.85,460v-26.4L376.07,396h14.21l12,25.72,12-25.72h14.21l-19.78,37.63V460Zm54.47,1.15a33.38,33.38,0,0,1-12.7-2.21,27.77,27.77,0,0,1-9.23-6.05l6.34-9.88a21.32,21.32,0,0,0,6.67,4.89,20,20,0,0,0,8.79,1.92q4.32,0,6.52-2.06a6.66,6.66,0,0,0,2.21-5,5.53,5.53,0,0,0-2.11-4.51,23.79,23.79,0,0,0-5.28-3.17c-2.11-1-4.42-1.94-6.91-2.93a31.75,31.75,0,0,1-6.92-3.79,19.79,19.79,0,0,1-5.27-5.76,16.91,16.91,0,0,1-2.12-8.93,18.16,18.16,0,0,1,1.44-7.15,17.76,17.76,0,0,1,4.18-6,19.68,19.68,0,0,1,6.62-4.08,24.79,24.79,0,0,1,8.88-1.49,31.07,31.07,0,0,1,10.8,1.82,25,25,0,0,1,8.6,5.28l-6.15,9.6a18.29,18.29,0,0,0-6.43-4.08,21.23,21.23,0,0,0-7.3-1.29,8,8,0,0,0-5.47,1.77,6,6,0,0,0-2,4.75,5,5,0,0,0,2.11,4.13,25.53,25.53,0,0,0,5.3,3q3.18,1.4,6.89,2.92a31.53,31.53,0,0,1,6.89,3.94,20.6,20.6,0,0,1,5.29,5.95,17.14,17.14,0,0,1,2.12,8.93,20.52,20.52,0,0,1-1.44,7.78,17.27,17.27,0,0,1-4.19,6.14,19.55,19.55,0,0,1-6.78,4.08A27,27,0,0,1,450.32,461.16Zm30-1.15V396h23.61a20.88,20.88,0,0,1,8.64,1.68,17.82,17.82,0,0,1,6.2,4.46,18.87,18.87,0,0,1,3.69,6.48,25.12,25.12,0,0,1,0,15.65,19.24,19.24,0,0,1-3.69,6.52,17.11,17.11,0,0,1-6.2,4.47,21.38,21.38,0,0,1-8.64,1.63H493.19V460Zm22.08-34.47a7.64,7.64,0,0,0,5.9-2.44,11,11,0,0,0,0-13.35,7.65,7.65,0,0,0-5.9-2.45h-9.22v18.24ZM560.3,460l-3-11.33H537.64l-3,11.33H520.74l19-64H555.3l19,64Zm-12.77-50.5-7.3,27.84h14.59Zm54.62,51.65a24.55,24.55,0,0,1-19.73-9.26A30.8,30.8,0,0,1,577,441.43,45.72,45.72,0,0,1,575.17,428,45.23,45.23,0,0,1,577,414.7a31.36,31.36,0,0,1,5.39-10.47,24.4,24.4,0,0,1,19.73-9.31,22.28,22.28,0,0,1,8.06,1.34,20.23,20.23,0,0,1,6,3.55,23.5,23.5,0,0,1,4.32,4.95,39.53,39.53,0,0,1,3,5.52L612.9,415a15.26,15.26,0,0,0-4.17-6.24,9.65,9.65,0,0,0-6.58-2.4,10.52,10.52,0,0,0-5.81,1.64,14,14,0,0,0-4.32,4.51,23.64,23.64,0,0,0-2.73,6.86,39.81,39.81,0,0,0,0,17.38,23.64,23.64,0,0,0,2.73,6.86,14,14,0,0,0,4.32,4.51,10.51,10.51,0,0,0,5.81,1.63,9.37,9.37,0,0,0,6.77-2.63,16.31,16.31,0,0,0,4.08-6.68L623.65,445a37.16,37.16,0,0,1-2.92,5.76,24.34,24.34,0,0,1-4.32,5.19,20.8,20.8,0,0,1-6,3.74A21.51,21.51,0,0,1,602.15,461.16ZM631.33,460V396H668V407.3H644.2v14.5h23.13v11.33H644.2v15.55H668V460Zm29.85-228.73L649,243.12a285,285,0,0,1,80.86,199.47,290.47,290.47,0,0,1-2.17,35.51H159.1a290.47,290.47,0,0,1-2.17-35.51,284.9,284.9,0,0,1,81.34-200L226.1,230.76a303.45,303.45,0,1,0,435.08.52ZM608.26,614.14a49.44,49.44,0,0,0-9.58-4.7q-5.74-2.16-12.37-4.78a56.15,56.15,0,0,1-12.37-6.78,35.21,35.21,0,0,1-9.58-10.61q-3.83-6.43-3.83-16.52a34.21,34.21,0,0,1,2.7-13.38A33.83,33.83,0,0,1,571.07,546a37.65,37.65,0,0,1,12.72-7.91,47.72,47.72,0,0,1,17.5-3,60.19,60.19,0,0,1,20.47,3.4,51.19,51.19,0,0,1,16.81,9.84l-13.06,20.9a33.27,33.27,0,0,0-12-7.31,40.73,40.73,0,0,0-13.24-2.27q-5.4,0-8.19,2.44a8.14,8.14,0,0,0-2.79,6.44c0,2.56,1.29,4.65,3.85,6.28a58.63,58.63,0,0,0,9.52,4.7l12.41,5a56.31,56.31,0,0,1,12.41,6.88A35.8,35.8,0,0,1,637,602q3.84,6.45,3.84,16.2A39.54,39.54,0,0,1,638,633.35,31.75,31.75,0,0,1,629.83,645a38.24,38.24,0,0,1-13.09,7.57,53.15,53.15,0,0,1-17.64,2.7q-14.15,0-24.44-4a51.58,51.58,0,0,1-17.61-11.15l13.41-21.6a38.73,38.73,0,0,0,28.39,12.19q6.1,0,9.67-2.78a8.64,8.64,0,0,0,3.57-7.13A7.69,7.69,0,0,0,608.26,614.14ZM483.69,562.56a41.4,41.4,0,0,1,7.73-14.17,34.15,34.15,0,0,1,12.09-9,37.87,37.87,0,0,1,15.67-3.18,32.27,32.27,0,0,1,11,1.75,29.24,29.24,0,0,1,8.58,4.75,31.19,31.19,0,0,1,6.37,7,43.34,43.34,0,0,1,4.36,8.26l-17.16,7.67a20,20,0,0,0-4.88-7.54,11.3,11.3,0,0,0-8.25-3.25q-7.41,0-12.09,6.63T502.41,581q0,13,4.68,19.63t12.09,6.62a18.33,18.33,0,0,0,6.69-1.17,13.69,13.69,0,0,0,4.88-3v-9.48H516.58V575h33.93V611.4A45.23,45.23,0,0,1,537,622a38.68,38.68,0,0,1-17.81,3.91,37.87,37.87,0,0,1-15.67-3.18,33.85,33.85,0,0,1-12.09-9.1,42.25,42.25,0,0,1-7.73-14.17,63.54,63.54,0,0,1,0-36.85Zm-80.21-25h21.45L449.76,581V537.6h21.06v86.71H450.87l-26.33-45.63v45.63H403.48Zm-34.84,0H389.7v86.71H368.64Zm-113.22-.73,12.71,73,14.95-73h21.3l14.78,73,12.71-73h29.72L335.13,651.46H306.44l-12.88-69.24-12.71,69.24H252.16L225.7,536.87Z"/></g></g></svg>