<svg xmlns="http://www.w3.org/2000/svg" xmlns:xlink="http://www.w3.org/1999/xlink" viewBox="0 0 785.85 785.85"><defs><style>.cls-1{fill:url(#linear-gradient);}.cls-2{fill:#fff;}</style><linearGradient id="linear-gradient" x1="-55.52" y1="-126.4" x2="999.89" y2="1095.84" gradientUnits="userSpaceOnUse"><stop offset="0" stop-color="#ed1c24"/><stop offset="0.3" stop-color="#f99c1c"/><stop offset="0.64" stop-color="#f99c1c"/><stop offset="1" stop-color="#ed1c24"/></linearGradient></defs><g id="Layer_2" data-name="Layer 2"><g id="FINAL"><circle class="cls-1" cx="392.93" cy="392.93" r="392.93"/><path class="cls-2" d="M392.49,37.78A355.61,355.61,0,0,1,645.4,644.26,355.61,355.61,0,1,1,141.29,142.55,353.35,353.35,0,0,1,392.49,37.78m-.05-21.1C184.37,17.15,16.09,186.23,16.59,394.31S186.17,770.66,394.25,770.16,770.6,600.57,770.1,392.5,600.52,16.15,392.44,16.65ZM394.16,734C206,734.4,53.18,582.17,52.81,394A340.68,340.68,0,0,1,260,79.9C433.47,7,633.18,88.48,706.1,261.93c72.49,172.43-7.61,371.06-179.43,445A338.65,338.65,0,0,1,394.16,734Zm-1.6-669.14C211.07,65.43,64.39,213,65,394.49A328.59,328.59,0,0,0,266.2,696.42c167.35,70.23,359.94-8.51,430.16-175.87S687.85,160.61,520.5,90.38a326.56,326.56,0,0,0-127.94-25.5ZM182.46,302.76c35.06-81.48,116-138.67,210.34-138.9s175.4,56.46,210.93,137.68l74.79-32.85C630.33,158.66,520.4,81.85,392.6,82.15S155.1,159.89,107.51,270.29ZM616.24,448.18C591.72,548.27,501.58,622.66,393.9,622.92s-198.19-73.7-223.18-173.68l-83.48.2C113.7,594.9,241.09,705,394.09,704.63S674,593.55,699.71,448ZM130.8,394a.83.83,0,0,1-1.65,0,.82.82,0,0,1,.82-.83h0M254.66,515.75c0-22.35,16.84-37.47,39.08-37.52,17.47,0,26.82,9.81,31.61,19.34l-16,7.63a17.37,17.37,0,0,0-15.55-10.49c-11.82,0-20.16,9.16-20.13,21s8.41,20.92,20.24,20.89A17.36,17.36,0,0,0,309.36,526l16.06,7.58c-4.64,9.34-14.06,19.45-31.53,19.49C271.67,553.15,254.71,538,254.66,515.75Zm78.85,35.93-.18-72.35,18.67-.05.13,56.09,29.07-.07,0,16.28Zm54.93-29.43-.1-43.06,19,0,.1,42.42c0,8.57,5.13,14.74,15.33,14.72,10,0,15.18-6.22,15.16-14.79l-.1-42.42,18.87-.05.1,43c0,18-10.88,30.73-34,30.78-23.33.06-34.31-12.72-34.36-30.51Zm81.44,29.1L469.71,479l41-.1c14.31,0,21.15,9.29,21.17,18.4s-5.5,15.09-12.33,16.62c7.71,1.18,13.8,8.54,13.82,17.69,0,10.52-7,19.65-21.21,19.69Zm43.06-50.73c0-3.48-2.62-6-6.41-5.95l-18.12,0,0,12,18.12,0C510.35,506.68,513,504.18,512.94,500.62ZM514.42,529c0-3.58-2.62-6.51-7.18-6.49l-18.76,0,0,13,18.76,0c4.45,0,7.16-2.64,7.15-6.55ZM261.51,447.48l-.07-31c66.78-48.54,79.25-59.21,79.21-74.49,0-10.64-10-16.18-21.33-16.15-17.12,0-30.08,6.55-41.16,17l-22.07-26.34c16.39-18.09,40.9-25.78,62.43-25.83,36.35-.08,62.55,20.22,62.63,51.21.05,23.61-16.8,43.79-55.16,70.73l56.48-.13.08,34.73Zm139.53-20,21.69-27.83c10.68,9.7,25.27,15,40.09,14.95,16.89,0,25.2-8.39,25.18-17.88,0-10.4-8.14-17.81-24.11-17.77-12.27,0-22,3.53-30.55,11.65l-27.56-6.66-.22-91.19,112.05-.27.09,34.73-72.22.17.07,29.86c7.38-7.2,19.41-12.32,33.07-12.35,26.16-.06,49.81,19.09,49.88,50.11.08,33.33-25.09,54.69-65.14,54.78C436.05,449.84,415.43,441.55,401,427.47ZM155.16,558.42l5-6.77-10.12-15.87-8.25,1.69-4.39-6.9,43.24-8.45,4.83,7.57-25.94,35.62Zm21.77-28.62-20.42,4.28,7.93,12.44Zm10.71,37.81c9-8.82,21.74-8.11,30.21.54a18.55,18.55,0,0,1,4.94,18.23l-6.54-2.2a12.19,12.19,0,0,0-3-11.56c-5.65-5.79-14.33-5.76-20.48.26s-6.37,14.68-.7,20.47a12.05,12.05,0,0,0,11.49,3.22l2.06,6.59c-5.71,1.19-12.31.6-18.12-5.34-8.47-8.65-8.88-21.39.13-30.21Zm56.94,74,9.73-15-17.91-11.6-9.73,15-6-3.92,22.3-34.42,6,3.91-9.12,14.1,17.91,11.61,9.13-14.11,6,3.91-22.29,34.43Zm31.93,16.26,16-37.76,6.62,2.8-16,37.76Zm33.14,12.48,9.9-39.81,27.27,6.8-1.54,6.15L325,638.4l-2.58,10.32,19.88,4.95-1.53,6.14-19.88-4.94-2.74,11,20.29,5-1.52,6.14Zm66.94,11.37-14.48-41.6,8.17.32,11.1,33.67,13.72-32.69,8.17.33-17.72,40.34Zm50.2-1.25-6.66-40.49,27.74-4.54,1,6.25L428.26,645,430,655.54l20.21-3.31,1,6.25L431,661.79,432.83,673l20.63-3.38,1,6.24Zm88.35-25-11.5-28.15-.18,32.9-2.82,1.16L477.49,637.9,489,666.09l-6.67,2.71-15.49-38,9.39-3.83,20.48,20.78.16-29.21,9.39-3.84,15.5,38Zm32.6-17.9-23.5-33.58,23-16.13,3.63,5.18-17.12,12,6.11,8.71L556.63,602l3.63,5.19-16.77,11.75,6.53,9.32,17.13-12,3.63,5.18Zm64.07-55.33-36-4.33,21.4,20-4.92,5.25-30-28,5-5.39,35.12,4.1-20.81-19.42,4.92-5.26,30,28Zm27.26-37.4L609.36,526.9,603,537.56l-5.43-3.27,16.53-27.45,5.43,3.27-6.41,10.64,29.72,17.89ZM126.17,416.42c-2.48-.15-5.1-.14-7.68-.49C104.73,414.09,94.74,403.31,93.4,389a33.13,33.13,0,0,1,5.77-22.76c1-1.37.74-2.29,0-3.6-3.82-6.46-7.21-13.12-8.62-20.62-1.1-5.85.54-10.56,5.23-14.33a40.28,40.28,0,0,1,17.59-7.79c12.33-2.52,24.47-2,36.17,2.88a42,42,0,0,1,8.59,5.2c4.61,3.38,5.92,8.14,5,13.67-1.3,7.61-4.66,14.38-8.58,20.89a3.31,3.31,0,0,0,.17,4.22c9.25,13.54,6.79,32.8-5.47,43.4-4.46,3.86-9.91,5.21-15.58,5.84-2.44.25-4.89.26-7.46.39Zm.24-64.43c5.14,1.12,10.22,2.08,15.22,3.38,1.46.37,2.36.12,2.92-1.05,1.58-3.32,3.15-6.65,4.51-10.07,1.16-2.91,0-5.29-2.4-7a17.25,17.25,0,0,0-3.49-2c-8-3.23-16.37-3.42-24.8-2.17-4.23.62-8.24,1.73-11.66,4.41-1.65,1.29-3.22,3-2.49,5.14a124.47,124.47,0,0,0,5.1,12c.25.53,1.7.87,2.48.7,4.81-1,9.6-2.11,14.61-3.26Zm535.84,63.15c-2.48-.15-5.1-.15-7.68-.49-13.77-1.85-23.75-12.62-25.09-26.9A33.14,33.14,0,0,1,635.25,365c1-1.36.75-2.29,0-3.6-3.82-6.46-7.21-13.11-8.62-20.61-1.1-5.85.54-10.57,5.23-14.33a40.22,40.22,0,0,1,17.59-7.79c12.33-2.53,24.47-2,36.17,2.87a42.48,42.48,0,0,1,8.59,5.2c4.61,3.39,5.92,8.15,5,13.67-1.3,7.61-4.66,14.38-8.58,20.89a3.32,3.32,0,0,0,.17,4.23c9.25,13.53,6.79,32.8-5.47,43.39-4.47,3.86-9.91,5.22-15.59,5.84-2.43.25-4.88.26-7.45.39Zm.24-64.44c5.14,1.12,10.21,2.09,15.23,3.38,1.45.37,2.36.12,2.91-1,1.58-3.32,3.15-6.66,4.51-10.08,1.16-2.9,0-5.28-2.4-7a17.25,17.25,0,0,0-3.49-2c-8-3.23-16.37-3.41-24.8-2.17-4.23.62-8.24,1.73-11.66,4.41-1.65,1.29-3.22,3-2.49,5.14a122.36,122.36,0,0,0,5.1,12c.25.53,1.7.87,2.48.7,4.81-.95,9.58-2.11,14.61-3.25ZM182.2,258.06l-30.44-21.64,14.82-20.86,4.7,3.34-11,15.52,7.9,5.61,10.8-15.2,4.7,3.34-10.8,15.2,8.44,6,11-15.51L197,237.2Zm25.23-32.93L180.78,199l4.58-4.68,22.54,22.13,11.54-11.75,4.11,4Zm28-26.31-23.21-29.26,5.13-4.07,23.21,29.26Zm26.73-19-16.23-27.1-9.71,5.82-3-4.95,25-15,3,4.94-9.7,5.82,16.23,27.09Zm28.58-15.48-13.63-34.77,23.83-9.34,2.1,5.37-17.73,7,3.54,9,17.36-6.81,2.11,5.37-17.37,6.81,3.78,9.64,17.73-6.94,2.11,5.37Zm71.51-19.72-3.47-31.4-11.25,1.25-.63-5.73,29-3.22.63,5.74-11.24,1.24,3.48,31.4Zm53.69-1-7.46-14.41-6.48-.38-.82,13.92-6.54-.38,2.19-37.29,16.38,1c7.38.43,11.91,5.52,11.5,12.4-.39,6.65-5,10-9.47,10.44l8.25,15.18ZM418,118c.21-3.58-2.33-6.08-6-6.3l-8.95-.52-.69,11.85,8.94.52C414.94,123.81,417.76,121.62,418,118Zm46,34.53L463,145l-16.65-4.07L442,147.19l-7.23-1.77,23.12-32.8,7.95,1.95,5.37,39.76ZM460.27,120l-10.76,15.7,13.05,3.2Zm27.44,20.54c4.68-10.47,15.71-14.13,25.78-9.63a16.91,16.91,0,0,1,10.27,13.8l-6.28.32a11.11,11.11,0,0,0-6.37-8.8c-6.75-3-14.07-.1-17.27,7.06s-.5,14.56,6.24,17.58a11,11,0,0,0,10.81-1.12l4,4.9c-4.44,2.92-10.23,4.62-17.14,1.53C487.64,161.69,483,151,487.71,140.55Zm54.61,51.16-1.41-20.07-4.84,1.29-6.76,9.83-5.4-3.71,21.17-30.78,5.4,3.71-10.09,14.68,22.13-6.39,6.69,4.6-22.5,5.93L549,196.28Zm16.79,13.43,26.06-26.77,18.34,17.85-4,4.14-13.64-13.28L579.08,194l13.36,13-4,4.13-13.36-13-7.23,7.43,13.64,13.28-4,4.13Zm41.26,47.06,6.4-14.9L603,232l-11.27,8.2-3.86-5.3L618,213l9.65,13.27c4.35,6,3.28,12.7-2.29,16.76-5.39,3.91-10.86,2.49-14.08-.71l-6.5,16Zm21.07-14.63c2.9-2.11,3.22-5.66,1-8.65l-5.27-7.25-9.6,7,5.27,7.25C615.06,238.89,618.54,239.68,621.44,237.57ZM362.23,252.29c1.32.73,2.69,1.41,4.08,2.05l-2.58,9.73L397,264c19.92-.05,29.16-8.52,29.13-19.62,0-6.61-4.07-10.82-9.76-12.82,9-2.23,14.38-8.3,14.36-16.47a16.83,16.83,0,0,0-.11-1.89c-2.08,0-4.11,0-6.05.12-4.23.16-8.64.3-13,.74q-1.42.14-2.82.3c3,.63,4.33,2.22,4.34,4.45,0,4-3.39,6.52-9.72,6.54l-12,0,2.22-8.63a95.39,95.39,0,0,0-17,5.26c-.67.28-1.32.57-2,.87l-7.18,27h0l-.32,1.2q-1.14-1-2.22-2a26,26,0,0,1-6.25-8.47,10.77,10.77,0,0,1-1.1-5.94c.35-4.07,3.17-7,5.88-9.2a37.61,37.61,0,0,1,9.45-5.45c10.9-4.57,22-6.64,35-8,4.31-.44,8.72-.57,13-.73a151.74,151.74,0,0,1,25.5,1.07c.5.07,1.63.29,1.57,0,.12-.42-.79-.6-1.16-.69a137.53,137.53,0,0,0-17.49-3.08c-2.63-5.2-9.13-9-21.82-8.94l-26.7.07-3,11.39c-8,1.89-15.08,4.5-20.54,7.79a31.18,31.18,0,0,0-6.63,5,14,14,0,0,0-4,7.79,13.6,13.6,0,0,0,1.77,8.48,20.38,20.38,0,0,0,2.75,3.76A42.47,42.47,0,0,0,362.23,252.29Zm25.84-14.44,12.29,0c5.24,0,7.9,1.72,7.91,5,0,4-3.74,6.8-9.89,6.81l-13.49,0Z"/></g></g></svg>