<?xml version="1.0" encoding="utf-8"?>
<!-- Generator: Adobe Illustrator 25.2.0, SVG Export Plug-In . SVG Version: 6.00 Build 0)  -->
<svg version="1.1" id="Layer_1" xmlns="http://www.w3.org/2000/svg" xmlns:xlink="http://www.w3.org/1999/xlink" x="0px" y="0px"
	 viewBox="0 0 785.8 785.8" style="enable-background:new 0 0 785.8 785.8;" xml:space="preserve">
<style type="text/css">
	.st0{fill:#D3D3D3;}
</style>
<path class="st0" d="M392.5,37.8c196.4-0.5,356,158.3,356.5,354.7c0.2,94.3-37,184.9-103.6,251.7C506.9,783.5,281.7,784,142.5,645.5
	S2.7,281.8,141.3,142.6C207.7,75.5,298.1,37.8,392.5,37.8 M392.4,16.7C184.4,17.1,16.1,186.2,16.6,394.3s169.6,376.3,377.7,375.8
	s376.3-169.6,375.8-377.7S600.5,16.1,392.4,16.7L392.4,16.7z M394.2,734C206,734.4,53.2,582.2,52.8,394
	C52.5,257.2,134.1,133.5,260,79.9c173.5-72.9,373.2,8.6,446.1,182c72.5,172.4-7.6,371.1-179.4,445C484.8,724.8,439.7,734,394.2,734z
	 M392.6,64.9C211.1,65.4,64.4,213,65,394.5c0.4,131.9,79.6,250.8,201.2,301.9c167.4,70.2,359.9-8.5,430.2-175.9
	s-8.5-359.9-175.9-430.2C480,73.4,436.5,64.7,392.6,64.9L392.6,64.9z M182.5,302.8c35.1-81.5,116-138.7,210.3-138.9
	s175.4,56.5,210.9,137.7l74.8-32.9c-48.2-110-158.1-186.8-285.9-186.5s-237.5,77.7-285.1,188.1L182.5,302.8z M616.2,448.2
	c-24.5,100.1-114.7,174.5-222.3,174.7s-198.2-73.7-223.2-173.7l-83.5,0.2C113.7,594.9,241.1,705,394.1,704.6S674,593.5,699.7,448
	L616.2,448.2z M130.8,394c-0.1,0.5-0.5,0.8-0.9,0.7c-0.4,0-0.7-0.3-0.7-0.7c0-0.5,0.4-0.8,0.8-0.8c0,0,0,0,0,0l0,0 M254.7,515.8
	c0-22.4,16.8-37.5,39.1-37.5c17.5,0,26.8,9.8,31.6,19.3l-16,7.6c-2.7-6.2-8.8-10.3-15.5-10.5c-11.8,0-20.2,9.2-20.1,21
	c0,11.8,8.4,20.9,20.2,20.9c6.8-0.2,12.8-4.4,15.5-10.6l16.1,7.6c-4.6,9.3-14.1,19.5-31.5,19.5C271.7,553.2,254.7,538,254.7,515.8z
	 M333.5,551.7l-0.2-72.4l18.7,0l0.1,56.1l29.1-0.1v16.3L333.5,551.7z M388.4,522.2l-0.1-43.1h19l0.1,42.4c0,8.6,5.1,14.7,15.3,14.7
	c10,0,15.2-6.2,15.2-14.8l-0.1-42.4l18.9,0l0.1,43c0,18-10.9,30.7-34,30.8C399.5,552.9,388.5,540.1,388.4,522.2L388.4,522.2z
	 M469.9,551.3l-0.2-72.3l41-0.1c14.3,0,21.1,9.3,21.2,18.4s-5.5,15.1-12.3,16.6c7.7,1.2,13.8,8.5,13.8,17.7c0,10.5-7,19.7-21.2,19.7
	L469.9,551.3z M512.9,500.6c0-3.5-2.6-6-6.4-6h-18.1v12h18.1C510.4,506.7,513,504.2,512.9,500.6L512.9,500.6z M514.4,529
	c0-3.6-2.6-6.5-7.2-6.5h-18.8v13h18.8C511.7,535.5,514.4,532.9,514.4,529L514.4,529z M261.5,447.5l-0.1-31
	c66.8-48.5,79.2-59.2,79.2-74.5c0-10.6-10-16.2-21.3-16.1c-17.1,0-30.1,6.5-41.2,17l-22.1-26.3c16.4-18.1,40.9-25.8,62.4-25.8
	c36.4-0.1,62.5,20.2,62.6,51.2c0,23.6-16.8,43.8-55.2,70.7l56.5-0.1l0.1,34.7L261.5,447.5z M401,427.5l21.7-27.8
	c10.7,9.7,25.3,15,40.1,15c16.9,0,25.2-8.4,25.2-17.9c0-10.4-8.1-17.8-24.1-17.8c-12.3,0-22,3.5-30.5,11.6l-27.6-6.7l-0.2-91.2
	l112.1-0.3l0.1,34.7l-72.2,0.2l0.1,29.9c7.4-7.2,19.4-12.3,33.1-12.4c26.2-0.1,49.8,19.1,49.9,50.1c0.1,33.3-25.1,54.7-65.1,54.8
	C436,449.8,415.4,441.5,401,427.5L401,427.5z M155.2,558.4l5-6.8L150,535.8l-8.2,1.7l-4.4-6.9l43.2-8.5l4.8,7.6l-25.9,35.6
	L155.2,558.4z M176.9,529.8l-20.4,4.3l7.9,12.4L176.9,529.8z M187.6,567.6c9-8.8,21.7-8.1,30.2,0.5c4.8,4.7,6.7,11.7,4.9,18.2
	l-6.5-2.2c1.1-4.1-0.1-8.5-3-11.6c-5.6-5.8-14.3-5.8-20.5,0.3s-6.4,14.7-0.7,20.5c3,3,7.4,4.3,11.5,3.2l2.1,6.6
	c-5.7,1.2-12.3,0.6-18.1-5.3C179,589.2,178.6,576.4,187.6,567.6L187.6,567.6z M244.6,641.6l9.7-15L236.4,615l-9.7,15l-6-3.9
	l22.3-34.4l6,3.9l-9.1,14.1l17.9,11.6l9.1-14.1l6,3.9l-22.3,34.4L244.6,641.6z M276.5,657.9l16-37.8l6.6,2.8l-16,37.8L276.5,657.9z
	 M309.7,670.3l9.9-39.8l27.3,6.8l-1.5,6.2l-20.3-5.1l-2.6,10.3l19.9,5l-1.5,6.1l-19.9-4.9l-2.7,11l20.3,5l-1.5,6.1L309.7,670.3z
	 M376.6,681.7l-14.5-41.6l8.2,0.3l11.1,33.7l13.7-32.7l8.2,0.3l-17.7,40.3L376.6,681.7z M426.8,680.5l-6.7-40.5l27.7-4.5l1,6.2
	l-20.6,3.3l1.7,10.5l20.2-3.3l1,6.2l-20.2,3.3l1.8,11.2l20.6-3.4l1,6.2L426.8,680.5z M515.1,655.5l-11.5-28.2l-0.2,32.9l-2.8,1.2
	l-23.2-23.5l11.5,28.2l-6.7,2.7l-15.5-38l9.4-3.8l20.5,20.8l0.2-29.2l9.4-3.8l15.5,38L515.1,655.5z M547.7,637.6L524.2,604l23-16.1
	l3.6,5.2l-17.1,12l6.1,8.7l16.8-11.7l3.6,5.2l-16.8,11.8l6.5,9.3l17.1-12l3.6,5.2L547.7,637.6z M611.8,582.2l-36-4.3l21.4,20
	l-4.9,5.2l-30-28l5-5.4l35.1,4.1l-20.8-19.4l4.9-5.3l30,28L611.8,582.2z M639.1,544.8l-29.7-17.9l-6.4,10.7l-5.4-3.3l16.5-27.5
	l5.4,3.3l-6.4,10.6l29.7,17.9L639.1,544.8z M126.2,416.4c-2.5-0.1-5.1-0.1-7.7-0.5c-13.8-1.8-23.8-12.6-25.1-26.9
	c-0.9-8,1.1-16.1,5.8-22.8c1-1.4,0.7-2.3,0-3.6c-3.8-6.5-7.2-13.1-8.6-20.6c-1.1-5.9,0.5-10.6,5.2-14.3c5.1-4,11.2-6.7,17.6-7.8
	c12.3-2.5,24.5-2,36.2,2.9c3.1,1.4,5.9,3.1,8.6,5.2c4.6,3.4,5.9,8.1,5,13.7c-1.3,7.6-4.7,14.4-8.6,20.9c-1,1.3-0.9,3,0.2,4.2
	c9.2,13.5,6.8,32.8-5.5,43.4c-4.5,3.9-9.9,5.2-15.6,5.8C131.2,416.3,128.8,416.3,126.2,416.4L126.2,416.4z M126.4,352
	c5.1,1.1,10.2,2.1,15.2,3.4c1.5,0.4,2.4,0.1,2.9-1c1.6-3.3,3.1-6.6,4.5-10.1c1.2-2.9,0-5.3-2.4-7c-1.1-0.8-2.3-1.5-3.5-2
	c-8-3.2-16.4-3.4-24.8-2.2c-4.2,0.6-8.2,1.7-11.7,4.4c-1.7,1.3-3.2,3-2.5,5.1c1.5,4.1,3.2,8.1,5.1,12c0.2,0.5,1.7,0.9,2.5,0.7
	C116.6,354.3,121.4,353.2,126.4,352L126.4,352z M662.2,415.1c-2.5-0.1-5.1-0.1-7.7-0.5c-13.8-1.9-23.8-12.6-25.1-26.9
	c-0.9-8,1.1-16.1,5.8-22.8c1-1.4,0.8-2.3,0-3.6c-3.8-6.5-7.2-13.1-8.6-20.6c-1.1-5.9,0.5-10.6,5.2-14.3c5.1-4,11.2-6.7,17.6-7.8
	c12.3-2.5,24.5-2,36.2,2.9c3.1,1.4,5.9,3.1,8.6,5.2c4.6,3.4,5.9,8.1,5,13.7c-1.3,7.6-4.7,14.4-8.6,20.9c-1,1.3-0.9,3,0.2,4.2
	c9.2,13.5,6.8,32.8-5.5,43.4c-4.5,3.9-9.9,5.2-15.6,5.8C667.3,415,664.9,415,662.2,415.1L662.2,415.1z M662.5,350.7
	c5.1,1.1,10.2,2.1,15.2,3.4c1.5,0.4,2.4,0.1,2.9-1c1.6-3.3,3.2-6.7,4.5-10.1c1.2-2.9,0-5.3-2.4-7c-1.1-0.8-2.3-1.5-3.5-2
	c-8-3.2-16.4-3.4-24.8-2.2c-4.2,0.6-8.2,1.7-11.7,4.4c-1.7,1.3-3.2,3-2.5,5.1c1.5,4.1,3.2,8.1,5.1,12c0.2,0.5,1.7,0.9,2.5,0.7
	c4.8-1,9.6-2.1,14.6-3.2L662.5,350.7z M182.2,258.1l-30.4-21.6l14.8-20.9l4.7,3.3l-11,15.5l7.9,5.6l10.8-15.2l4.7,3.3l-10.8,15.2
	l8.4,6l11-15.5l4.7,3.3L182.2,258.1z M207.4,225.1L180.8,199l4.6-4.7l22.5,22.1l11.5-11.8l4.1,4L207.4,225.1z M235.4,198.8
	l-23.2-29.3l5.1-4.1l23.2,29.3L235.4,198.8z M262.2,179.8l-16.2-27.1l-9.7,5.8l-3-4.9l25-15l3,4.9l-9.7,5.8l16.2,27.1L262.2,179.8z
	 M290.7,164.3l-13.6-34.8l23.8-9.3l2.1,5.4l-17.7,7l3.5,9l17.4-6.8l2.1,5.4l-17.4,6.8l3.8,9.6l17.7-6.9l2.1,5.4L290.7,164.3z
	 M362.2,144.6l-3.5-31.4l-11.2,1.2l-0.6-5.7l29-3.2l0.6,5.7l-11.2,1.2l3.5,31.4L362.2,144.6z M415.9,143.6l-7.5-14.4l-6.5-0.4
	l-0.8,13.9l-6.5-0.4l2.2-37.3l16.4,1c7.4,0.4,11.9,5.5,11.5,12.4c-0.4,6.7-5,10-9.5,10.4l8.2,15.2L415.9,143.6z M418,118
	c0.2-3.6-2.3-6.1-6-6.3l-9-0.5l-0.7,11.8l8.9,0.5C414.9,123.8,417.8,121.6,418,118z M464,152.5l-1-7.5l-16.6-4.1l-4.4,6.3l-7.2-1.8
	l23.1-32.8l8,1.9l5.4,39.8L464,152.5z M460.3,120l-10.8,15.7l13,3.2L460.3,120z M487.7,140.5c4.7-10.5,15.7-14.1,25.8-9.6
	c5.7,2.4,9.6,7.7,10.3,13.8l-6.3,0.3c-0.4-3.8-2.9-7.2-6.4-8.8c-6.8-3-14.1-0.1-17.3,7.1s-0.5,14.6,6.2,17.6
	c3.5,1.6,7.7,1.1,10.8-1.1l4,4.9c-4.4,2.9-10.2,4.6-17.1,1.5C487.6,161.7,483,151,487.7,140.5L487.7,140.5z M542.3,191.7l-1.4-20.1
	l-4.8,1.3l-6.8,9.8l-5.4-3.7l21.2-30.8l5.4,3.7l-10.1,14.7l22.1-6.4l6.7,4.6l-22.5,5.9l2.3,25.5L542.3,191.7z M559.1,205.1
	l26.1-26.8l18.3,17.9l-4,4.1l-13.6-13.3l-6.8,6.9l13.4,13l-4,4.1l-13.4-13l-7.2,7.4l13.6,13.3l-4,4.1L559.1,205.1z M600.4,252.2
	l6.4-14.9L603,232l-11.3,8.2l-3.9-5.3L618,213l9.7,13.3c4.3,6,3.3,12.7-2.3,16.8c-5.4,3.9-10.9,2.5-14.1-0.7l-6.5,16L600.4,252.2z
	 M621.4,237.6c2.9-2.1,3.2-5.7,1-8.6l-5.3-7.2l-9.6,7l5.3,7.2C615.1,238.9,618.5,239.7,621.4,237.6L621.4,237.6z M362.2,252.3
	c1.3,0.7,2.7,1.4,4.1,2.1l-2.6,9.7L397,264c19.9,0,29.2-8.5,29.1-19.6c0-6.6-4.1-10.8-9.8-12.8c9-2.2,14.4-8.3,14.4-16.5
	c0-0.6,0-1.3-0.1-1.9c-2.1,0-4.1,0-6,0.1c-4.2,0.2-8.6,0.3-13,0.7c-0.9,0.1-1.9,0.2-2.8,0.3c3,0.6,4.3,2.2,4.3,4.4
	c0,4-3.4,6.5-9.7,6.5h-12l2.2-8.6c-5.8,1.2-11.5,3-17,5.3c-0.7,0.3-1.3,0.6-2,0.9l-7.2,27l0,0l-0.3,1.2c-0.8-0.7-1.5-1.3-2.2-2
	c-2.6-2.4-4.8-5.3-6.2-8.5c-0.9-1.8-1.3-3.9-1.1-5.9c0.4-4.1,3.2-7,5.9-9.2c2.9-2.3,6.1-4.1,9.5-5.4c10.9-4.6,22-6.6,35-8
	c4.3-0.4,8.7-0.6,13-0.7c8.5-0.4,17,0,25.5,1.1c0.5,0.1,1.6,0.3,1.6,0c0.1-0.4-0.8-0.6-1.2-0.7c-5.8-1.4-11.6-2.4-17.5-3.1
	c-2.6-5.2-9.1-9-21.8-8.9l-26.7,0.1l-3,11.4c-8,1.9-15.1,4.5-20.5,7.8c-2.4,1.4-4.7,3-6.6,5c-2.1,2.1-3.5,4.8-4,7.8
	c-0.4,2.9,0.3,5.9,1.8,8.5c0.8,1.4,1.7,2.6,2.8,3.8C354.3,247.3,358.1,250.1,362.2,252.3z M388.1,237.8h12.3c5.2,0,7.9,1.7,7.9,5
	c0,4-3.7,6.8-9.9,6.8h-13.5L388.1,237.8z"/>
</svg>
