<?xml version="1.0" encoding="utf-8"?>
<!-- Generator: Adobe Illustrator 25.2.0, SVG Export Plug-In . SVG Version: 6.00 Build 0)  -->
<svg version="1.1" id="Layer_1" xmlns="http://www.w3.org/2000/svg" xmlns:xlink="http://www.w3.org/1999/xlink" x="0px" y="0px"
	 viewBox="0 0 1043.7 1131.9" style="enable-background:new 0 0 1043.7 1131.9;" xml:space="preserve">
<style type="text/css">
	.st0{fill:#231F20;}
	.st1{fill:#FFFFFF;}
	.st2{fill-rule:evenodd;clip-rule:evenodd;fill:url(#SVGID_1_);}
	.st3{opacity:0.3;fill:url(#SVGID_2_);enable-background:new    ;}
</style>
<path class="st0" d="M-61.6,832.8c-0.6,0.3,0,0.4,0,0.4S-61,833.1-61.6,832.8"/>
<path class="st0" d="M-61.6,832.8c0.6,0.3,0,0.4,0,0.4V832.8z"/>
<path class="st0" d="M-61.6,832.8v0.4C-61.6,833.2-62.2,833.1-61.6,832.8"/>
<path class="st1" d="M380.7,821.1l16.8-34.7l10.5,5.1c1.5,0.7,2.7,1.6,3.8,2.9c0.9,1.1,1.6,2.3,1.9,3.7s0.4,2.8,0.2,4.2
	c-0.2,1.5-0.7,2.9-1.3,4.3c-0.6,1.4-1.5,2.6-2.5,3.7c-1,1-2.1,1.8-3.4,2.4c-1.3,0.6-2.7,0.8-4.1,0.8c-1.6-0.1-3.1-0.5-4.5-1.2
	l-6.4-3.1l-6.7,13.9L380.7,821.1z M399.4,808.4c1.6,0.9,3.5,0.9,5.1,0.2c3.4-1.9,5.3-5.8,4.7-9.6c-0.4-1.8-1.6-3.2-3.3-3.9l-6-2.9
	l-6.5,13.4L399.4,808.4z"/>
<path class="st1" d="M428.1,840.9l5.9-16.8l-15-5.2l-5.9,16.8l-4.4-1.5l12.6-36.4l4.4,1.5l-5.5,15.7l15,5.2l5.5-15.7l4.4,1.5
	l-12.6,36.4L428.1,840.9z"/>
<path class="st1" d="M456.1,848.9c-2.1-0.4-4.1-1.4-5.8-2.8c-1.6-1.4-2.8-3.1-3.6-5.1c-0.9-2.2-1.4-4.4-1.5-6.8
	c-0.1-2.6,0.1-5.3,0.7-7.8c0.5-2.6,1.4-5.1,2.5-7.4c1-2.1,2.4-4,4-5.6c1.5-1.5,3.3-2.6,5.3-3.2c4.2-1.2,8.8-0.3,12.2,2.5
	c1.6,1.4,2.8,3.1,3.6,5.1c0.9,2.2,1.4,4.4,1.5,6.8c0.1,2.6-0.1,5.3-0.6,7.8c-0.5,2.6-1.4,5.1-2.5,7.4c-1,2.1-2.4,4-4.1,5.6
	c-1.5,1.5-3.3,2.6-5.3,3.2C460.5,849.3,458.3,849.3,456.1,848.9z M457,844.9c1.5,0.3,3,0.2,4.4-0.3c1.4-0.6,2.7-1.5,3.7-2.7
	c1.2-1.3,2.2-2.9,2.9-4.5c1.7-3.8,2.5-8,2.5-12.2c0-1.8-0.3-3.6-0.8-5.3c-0.5-1.5-1.3-2.8-2.3-3.9c-1.1-1.1-2.4-1.8-3.9-2
	c-1.5-0.3-3-0.2-4.4,0.3c-1.4,0.6-2.7,1.5-3.7,2.7c-1.2,1.4-2.1,2.9-2.9,4.5c-0.8,1.9-1.5,3.9-1.9,6c-0.4,2-0.6,4.1-0.6,6.2
	c0,1.8,0.3,3.6,0.8,5.3c0.5,1.5,1.3,2.8,2.3,3.9C454.2,843.9,455.5,844.6,457,844.9L457,844.9z"/>
<path class="st1" d="M485.4,852.7l3.3-34.3l-9.1-0.9l0.4-4.1l22.8,2.2l-0.4,4.1l-9.1-0.9l-3.3,34.3L485.4,852.7z"/>
<path class="st1" d="M519.3,854.9c-2.2,0.1-4.3-0.4-6.3-1.5c-1.8-1-3.4-2.4-4.6-4.2c-1.3-1.9-2.3-4-2.9-6.3c-0.7-2.5-1-5.2-1.1-7.8
	s0.2-5.3,0.8-7.8c0.5-2.3,1.4-4.4,2.7-6.4c1.2-1.8,2.7-3.2,4.5-4.3c3.9-2.1,8.5-2.2,12.5-0.2c1.8,1,3.4,2.4,4.6,4.2
	c1.3,1.9,2.3,4,2.9,6.3c0.7,2.5,1.1,5.1,1.1,7.8c0.1,2.6-0.2,5.3-0.9,7.8c-0.5,2.3-1.5,4.4-2.7,6.4c-1.2,1.8-2.7,3.2-4.5,4.3
	S521.5,854.9,519.3,854.9z M519.2,850.8c1.5,0,3-0.5,4.2-1.3c1.2-0.9,2.3-2.1,3-3.4c0.9-1.6,1.5-3.3,1.8-5.1c0.4-2,0.6-4.1,0.5-6.2
	c0-2.1-0.3-4.2-0.7-6.2c-0.4-1.8-1.1-3.5-2-5c-0.8-1.3-1.9-2.5-3.2-3.3c-2.6-1.6-5.9-1.5-8.5,0.1c-1.3,0.9-2.3,2-3,3.4
	c-0.9,1.6-1.5,3.3-1.8,5c-0.4,2.1-0.6,4.2-0.5,6.2c0,2.1,0.3,4.1,0.7,6.2c0.4,1.8,1.1,3.4,2,5c0.8,1.3,1.9,2.5,3.2,3.3
	C516.3,850.4,517.7,850.9,519.2,850.8z"/>
<path class="st1" d="M556.2,851.4l-5.7-38.1l4.6-0.7l5.7,38.1L556.2,851.4z"/>
<path class="st1" d="M590.8,844.4l-22.2-24.2l6.7,27.9l-4.5,1.1l-9-37.5l4.5-1.1l21.8,23.6l-6.6-27.3l4.5-1.1l9,37.5L590.8,844.4z"
	/>
<path class="st1" d="M614.3,837.6c-2.1,0.8-4.4,1.2-6.7,1c-2-0.2-4-0.7-5.7-1.7l1.2-4.2c1.4,0.8,3,1.3,4.6,1.5
	c1.8,0.2,3.6,0,5.3-0.6c1-0.3,1.9-0.9,2.8-1.6c0.7-0.6,1.2-1.3,1.6-2c0.3-0.7,0.5-1.5,0.5-2.3s-0.1-1.6-0.4-2.4
	c-0.4-1.3-1.3-2.4-2.5-3.1c-1.2-0.7-2.5-1.1-3.9-1.3c-1.5-0.3-3.1-0.4-4.7-0.5c-1.6-0.1-3.2-0.4-4.8-0.8c-1.5-0.4-2.9-1.1-4.2-2
	c-1.4-1.1-2.4-2.6-3-4.4c-0.5-1.3-0.7-2.7-0.6-4.1c0.1-1.3,0.5-2.6,1.1-3.8s1.5-2.3,2.6-3.2c1.2-1,2.5-1.7,3.9-2.2
	c1.9-0.7,3.8-1,5.8-1c1.8,0.1,3.6,0.5,5.2,1.3l-1.1,4.1c-1.3-0.7-2.8-1.1-4.3-1.2c-1.5-0.1-3,0.2-4.4,0.7c-1.5,0.5-2.8,1.6-3.6,3
	s-0.9,3.1-0.2,4.5c0.4,1.2,1.3,2.2,2.4,2.7c1.2,0.6,2.5,0.9,3.8,1.2c1.4,0.2,3,0.4,4.7,0.5c1.6,0.1,3.2,0.4,4.8,0.9
	c1.5,0.5,3,1.3,4.2,2.3c1.4,1.2,2.5,2.8,3.1,4.6c0.5,1.3,0.7,2.7,0.7,4.1c0,1.4-0.3,2.7-0.9,4c-0.6,1.3-1.5,2.5-2.6,3.5
	C617.5,836.1,616,837,614.3,837.6z"/>
<path class="st1" d="M633.2,829.3l-17-34.6l10.5-5.2c1.4-0.7,3-1.2,4.6-1.2c1.4,0,2.8,0.2,4.1,0.8s2.5,1.4,3.4,2.4
	c1,1.1,1.9,2.3,2.5,3.7c0.7,1.4,1.1,2.8,1.4,4.3c0.2,1.4,0.1,2.8-0.2,4.2c-0.4,1.4-1,2.6-1.9,3.7c-1,1.2-2.3,2.2-3.7,2.8l-6.3,3.1
	l6.8,13.8L633.2,829.3z M634.7,806.8c1.7-0.7,2.9-2.2,3.3-3.9c0.6-3.9-1.3-7.7-4.7-9.6c-1.6-0.8-3.6-0.7-5.1,0.2l-6,2.9l6.6,13.4
	L634.7,806.8z"/>
<path class="st1" d="M659.8,815.5l-19.6-33.2l4-2.3l19.6,33.2L659.8,815.5z"/>
<path class="st1" d="M686.8,797.9l-14.9-8.3l-4.5,3.2l8.9,12.6l-3.8,2.7l-22.2-31.5l9.6-6.8c1.2-0.9,2.5-1.5,3.9-1.8
	c1.3-0.3,2.7-0.3,4.1,0c1.4,0.3,2.7,0.9,3.9,1.7c1.3,0.9,2.5,2.1,3.4,3.5c0.9,1.2,1.6,2.6,2,4.1c0.4,1.2,0.5,2.4,0.4,3.7
	c-0.1,1.1-0.3,2.2-0.8,3.2c-0.4,0.9-1,1.7-1.7,2.4l15.9,8.5L686.8,797.9z M670.4,785.5c1.5-1,2.5-2.6,2.6-4.4c0-3.9-2.5-7.4-6.2-8.8
	c-1.7-0.5-3.6-0.1-5,1l-5.4,3.8l8.6,12.2L670.4,785.5z"/>
<path class="st1" d="M713.3,775.7l-7.6-4.9l-10.2,9.1l3.9,8.2l-3.7,3.4L678.8,755l4.1-3.6l34.2,21.2L713.3,775.7z M684.1,756.8
	l9.3,19.3l8.8-7.8L684.1,756.8z"/>
<path class="st1" d="M724.3,764.6l-25.1-23.5l-6.2,6.7l-3-2.8l15.6-16.7l3,2.8l-6.3,6.7l25.1,23.5L724.3,764.6z"/>
<path class="st1" d="M738.2,748.9l-30-24.2l2.9-3.6l30,24.2L738.2,748.9z"/>
<path class="st1" d="M755.6,726.7c-1.2,1.8-2.8,3.3-4.8,4.3c-1.9,0.9-4,1.4-6.1,1.4c-2.3,0-4.6-0.4-6.8-1.2c-5-1.8-9.4-4.8-13-8.7
	c-1.6-1.7-2.8-3.7-3.7-5.8c-0.8-1.9-1.1-4.1-1-6.2c0.5-4.4,3.1-8.3,7-10.4c1.9-0.9,4-1.4,6.1-1.4c2.3,0,4.6,0.4,6.8,1.2
	c2.5,0.9,4.8,2,7,3.5s4.2,3.2,5.9,5.2c1.6,1.7,2.8,3.7,3.7,5.9c0.8,2,1.1,4.1,1,6.2C757.6,722.8,756.8,724.9,755.6,726.7z
	 M752.1,724.4c0.9-1.2,1.3-2.7,1.3-4.2s-0.4-3.1-1.1-4.5c-0.8-1.6-1.9-3.1-3.1-4.4c-1.4-1.5-3-2.8-4.8-4c-1.7-1.2-3.6-2.2-5.5-3
	c-1.7-0.7-3.4-1.1-5.2-1.2c-1.5-0.1-3.1,0.1-4.5,0.7c-2.8,1.2-4.6,4-4.7,7c0,1.5,0.4,3.1,1.1,4.4c0.8,1.6,1.9,3.1,3.1,4.4
	c1.5,1.5,3.1,2.8,4.8,4s3.6,2.1,5.5,2.9c1.7,0.7,3.4,1.1,5.2,1.2c1.5,0.1,3.1-0.1,4.5-0.7C750.1,726.6,751.3,725.7,752.1,724.4z"/>
<path class="st1" d="M777.1,687.2l-32.8,1.4l25.7,12.9l-2.1,4.1l-34.5-17.2l2.1-4.1l32.2-1.5l-25.2-12.5l2.1-4.1l34.5,17.1
	L777.1,687.2z"/>
<path class="st0" d="M-61.6,832.8c-0.6,0.3,0,0.4,0,0.4S-61,833.1-61.6,832.8"/>
<path class="st0" d="M-61.6,832.8c0.6,0.3,0,0.4,0,0.4V832.8z"/>
<path class="st0" d="M-61.6,832.8v0.4C-61.6,833.2-62.2,833.1-61.6,832.8"/>
<linearGradient id="SVGID_1_" gradientUnits="userSpaceOnUse" x1="98.8791" y1="137.1751" x2="836.4391" y2="935.325" gradientTransform="matrix(1 0 0 1 0 -2.02)">
	<stop  offset="6.000000e-02" style="stop-color:#971A29"/>
	<stop  offset="0.37" style="stop-color:#D11F43"/>
	<stop  offset="0.67" style="stop-color:#D11F43"/>
	<stop  offset="1" style="stop-color:#971A29"/>
</linearGradient>
<path class="st2" d="M981.2,536.7l-4.5-117.1c-2.9-11.5-14.6-18.5-26.1-15.6l0,0l-59.2,14.5l-2.9-2.2c-3.9-3-9.8-7.5-10.8-9.5
	c-0.9-2.1,0-9.4,0.5-14.2c1.4-12.2,3.2-29-5.1-45.6c-9.2-18.4-27-25.2-40-30.1c-4.6-1.8-11.5-4.4-13.1-6.1
	c-1.4-1.8-2.7-8.7-3.5-13.8c-2.1-12.1-5-28.7-17.8-42.3c-14-15-33-16.5-46.9-17.7c-4.9-0.4-12.2-1-14.3-2.2c-1.9-1.4-5-7.6-7.2-12.2
	c-5.5-11-12.9-26.1-29-35.6c-8-4.6-17.2-7-26.4-6.9c-8.5,0-16.5,1.7-23.5,3.1c-5,1-9.8,2-13,2c-0.4,0-0.9,0-1.3-0.1l0,0
	c-2.2-0.8-7.1-6.1-10.4-9.6c-8.3-9-19.8-21.4-37.8-26c-3.8-1-7.8-1.5-11.7-1.5c-14.8,0-27.2,6.6-37.2,12c-4.3,2.3-10.9,5.8-13.2,5.9
	c-2.3-0.1-8.5-3.9-12.7-6.3c-10.1-6.1-23.9-14.4-41.5-14.4c-0.7,0-1.4,0-2.1,0c-20.5,0.8-34.1,14.1-44,23.9c-3.5,3.4-8.8,8.7-11,9.4
	c-0.3,0.1-0.7,0.1-1,0.1c-3,0-8.1-1.3-13-2.6c-7.9-2.1-16.9-4.4-27.1-4.4c-6.4,0-12.7,1-18.7,3c-19.5,6.5-28.7,23.2-35.5,35.3
	c-2.4,4.3-6,10.8-7.9,12.1s-9.3,1.4-14.1,1.5c-12.3,0.4-29.1,0.9-44.4,11.5c-16.9,11.8-21.1,30.3-24.1,43.9
	c-1.1,4.8-2.7,12-4.1,13.8c-1.6,1.7-8.2,3.9-13.1,5.5c-11.7,3.8-27.7,9.1-39.4,23.6c-12.8,16-11.6,35-10.8,48.9
	c0.3,4.9,0.8,12.3-0.1,14.5c-1,2-7.1,6.2-11,8.9c-10.1,7-24,16.5-31.1,33.7c-7.8,19-1.3,36.9,3.4,50c1.7,4.6,4.2,11.6,4,13.8
	c-0.4,2.3-5,7.9-8.1,11.7c-7.8,9.5-18.4,22.6-20.3,41.1c-2.1,20.4,9.1,35.8,17.4,47c2.9,4,7.3,9.9,7.7,12.2c0.1,1.5-1,4.9-2.3,8.3
	l-35.2,10C75,625,68,636.7,70.9,648.2l0,0l-0.8,121.3C73,781,84.7,788,96.2,785.1l60-15.1c0.3,0.6,0.6,1.2,0.9,1.8
	c9.2,18.4,27,25.2,40,30.2c4.6,1.8,11.5,4.4,13.1,6.1c1.4,1.8,2.6,8.7,3.5,13.8c2.1,12.1,5,28.7,17.8,42.3c14,15,33,16.5,46.9,17.6
	c4.9,0.4,12.3,1,14.2,2.2c1.9,1.3,5,7.6,7.3,12.2c5.5,11,12.9,26.1,29,35.6c8,4.6,17.2,7,26.4,6.8c8.5,0,16.5-1.7,23.5-3.1
	c5-1,9.8-2,13-2c0.4,0,0.9,0,1.3,0.1l0,0c2.2,0.8,6.9,5.9,10.4,9.7c8.3,9,19.8,21.4,37.8,26c3.8,1,7.8,1.5,11.8,1.5
	c14.8,0,27.2-6.6,37.2-12c4.3-2.3,10.9-5.8,13.2-5.9c2.3,0.1,8.6,3.8,12.7,6.3c10.1,6,23.9,14.3,41.5,14.3c0.7,0,1.4,0,2.1,0
	c20.5-0.8,34.1-14.1,44-23.9c3.5-3.5,8.8-8.7,10.9-9.4c0.3-0.1,0.7-0.1,1-0.1c3.1,0,8.1,1.3,13,2.6c7.9,2.1,16.9,4.4,27.1,4.4l0,0
	c6.4,0,12.7-1,18.7-3c19.5-6.5,28.7-23.2,35.5-35.3c2.4-4.3,6-10.8,7.9-12.1s9.3-1.4,14.1-1.5c12.3-0.4,29.1-0.9,44.4-11.6
	c16.9-11.8,21.1-30.3,24.1-43.9c1.1-4.8,2.7-12,4.2-13.8c1.6-1.7,8.3-3.9,13.1-5.5c11.7-3.8,27.7-9.1,39.3-23.6
	c12.8-16,11.6-35,10.8-48.9c-0.3-4.9-0.8-12.3,0.1-14.5c1.1-2.1,6.8-6,11-8.8c10.1-7,24-16.5,31.1-33.8c7.8-19,1.3-36.9-3.4-50
	c-1.7-4.6-4.2-11.6-4-13.9c0.4-2.3,5-7.9,8.1-11.7c7.6-9.4,19-24.2,21.2-42.2l33.6-10.3C977.1,559.9,984.1,548.2,981.2,536.7
	L981.2,536.7z"/>
<path class="st1" d="M545.3,272.7H292.1c-14.2,0-25.7,11.6-25.7,25.8v128.7c0,14.2,11.5,25.7,25.7,25.7h253.1
	c14.2,0,25.7-11.5,25.7-25.7V298.4C571,284.2,559.5,272.7,545.3,272.7z M558.6,432.7c0.2,3.7-2.6,6.9-6.3,7.1c-0.3,0-0.5,0-0.8,0
	H285.1c-3.7,0.2-6.9-2.6-7.1-6.3c0-0.3,0-0.5,0-0.8V402h5.3c5,0,9-4,9-9v-66.1c0-5-4-9-9-9H278v-25c-0.2-3.7,2.6-6.9,6.3-7.1
	c0.3,0,0.6,0,0.8,0h266.4c3.7-0.2,6.9,2.6,7.1,6.3c0,0.3,0,0.5,0,0.8V432.7z"/>
<path class="st1" d="M422.8,307.2c-0.7,0-7.4-1.6-8.1-1.6c-10.6-1.2-18.6,9.2-18.6,9.2s-3.2-1.4-3.2-1.5c-8.6-2-30.6,2.5-17,58.9
	l2.7-3c2.4,27.8,20,51,39.9,51.1l0,0c7.9,0,15.6-3.6,22.5-10.4c10.6-10.6,17.1-27,17.6-44.5l0.6,0.1l4.9,1.3c0-1.9,0.1-3.8,0.2-5.8
	C467,323.4,436.4,311.1,422.8,307.2z M432.1,401.1c-4.3,4.3-9.1,6.7-13.5,6.7l0,0c-11.9,0-25.5-17-27.3-39.7
	c0.1-0.1,0.1-0.2,0.2-0.3c-0.1-0.9-0.2-1.7-0.2-2.6c0.1-11.4,4.2-22.3,11.5-31c5.2,15.1,18,23.8,43.3,29
	C446,378.1,440.7,392.5,432.1,401.1z"/>
<path class="st1" d="M198.4,410.4l-5.8-1.1C194.5,409.7,196.4,410.1,198.4,410.4z"/>
<path class="st1" d="M192.6,409.3l-2.9-0.6L192.6,409.3z"/>
<path class="st1" d="M242.7,785.7c-1.1-1.2-2.2-2.3-3.2-3.4C240.5,783.4,241.6,784.4,242.7,785.7z"/>
<path class="st1" d="M883,634.8c-1.3-4.8-1.9-9.5-1.1-13.8c2.8-14.4,19.5-25.3,26-41.9l-40.4,10.2c-3.6,40-14,79.1-30.7,115.6
	c-3-0.6-6-1.1-9-1.5c0-0.1,0-0.1,0.1-0.2h0.2c7-15.3,13-31.1,17.8-47.3l0.1-0.4c0.2-0.8,0.4-1.5,0.7-2.3s0.5-1.7,0.7-2.6l0.3-1
	c0.3-1.2,0.7-2.4,1-3.7c0-0.2,0.1-0.4,0.1-0.5c0.4-1.3,0.7-2.7,1-4c0-0.2,0.1-0.4,0.1-0.5c0.3-1.2,0.6-2.5,0.9-3.8l0.2-1
	c0.2-1,0.5-2,0.7-3c0.2-0.6,0.3-1.3,0.4-2l0.3-1.5c2.7-12.6,4.8-25.4,6.1-38.2l-13.3,3.4c-19,166.6-160.4,296-332.1,296
	c-113.2,0-213.3-56.3-273.8-142.4l-13.3,3.4c10,14.9,21.1,28.9,33.3,42.1l0.5-0.2c63.4,67.7,153.5,110.1,253.3,110.1
	c139,0,259.1-82.1,314.5-200.3c3,0.5,6,1.1,9,1.6C754.5,883.7,543.1,962,364.4,879.9c-38.3-17.6-73.1-41.9-102.9-71.6
	c-10.5-10.5-20.3-21.6-29.4-33.3l0.3,0.3l-0.4-0.4c-5.3-6.7-10.3-13.6-14.9-20.7L175,764.9c11.7,15.3,38.1,15.5,48.4,28.6
	c10.7,13.6,5,38.7,20.2,55c15,16,43.5,6.6,58.2,17c14.1,10,15.7,35.7,34.9,47.1c18.9,11.1,43.6-5.9,60.6-0.1
	c16.4,5.6,25.1,29.8,46.8,35.3c21.2,5.4,40.2-18,58.2-17.2c17.3,0.8,32.5,21.6,54.8,20.7c21.9-0.8,33.5-28.6,51-32.8
	c16.8-4.1,37.2,11.5,58.4,4.5c20.8-7,24.1-36.8,39.7-45.9c15-8.7,39,0.6,57.3-12.2c18-12.5,12.7-42.1,25.1-55.2
	c11.9-12.5,37.6-10.4,51.6-27.8c13.7-17.1,0.3-44,8.6-60c2.4-4.6,6.3-8.3,10.8-11.8l0.5,0.1c10.6-8,24.5-14.9,30.4-29.2
	c3.2-7.6,2.2-15.5,0-23.3S885,642.1,883,634.8z"/>
<path class="st1" d="M260.6,298.4c0-17.4,14.1-31.5,31.5-31.5h15c141.5-100.5,334.9-84.2,457.7,38.5c10.5,10.5,20.3,21.6,29.5,33.3
	l-0.3-0.3l0.4,0.4c12.3,15.8,23.3,32.6,32.7,50.3l1.5,2.8c0.7,1.2,1.3,2.5,1.9,3.7c0.9,1.7,1.7,3.4,2.5,5.1l0.6,1.2
	c4.3,8.8,8.2,17.8,11.7,27l22.2-5.6c-4.3-3.7-7.9-7.6-9.7-12.3c-0.2-0.5-0.3-0.9-0.5-1.4c-4.9-15.9,6.4-37.4-3.3-56.6
	c-9.9-19.6-39.9-18.6-51-32.7c-10.7-13.6-5-38.7-20.2-55c-15-16-43.5-6.6-58.2-17c-14.1-10-15.7-35.7-34.9-47.1
	c-18.9-11.1-43.6,5.9-60.7,0.1c-16.3-5.7-25.1-29.9-46.8-35.4c-21.2-5.4-40.2,18-58.2,17.1c-17.3-0.8-32.5-21.6-54.8-20.7
	c-21.9,0.8-33.5,28.6-51,32.8c-16.8,4.1-37.2-11.5-58.4-4.4c-20.8,7-24.1,36.8-39.7,45.9c-15,8.7-39-0.6-57.3,12.2
	c-18,12.5-12.7,42.1-25.1,55.2c-11.9,12.5-37.6,10.5-51.6,27.8c-13.7,17.1-0.3,44-8.6,60c-2.4,4.6-11.2,11.7-11.4,11.7
	c-10.6,8-24.5,14.9-30.4,29.2c-3.1,7.6-2.2,15.5,0,23.3s5.6,15.5,7.6,22.9c1.3,4.8,1.9,9.5,1.1,13.8c-3.2,17-25.9,29.1-28.3,51.3
	c-0.3,3.4,0,6.8,0.9,10.1c4,15.5,20,28,23.8,41.7c0.3,1.1,0.5,2.2,0.6,3.3c0.2,2.8,0,5.6-0.6,8.3l19.5-4.9
	c-1.9-15.1-2.9-30.3-2.9-45.5c-0.2-93.9,36.9-184,103.2-250.5L260.6,298.4L260.6,298.4z"/>
<path class="st1" d="M179,557c-0.1-80.4,28.9-158.2,81.6-218.9v-19c-25.5,26.9-46.5,57.8-62.2,91.3c-7,15.3-12.9,31-17.8,47.2
	c-0.1,0.2-0.1,0.4-0.2,0.6l-0.6,2.1c-0.3,0.9-0.5,1.8-0.8,2.7c-0.1,0.3-0.2,0.6-0.3,0.9c-0.4,1.2-0.7,2.5-1,3.8
	c0,0.1-0.1,0.3-0.1,0.4c-0.4,1.4-0.7,2.7-1.1,4.1l-0.1,0.4c-0.3,1.3-0.6,2.6-0.9,3.9l-0.2,0.9c-0.2,1-0.5,2-0.7,3.1
	c-0.1,0.6-0.3,1.2-0.4,1.8s-0.2,1.1-0.4,1.6c-5.2,23.9-7.8,48.2-7.8,72.6c0,14.6,0.9,29.3,2.8,43.8l12.6-3.2
	C179.8,583.9,179,570.5,179,557z"/>
<path class="st1" d="M816,387.3c-13.6-24.4-30-47-48.9-67.5l-0.5,0.2c-63.4-67.7-153.5-110.1-253.3-110.1
	c-67.7-0.1-133.9,19.8-190.4,57h24.2c50.6-29,107.9-44.3,166.2-44.2c141.3,0,262.1,87.7,311,211.6l12.5-3.2
	C830.8,416,823.9,401.4,816,387.3z"/>
<path class="st1" d="M787,331.4c-1.1-1.1-2.2-2.2-3.2-3.4C784.8,329.1,785.9,330.2,787,331.4z"/>
<path class="st1" d="M728.7,719.7c1.5,1.5,3.1,2.8,4.8,4s3.6,2.1,5.5,2.9c1.7,0.7,3.4,1.1,5.2,1.2c1.5,0.1,3.1-0.1,4.5-0.7
	c2.8-1.2,4.6-3.9,4.7-7c0-1.5-0.4-3.1-1.1-4.5c-0.8-1.6-1.9-3.1-3.1-4.4c-1.4-1.5-3-2.8-4.8-4c-1.7-1.2-3.6-2.2-5.5-3
	c-1.7-0.7-3.4-1.1-5.2-1.2c-1.5-0.1-3.1,0.1-4.5,0.7c-2.8,1.2-4.6,4-4.7,7c0,1.5,0.4,3.1,1.1,4.4
	C726.4,716.9,727.4,718.4,728.7,719.7z"/>
<path class="st1" d="M638,802.9c0.6-3.9-1.3-7.7-4.7-9.6c-1.6-0.8-3.6-0.7-5.1,0.2l-6,2.9l6.6,13.4l6-2.9
	C636.4,806.1,637.6,804.7,638,802.9z"/>
<polygon class="st1" points="684.1,756.8 693.5,776.2 702.2,768.4 "/>
<path class="st1" d="M396.3,851.8c159.6,67.6,343.7-7,411.2-166.6c11.7-27.6,19.4-56.7,22.8-86.5l-91.1,23.1
	c-32.7,121.8-158,194.1-279.8,161.4c-38.7-10.4-74-30.8-102.3-59.1c-1.5-1.5-2.9-2.9-4.3-4.4l-91.3,23.1
	C295.3,791.1,342,828.8,396.3,851.8L396.3,851.8z M767.5,637.5l8.1,1.9l5.6-6.2l0.7,8.3l7.6,3.4l-7.7,3.2l-0.9,8.3l-5.5-6.3
	l-8.2,1.7l4.3-7.2L767.5,637.5z M735.6,684.2l32.2-1.5l-25.2-12.5l2.1-4.1l34.5,17.2l-2,4l-32.8,1.4l25.7,12.8l-2.1,4.1l-34.5-17.2
	L735.6,684.2z M720.3,710.5c0.5-4.4,3.1-8.3,7-10.4c1.9-0.9,4-1.4,6.1-1.4c2.3,0,4.6,0.4,6.8,1.2c2.5,0.9,4.8,2,7,3.5
	s4.2,3.2,5.9,5.2c1.6,1.7,2.8,3.7,3.7,5.9c0.8,2,1.1,4.1,1,6.2c-0.4,4.4-3,8.3-6.9,10.4c-1.9,0.9-4,1.4-6.1,1.4
	c-2.3,0-4.6-0.4-6.8-1.2c-5-1.8-9.4-4.8-13-8.7c-1.6-1.7-2.8-3.7-3.7-5.8C720.5,714.7,720.1,712.6,720.3,710.5L720.3,710.5z
	 M711.2,721l30,24.2l-2.9,3.6l-30-24.2L711.2,721z M705.6,728.2l3,2.8l-6.3,6.7l25.1,23.5l-3.1,3.3L699.2,741l-6.2,6.7l-3-2.8
	L705.6,728.2z M682.9,751.2l34.2,21.2l-3.7,3.3l-7.6-4.9l-10.2,9.1l3.9,8.2l-3.7,3.4L678.9,755L682.9,751.2z M659.9,769.7
	c1.2-0.9,2.5-1.5,3.9-1.8c1.3-0.3,2.7-0.3,4.1,0c1.4,0.3,2.7,0.9,3.9,1.7c1.3,0.9,2.5,2.1,3.4,3.5c0.9,1.2,1.6,2.6,2,4.1
	c0.4,1.2,0.5,2.4,0.4,3.7c-0.1,1.1-0.3,2.2-0.8,3.2c-0.4,0.9-1,1.7-1.7,2.4L691,795l-4.2,3l-14.9-8.3l-4.5,3.2l8.9,12.6l-3.8,2.7
	l-22.2-31.5L659.9,769.7z M644.2,780l19.6,33.2l-4,2.3l-19.6-33.2L644.2,780z M626.8,789.6c1.4-0.7,3-1.2,4.6-1.2
	c1.4,0,2.8,0.2,4.1,0.8s2.5,1.4,3.4,2.4c1,1.1,1.9,2.3,2.5,3.7c0.7,1.4,1.1,2.8,1.4,4.3c0.2,1.4,0.1,2.8-0.2,4.2
	c-0.4,1.4-1,2.6-1.9,3.7c-1,1.2-2.3,2.2-3.7,2.8l-6.4,3.2l6.8,13.8l-4.2,2l-17-34.6L626.8,789.6z M593.8,809.1
	c0.1-1.3,0.5-2.6,1.1-3.8s1.5-2.3,2.6-3.2c1.2-1,2.5-1.7,3.9-2.2c1.9-0.7,3.8-1,5.8-1c1.8,0.1,3.6,0.5,5.2,1.3l-1.1,4.1
	c-1.3-0.7-2.8-1.1-4.3-1.2c-1.5-0.1-3,0.2-4.4,0.7c-1.5,0.5-2.8,1.6-3.6,3s-0.9,3.1-0.2,4.5c0.4,1.2,1.3,2.2,2.4,2.7
	c1.2,0.6,2.5,0.9,3.8,1.2c1.4,0.2,3,0.4,4.7,0.5c1.6,0.1,3.2,0.4,4.8,0.9c1.5,0.5,3,1.3,4.2,2.3c1.4,1.2,2.5,2.8,3.1,4.6
	c0.5,1.3,0.7,2.7,0.7,4.1c0,1.4-0.3,2.7-0.9,4c-0.6,1.3-1.5,2.5-2.6,3.5c-1.3,1.1-2.9,2-4.6,2.6c-2.1,0.8-4.4,1.2-6.7,1
	c-2-0.2-4-0.7-5.7-1.7l1.2-4.2c1.4,0.8,3,1.3,4.6,1.5c1.8,0.2,3.6,0,5.3-0.6c1-0.3,1.9-0.9,2.8-1.6c0.7-0.6,1.2-1.3,1.6-2
	c0.3-0.7,0.5-1.5,0.5-2.3s-0.1-1.6-0.4-2.4c-0.4-1.3-1.3-2.4-2.5-3.1c-1.2-0.7-2.5-1.1-3.9-1.3c-1.5-0.3-3.1-0.4-4.7-0.5
	c-1.6-0.1-3.2-0.4-4.8-0.8c-1.5-0.4-2.9-1.1-4.2-2c-1.4-1.1-2.4-2.6-3-4.4C593.9,811.9,593.6,810.5,593.8,809.1L593.8,809.1z
	 M566.3,810.6l21.8,23.7l-6.6-27.3l4.5-1.1l9,37.5l-4.3,1l-22.2-24.2l6.7,27.9l-4.5,1.1l-9-37.5L566.3,810.6z M555.1,812.6l5.7,38.1
	l-4.6,0.7l-5.7-38.1L555.1,812.6z M505.2,827.4c0.5-2.3,1.4-4.4,2.7-6.4c1.2-1.8,2.7-3.2,4.5-4.3c3.9-2.1,8.5-2.2,12.5-0.2
	c1.8,1,3.4,2.4,4.6,4.2c1.3,1.9,2.3,4,2.9,6.3c0.7,2.5,1.1,5.1,1.1,7.8c0.1,2.6-0.2,5.3-0.9,7.8c-0.5,2.3-1.5,4.4-2.7,6.4
	c-1.2,1.8-2.7,3.2-4.5,4.3c-3.9,2.1-8.5,2.2-12.5,0.2c-1.8-1-3.4-2.4-4.6-4.2c-1.3-1.9-2.3-4-2.9-6.3c-0.7-2.5-1-5.2-1.1-7.8
	C504.4,832.6,504.6,830,505.2,827.4z M480,813.5l22.8,2.2l-0.4,4.1l-9.2-0.9l-3.3,34.3l-4.5-0.4l3.3-34.3l-9.1-0.9L480,813.5z
	 M446,826.4c0.5-2.6,1.4-5.1,2.5-7.4c1-2.1,2.4-4,4-5.6c1.5-1.5,3.3-2.6,5.3-3.2c4.2-1.2,8.8-0.3,12.2,2.5c1.6,1.4,2.8,3.1,3.6,5.1
	c0.9,2.2,1.4,4.4,1.5,6.8c0.2,5.3-0.8,10.5-3.2,15.3c-1,2.1-2.4,4-4,5.6c-1.5,1.5-3.3,2.6-5.3,3.2c-4.2,1.2-8.8,0.3-12.2-2.5
	c-1.6-1.4-2.8-3.1-3.6-5.1c-0.9-2.2-1.4-4.4-1.5-6.8C445.2,831.6,445.4,829,446,826.4L446,826.4z M425.8,799.3l-5.5,15.7l14.9,5.2
	l5.5-15.7l4.4,1.5l-12.7,36.4l-4.3-1.5l5.9-16.8l-15-5.2l-5.9,16.8l-4.4-1.5l12.6-36.4L425.8,799.3z M397.5,786.4l10.5,5.1
	c1.5,0.7,2.7,1.6,3.8,2.9c0.9,1.1,1.6,2.3,1.9,3.7s0.4,2.8,0.2,4.2c-0.2,1.5-0.7,2.9-1.3,4.3c-0.6,1.4-1.5,2.6-2.5,3.7
	c-1,1-2.1,1.8-3.4,2.4c-1.3,0.6-2.7,0.8-4.1,0.8c-1.6-0.1-3.1-0.5-4.5-1.2l-6.4-3.1l-6.7,13.9l-4.2-2L397.5,786.4z M353.8,782
	l8.1,1.9l5.6-6.2l0.7,8.3l7.6,3.4l-7.7,3.3l-0.9,8.3l-5.5-6.3l-8.2,1.7l4.3-7.2L353.8,782z"/>
<path class="st1" d="M673,781.1c0-3.9-2.5-7.4-6.2-8.8c-1.7-0.5-3.6-0.1-5,1l-5.4,3.8l8.6,12.2l5.4-3.8
	C671.9,784.6,672.9,782.9,673,781.1z"/>
<path class="st1" d="M404.5,808.6c3.4-1.9,5.3-5.8,4.7-9.6c-0.4-1.8-1.6-3.2-3.3-3.9l-6-2.9l-6.5,13.4l6,2.9
	C400.9,809.3,402.8,809.4,404.5,808.6z"/>
<path class="st1" d="M453.1,842.8c1.1,1.1,2.4,1.8,3.9,2.1s3,0.2,4.4-0.3c1.4-0.6,2.7-1.5,3.7-2.7c1.2-1.3,2.2-2.9,2.9-4.5
	c1.7-3.8,2.5-8,2.5-12.2c0-1.8-0.3-3.6-0.8-5.3c-0.5-1.5-1.3-2.8-2.3-3.9c-1.1-1.1-2.4-1.8-3.9-2c-1.5-0.3-3-0.2-4.4,0.3
	c-1.4,0.6-2.7,1.5-3.7,2.7c-1.2,1.4-2.1,2.9-2.9,4.5c-1.7,3.8-2.5,8-2.5,12.2c0,1.8,0.3,3.6,0.8,5.3
	C451.3,840.3,452.1,841.7,453.1,842.8z"/>
<path class="st1" d="M511.8,846.3c0.8,1.3,1.9,2.5,3.2,3.3c2.6,1.6,5.9,1.6,8.5-0.1c1.2-0.9,2.3-2.1,3-3.4c0.9-1.6,1.5-3.3,1.8-5.1
	c0.4-2,0.6-4.1,0.5-6.2c0-2.1-0.3-4.2-0.7-6.2c-0.4-1.8-1.1-3.5-2-5c-0.8-1.3-1.9-2.5-3.2-3.3c-2.6-1.6-5.9-1.5-8.5,0.1
	c-1.3,0.9-2.3,2-3,3.4c-0.9,1.6-1.5,3.3-1.8,5c-0.4,2.1-0.6,4.2-0.5,6.2c0,2.1,0.3,4.1,0.7,6.2C510.3,843.1,510.9,844.8,511.8,846.3
	z"/>
<path class="st1" d="M679.9,401.2c17.3,17.2,31.7,37.1,42.7,58.9l84.3-21.4c-65.5-152-237.6-227.1-393.5-171.8h132
	c17.4,0,31.5,14.1,31.5,31.5v43.4C615.8,352.1,651.4,372.6,679.9,401.2z M694.9,354.7l0.7-8.3l5.6,6.2l8.1-1.9l-4.2,7.2l4.3,7.1
	l-8.2-1.7l-5.5,6.3l-0.9-8.3l-7.7-3.2L694.9,354.7z M660.9,331.3l1.1-13.2l8.9,9.8l12.9-3l-6.7,11.5l6.9,11.3l-13-2.7l-8.7,10.1
	l-1.4-13.2l-12.2-5.2L660.9,331.3z M613.1,305.3l1.5-17.2l11.6,12.8L643,297l-8.6,14.9l8.9,14.8l-16.9-3.5l-11.2,13l-1.9-17.1
	l-15.9-6.7L613.1,305.3z"/>
<path class="st1" d="M229.3,440.5c-16.4,38.7-24.8,80.2-24.7,122.2c0,9.5,0.4,18.9,1.3,28.3l84.3-21.4c-0.1-2.3-0.1-4.6-0.1-7
	c-0.1-36.2,8.5-71.9,25-104.1h-23c-17.4,0-31.5-14.1-31.5-31.5v-43.5C248.2,401.5,237.7,420.5,229.3,440.5z M258.5,515.9l-4.8,6.8
	l-1.7-8.2l-8-2.5l7.2-4.1l-0.1-8.3l6.2,5.6l7.9-2.7l-3.4,7.6l5,6.7L258.5,515.9z M266.3,464.9l12.6-4.3l-5.5,12.1l7.9,10.6
	l-13.2-1.5l-7.7,10.8l-2.7-13l-12.7-3.9l11.5-6.6l-0.2-13.3L266.3,464.9z"/>
<path class="st1" d="M148.8,741.3c-7.4,2-15.2,2.6-22.9,1.6c-7.3-1-13.3-3.4-18-7l9.2-20.6c3.6,2.9,8,4.9,12.6,5.7
	c4.8,1,9.8,0.8,14.6-0.4c3.3-0.9,5.6-2.4,6.9-4.7c1.3-2.1,1.6-4.6,1-7c-0.6-1.9-2-3.3-3.8-4c-2.5-1.1-5-1.9-7.6-2.6
	c-2.9-0.8-6.1-1.6-9.5-2.4c-3.4-0.8-6.7-2-9.9-3.5c-3.1-1.6-6-3.6-8.5-6.1c-2.6-2.7-4.5-6.1-5.4-9.8c-1.1-4.3-1.4-8.8-0.7-13.1
	c0.6-4.4,2.1-8.6,4.4-12.4c2.4-4,5.6-7.5,9.4-10.3c4.3-3.1,9.1-5.4,14.2-6.7c6.1-1.6,12.5-2.1,18.7-1.3c6.1,0.6,11.9,2.6,17.1,5.9
	l-8.9,20.3c-3.5-2.4-7.5-3.9-11.6-4.5c-4-0.6-8-0.4-11.9,0.6c-2.5,0.5-4.6,2-6,4.1c-1.2,1.9-1.5,4.1-0.9,6.2c0.6,1.8,2,3.3,3.8,4
	c2.4,1.1,5,2,7.6,2.6l9.6,2.5c3.4,0.9,6.7,2.1,9.9,3.6s6,3.6,8.5,6.1c2.6,2.8,4.4,6.2,5.3,9.8c1.2,4.5,1.5,9.2,0.9,13.8
	c-0.6,4.5-2.1,8.8-4.4,12.7c-2.4,4-5.6,7.5-9.3,10.3C158.7,737.8,153.9,740,148.8,741.3z"/>
<path class="st1" d="M188,729.2l-4-102.4l58.3-15.3l0.7,21.7l-34.7,9.1l0.8,17.9l33.6-8.8l0.9,21.6l-33.8,8.9l0.8,19.5l34.8-9.1
	l0.9,21.6L188,729.2z"/>
<path class="st1" d="M259.2,710.5l-4-102.4l23.5-6.2l3.2,80.7l31.2-8.2L314,696L259.2,710.5z"/>
<path class="st1" d="M325.3,693.2l-4-102.4l58.3-15.3l0.7,21.7l-34.7,9.1l0.8,17.9l33.6-8.8l0.9,21.6l-33.8,8.8l1.6,41.1
	L325.3,693.2z"/>
<path class="st1" d="M395.6,674.8l-4-102.4l23.5-6.2l4,102.4L395.6,674.8z"/>
<path class="st1" d="M434.5,664.6l-4-102.4l58.3-15.3l0.7,21.7l-34.7,9.1l0.8,17.9l33.7-8.8l0.9,21.6l-33.8,8.9l0.8,19.5l34.8-9.1
	l0.9,21.6L434.5,664.6z"/>
<path class="st1" d="M534.8,638.3l-4-102.4l39-10.2c3.8-1.1,7.8-1.5,11.8-1.1c3.3,0.3,6.5,1.3,9.4,2.9c2.7,1.5,5,3.5,6.8,5.9
	s3.1,5.2,3.8,8.1c1.6,6.3,1.1,12.9-1.5,18.8c-1.3,2.9-3,5.5-5.2,7.7c-2.1,2.2-4.8,3.9-7.7,5c4.3-0.1,8.5,1.5,11.6,4.6
	c3,2.9,5.1,6.6,6.2,10.6c0.9,3.5,1.2,7.2,1,10.8c-0.2,3.8-1.2,7.6-2.9,11c-1.9,3.7-4.5,6.9-7.8,9.5c-4,3.1-8.6,5.3-13.4,6.4
	L534.8,638.3z M570.6,565.6c2.9-0.6,5.4-2.6,6.6-5.4c0.5-1.2,0.9-2.5,0.9-3.8c0.1-1.3-0.1-2.6-0.4-3.8c-0.4-2-1.6-3.7-3.4-4.6
	c-1.9-0.9-4.1-1-6.1-0.3l-13.1,3.5l0.7,18.4L570.6,565.6z M572.9,606.8c3.1-0.7,5.7-2.7,7.2-5.4c1.4-2.7,1.7-5.8,0.9-8.8
	c-0.4-2.1-1.6-3.9-3.4-5c-1.7-1-3.7-1.2-6.3-0.5l-14.7,3.8l0.9,19.9L572.9,606.8z"/>
<path class="st1" d="M671,602.6l-4.2-14.7l-27.6,7.2l-3,16.6l-26.2,6.9l24.5-109.9l28.3-7.4l32.6,94.9L671,602.6z M650.8,530.5
	l-7.5,41.7l18.1-4.8L650.8,530.5z"/>
<path class="st1" d="M702.2,594.4l-4-102.4l33.2-8.7c4.4-1.1,9-1.4,13.5-0.8c4.6,0.6,9.1,2.1,13.1,4.4c4.2,2.5,7.9,5.7,10.9,9.6
	c3.3,4.4,5.7,9.4,7.1,14.8c1.7,6.9,2.6,13.9,2.5,21c0,7.4-1.4,14.8-4.2,21.7c-3,7.2-7.5,13.7-13.3,18.9c-6.1,5.6-14.4,9.8-24.9,12.5
	L702.2,594.4z M734.9,564c4.3-1,8.1-3.3,11-6.7c2.8-3.3,4.9-7.1,6.1-11.3c1.3-4.4,2-9,1.9-13.6c0-4.6-0.6-9.1-1.7-13.6
	c-1.4-5.5-4-9.5-7.7-11.9c-3.5-2.4-7.9-3.2-12.1-2l-9.9,2.6l2.3,59.1L734.9,564z"/>
<path class="st1" d="M834.6,561.6c-5.3,1.4-10.7,1.9-16.2,1.4c-5-0.5-9.8-2-14.1-4.4c-4.3-2.5-8.1-5.9-11-9.9
	c-3.3-4.6-5.7-9.7-7-15.1c-2.1-7.8-3-15.9-2.6-24c0.2-7.7,1.9-15.3,4.8-22.4c2.8-6.8,7.1-13,12.5-18.1c5.7-5.3,12.7-9.1,20.3-10.9
	c4.4-1.2,9.1-1.6,13.7-1.2c3.9,0.4,7.8,1.6,11.3,3.4c3.3,1.7,6.2,4,8.7,6.7c2.4,2.7,4.5,5.6,6,8.9l-18.9,12.6
	c-1.6-3.2-4-5.9-7.1-7.7c-3.2-1.9-7-2.4-10.6-1.3c-3.6,1-6.7,3.2-8.8,6.2c-2.5,3.4-4.4,7.3-5.5,11.4c-1.3,4.7-1.9,9.5-1.8,14.4
	c0,5.1,0.7,10.2,2,15.2c1.4,5.4,3.9,9.4,7.4,12s7.8,3.2,12.8,1.9c2.4-0.6,4.7-1.8,6.6-3.4c1.8-1.6,3.3-3.5,4.5-5.5l-0.4-10.3
	l-15.8,4.2l-0.8-22l37.9-9.9l1.5,41.3c-2.5,6.6-6.5,12.5-11.6,17.3C847.3,556.6,841.2,559.9,834.6,561.6z"/>
<path class="st1" d="M878,548.4L874,446l58.3-15.3l0.7,21.7l-34.7,9.1l0.8,18l33.7-8.8l0.9,21.6l-33.8,8.9l0.8,19.5l34.8-9.2
	l0.9,21.6L878,548.4z"/>
<path class="st1" d="M568,726.4c1.5,0.8,3,1.6,4.5,2.3l-2.8,10.7l36.8-0.1c22,0,32.2-9.4,32.2-21.7c0-7.3-4.5-11.9-10.8-14.2
	c9.9-2.5,15.9-9.2,15.9-18.2c0-0.7-0.1-1.4-0.1-2.1c-2.3,0-4.5,0-6.7,0.1c-4.7,0.2-9.5,0.3-14.3,0.8c-1.1,0.1-2.1,0.2-3.1,0.3
	c3.3,0.7,4.8,2.5,4.8,4.9c0,4.5-3.7,7.2-10.7,7.2h-13.3l2.5-9.5c-6.4,1.3-12.7,3.3-18.8,5.8l-2.2,1l-7.9,29.9l0,0
	c0,0-0.2,0.6-0.4,1.3c-0.8-0.7-1.7-1.4-2.4-2.2c-2.9-2.6-5.3-5.8-6.9-9.3c-1-2-1.4-4.3-1.2-6.6c0.4-4.5,3.5-7.8,6.5-10.2
	c3.2-2.5,6.7-4.5,10.4-6c12-5,24.3-7.3,38.7-8.8c4.8-0.5,9.6-0.6,14.3-0.8c9.4-0.4,18.8,0,28.2,1.2c0.6,0.1,1.8,0.3,1.7,0
	c0.1-0.5-0.9-0.7-1.3-0.8c-6.3-1.6-12.8-2.7-19.3-3.4c-2.9-5.7-10.1-9.9-24.1-9.9l-29.5,0.1l-3.3,12.6c-8.8,2.1-16.7,5-22.7,8.6
	c-2.7,1.5-5.1,3.4-7.3,5.5c-2.1,2.3-4.1,5.4-4.4,8.6c-0.4,3.3,0.3,6.5,2,9.4c0.8,1.5,1.9,2.9,3,4.1C559.4,720.9,563.5,724,568,726.4
	z M596.6,710.4h13.6c5.8,0,8.7,1.9,8.7,5.5c0,4.5-4.1,7.5-10.9,7.5h-14.9L596.6,710.4z"/>
<radialGradient id="SVGID_2_" cx="446.8901" cy="402.425" r="464.73" gradientTransform="matrix(1 0 0 1 0 -2.02)" gradientUnits="userSpaceOnUse">
	<stop  offset="0.32" style="stop-color:#FFFFFF"/>
	<stop  offset="0.82" style="stop-color:#FFFFFF;stop-opacity:0"/>
</radialGradient>
<path class="st3" d="M443.8,407.4l43.6,381.1c-5.1-0.7-10.1-1.6-15.1-2.6l-28.8-378.5v0.2L443.8,407.4z M444.2,407.3l90.3,382.8
	c5.5-0.4,10.9-0.9,16.2-1.7L444.2,407.3L444.2,407.3z M442.2,407.5l-26.4,358.8c4.4,2.2,9,4.3,13.6,6.3l13.2-365.5v0.5L442.2,407.5z
	 M442.8,407.6v-1.1v0.6V407.6z M441.9,407.4L441.9,407.4L389.8,751c4.2,2.8,8.4,5.5,12.8,8.1l39.6-352.8L441.9,407.4z M444.9,406.8
	l-0.1,0.1l155.4,368.8c5.6-2.1,11.1-4.5,16.5-7.1l-172.1-363L444.9,406.8z M442.9,405.2L442.9,405.2z M440.6,406.6l0.6-1.5
	L309.4,654.6c2.3,5.1,4.7,10.1,7.4,15l124-262.8L440.6,406.6z M445.3,406.5L445.3,406.5L633,760c5.5-3.2,10.9-6.6,16.2-10.3
	l-204.8-345L445.3,406.5z M446.1,405.3l-0.6-0.6l249,303.5c4.7-5.7,9.2-11.6,13.3-17.7L446.1,405.3L446.1,405.3z M443.9,405.3
	L567,785.5c5.6-1.2,11.1-2.6,16.5-4.2L443.7,404.7L443.9,405.3z M441.1,407l0.8-2.4L325.1,683.9c2.9,4.6,5.9,9,9.1,13.4L441.1,407
	L441.1,407z M442.8,404.9v1.4v-0.7V404.9l0.1-0.5L442.8,404.9z M446.4,404.8l-0.6-0.5l274,266.7c3.8-7,7.2-14.1,10.2-21.5
	l-283.6-245V404.8z M439.6,405.1l-0.1-0.2L290.1,551c-0.2,3.6-0.3,7.2-0.3,10.9c0,2.5,0,4.9,0.1,7.3l150.5-165L439.6,405.1z
	 M443.4,404l59.4,386.2c5.2,0.4,10.4,0.5,15.7,0.5l-74.9-386L443.4,404z M294.7,515.1c-1.2,5.9-2.2,11.8-3,17.8l148.5-129l-0.9,0.6
	v-0.1L294.7,515.1z M747,548.3L446.7,403.7v0.2l300.4,171.4c0.2-4.4,0.4-8.9,0.4-13.4S747.3,552.8,747,548.3z M442.3,407.3l0.4-2.4
	v-1.3l-0.2,1.2L442.3,407.3z M446.6,404.2l-1.2-0.7l292.8,222.8c2.4-8.2,4.3-16.5,5.8-24.9L446.6,404.2L446.6,404.2z M439.9,405.8
	l1.4-1.6l0.5-0.7l-2,2.2v-0.1L291.3,587.3c0.7,6,1.6,11.9,2.7,17.7L439.9,405.8L439.9,405.8z M443.9,403.8l-0.2-0.4l0.2,0.6l0.4,0.8
	L443.9,403.8z M443.6,406.1l-0.3-2.3l-0.1-0.4l0.1,1.4L443.6,406.1z M442.4,403.2L442,404l-0.7,1.8l0.8-1.7L442.4,403.2z
	 M442.8,403.2v0.1v0.7v-0.3V403.2z M440.4,406.4l1.7-3.2l-1.8,3l-0.1-0.1L297.9,622.2c1.5,5.6,3.3,11.1,5.2,16.5L440.4,406.4
	L440.4,406.4z M443.8,403.2l2,2.8l-0.1,0.2l-1.7-2.7l0.2,0.3l220.8,334c5.3-4.4,10.3-9,15.2-13.8L445,404.7L443.8,403.2z
	 M444.2,405.6l-0.5-1.6l-0.4-0.8l0.2,0.8L444.2,405.6z M445.3,404.3l-0.7-0.8l-0.4-0.3l0.3,0.4L445.3,404.3z M440.8,403.1
	l-136.4,78.4c-2,5.3-3.8,10.8-5.4,16.3L439.2,404l0,0l1.4-0.8L440.8,403.1z M443.3,403.5L443.3,403.5L443.3,403.5v-0.4l0,0v0.2V403
	l0,0v0.3V403.5z M439,403.4L439,403.4l1.1-0.5l-163.7,38.7c0.5,0.2,1,0.3,1.5,0.3h39.6L439,403.4z M442.7,402.9L442.7,402.9v0.1
	V402.9L442.7,402.9z M440.3,404.2l1.2-0.9l0.4-0.4l-0.7,0.4L440.3,404.2z M445.2,403l298.6,118.2c-1.6-9.1-3.8-18.1-6.6-27
	l-292.4-91.3L445.2,403z M442,403.2l0.2-0.3l-0.9,0.8l-0.8,1L442,403.2z M446.9,402.9c0,0.1,0,0.2,0,0.2l280.6,65.1
	c-3.8-8.4-8.1-16.6-12.8-24.5l-268-40.9L446.9,402.9z M442.8,403l0.1,0.5v-0.3v-0.4L442.8,403z M439.1,403.6l-121.2,48.5
	c-2.5,4.6-4.9,9.2-7.1,14l130.4-63.5L439.1,403.6L439.1,403.6z M444.6,403.1l-0.6-0.4l0.5,0.5l1.2,0.8L444.6,403.1z M442.8,402.6
	v0.2v0.1V402.6L442.8,402.6z M443.2,402.6L443.2,402.6L443.2,402.6z M443.3,403v-0.2l0.2,0.3l-0.1-0.3l-0.1-0.2v-0.1l0,0l0,0V403z
	 M443.3,402.5l0.1,0.2l0,0l0,0L443.3,402.5L443.3,402.5L443.3,402.5z M441.4,402.8l0.4-0.2l0.1-0.1L441.4,402.8z M442.1,402.4
	l0.1-0.1h-0.1l-0.2,0.1H442.1z M443.7,402.4L443.7,402.4l-0.2-0.1l0,0l-0.2-0.1l0.1,0.2h0.1l0.2,0.2l0.2,0.1L443.7,402.4z
	 M443,402.3L443,402.3z M443,402.2L443,402.2L443,402.2z M443.5,402.2l0.1,0.1l0,0l0.4,0.1l0,0h0.1L443.5,402.2z M443,402.1
	L443,402.1z M443.2,402.1L443.2,402.1L443.2,402.1z M443.4,402.1L443.4,402.1L443.4,402.1L443.4,402.1L443.4,402.1h-0.1l0,0l0,0
	l0.2,0.1L443.4,402.1z M443.1,401.9L443.1,401.9L443.1,401.9z M442.8,401.5L442.8,401.5z M441.8,400.2l0.5,0.7l-0.1-0.2l0,0
	L441.8,400.2L441.8,400.2l0.4,0.5L441.8,400.2L441.8,400.2z M443.4,400l0.2-1l-0.1,0.5L443.4,400z M443,399.3l0.1-0.5v-1l-0.1,0.8
	V399.3z M443,396v1.1v-0.6V396z M439.1,399.9l-164.8-94.4v14.9L439.1,400V399.9z M446.5,399.3v0.1l115.9-88.5v-12.2L445.6,399.9
	L446.5,399.3z M439.5,398.9l0.3,0.2L318,280.4h-15.8l137.2,118.7L439.5,398.9z M439.7,398.4l1.3,1.3l-97.7-119.2h-11.7l108.1,118.1
	L439.7,398.4z M440.4,397.4l1.1,1.8l-0.9-2v-0.1l-61.9-116.7h-7.6L440.4,397.4L440.4,397.4z M440.9,396.9l0.1-0.1l-48.9-116.4h-6.4
	l55.5,117.3L440.9,396.9z M441.7,397.8l-37.9-117.3h-5.6L442.1,399L441.7,397.8z M441.6,396.4l-27.3-116h-5.2l32.3,116.1
	L441.6,396.4z M442.4,399.4l-18.2-119h-4.8l23,118.7V399.4z M442.2,396.2l0.1,0.4l-8.8-116.2h-4.7L442,396.3L442.2,396.2z
	 M443.9,396.3L443.9,396.3l17.7-115.9h-4.7l-13.2,117.2L443.9,396.3z M444.2,396.4l-0.4,1.7l-0.3,1.3l27.9-119.1h-5l-22.3,116
	L444.2,396.4z M444.7,396.7l-0.5,1.6l49.5-118h-6L444.7,396.7L444.7,396.7z M445.1,397l-0.8,2l62.9-118.6h-7L445,397H445.1z
	 M443,402.2L443,402.2z M443,403.9v-0.6l0.1,0.7v-0.8L443,403l0,0l0.1,0.2l-0.1-0.3l0,0l0.1,0.2l-0.1-0.2l0,0v-0.2l0,0l0,0v-0.1l0,0
	v-0.1l-0.1-0.1l0,0v0.1v-0.1l0,0l0,0l0,0l0,0l0,0l0,0l0,0l0,0l0,0l0,0l0,0l0,0l0,0l0,0l0,0l0,0l0,0l0,0l0,0l0,0l0,0l0,0l0,0l0,0l0,0
	l0,0l0,0l0,0l0,0l0,0l0,0l0,0l0,0l0,0v0.1l0,0l0,0l0,0l0,0l0,0l0,0v0.2v-0.2l0,0l0,0v-0.1l0,0l0,0l0,0l0,0v0.1l0,0l0,0l0,0v-0.1l0,0
	l0,0l0,0v-0.1l0,0l0,0l0,0l0,0v0.1l0,0l0.1,0.2l0,0l-0.1-0.2l0.1,0.1v0.1l0,0v-0.1l0,0v-0.1l0.1,0.1l-0.1-0.1l0,0l0,0l0,0l0,0l0,0
	l0,0l0,0l0,0l0,0v-0.1l0,0l0,0l0,0l0,0l0,0v-0.1l0,0l0,0l0,0l0,0l0,0l0,0l0,0l0,0l0,0l0,0l0,0l0,0l0,0l0,0v0.1l0,0l0,0l0,0l0,0l0,0
	l0,0l0,0v-0.1l0,0l0,0l0,0l0,0l0,0l0,0l0,0v0.1l0,0l0,0l0,0l0,0l0,0l0.1,0.1l0,0h0.1l0,0l0,0l0,0l0.3,0.1l0,0l0.2,0.1l0,0l0.2,0.1
	l0,0l2.1,0.5l-0.9-0.4l-0.7-0.1h0.4l-0.6-0.2h0.6l0.6,0.2h1.2l-0.3-0.1h0.4l0,0l0,0l0,0l252.4,18.6c-5.4-6.9-11.2-13.5-17.3-19.8
	H446.9v-0.2L663,384.4c-6.2-5.1-12.7-9.8-19.4-14.2l-196.7,30.6v-0.2l177.3-41.7c-6.1-3.2-12.3-6.1-18.7-8.7l-158.6,50.1v-0.2h-0.1
	l141-56.3c-5.3-1.7-10.7-3.2-16.2-4.5l-125.3,60.8H446l116.4-66.8v-10.9l-115.8,77.2v0.1l-2.3,1.3l1.2-0.9h-0.2l-1.2,1.1l-0.2,0.1
	l0.8-0.8l0.5-0.3H445l0.8-0.8l-1.8,1.4l0.4-0.5l0.1-0.1l0,0l0.6-0.7l-0.7,0.7h-0.1l1.8-1.9l0,0l96.5-117.8h-10.4L445.9,398l0,0
	l-1.7,2.2l0,0l0.4-0.6l-0.5,0.6l0,0l0.3-0.5l-0.3,0.5l0,0l1.6-2.6l0.1,0.1L523,280.4h-8.3l-69.2,117l0,0l-1.5,2.8l0,0l0.6-1.2
	l-0.8,1.4l0.1-0.2h-0.1l0.3-0.6l0.6-1.8l-0.8,1.7l-0.2,0.6h-0.1l-0.2,0.4l0.1-0.4l0,0l0.2-0.8l-0.3,0.8l0.6-2l0.5-1.6h0.1L482,280.3
	h-5.4l-33.1,119.5v0.1v-0.1l-0.1,0.3V400l0,0v-0.2l-0.1,0.2h-0.1l0.3-1.4l8.8-118.3h-4.7l-4.3,116V396l0.3,0.1l-0.4,2.6v1.4h-0.1
	v-0.4v0.3v0.1v0.1v-0.1v1.1v-0.6v0.3l-0.1-0.3v-0.4l0.1,0.4v-0.5l0,0v-0.4v-0.4v0.6v-0.7l-0.4-3.1h0.2l0.2,2.2v-0.8V280.4h-4.8
	l4.4,118l0.2,1.6v0.1h-0.1l-0.1-0.5v0.5h-0.1l-0.1-1.3l-0.3-1.3l0.3,2.3l0.1,0.3l-0.1-0.2v0.2l0,0l0.1,0.2v-0.1l0.1,0.4l0,0l0.1,0.3
	l-0.1-0.2v0.1l-0.1-0.2v-0.2l-0.1-0.2l0.1,0.4v-0.1l0.1,0.2l0,0l0.1,0.4l0,0v0.1l-0.1-0.4v0.1l-0.1-0.4l0.1,0.1l-0.7-1.8l0.3,0.9
	l0.2,0.4h-0.1l0.2,0.5l-0.3-0.5h-0.1l-0.2-0.5l-0.7-1.4l0.6,1.5l0.3,0.4H442l0.2,0.6l0.2,0.2l-0.2-0.6l0.4,0.7l0.1,0.2l0,0l0,0l0,0
	l0,0l0,0v-0.1v0.1l0,0v0.1l0,0v-0.1v0.1l0,0l0,0l0,0l0,0l0,0l0,0l0,0l0.1,0.1l0,0l0,0l0,0l0,0l0,0l0,0l0,0l0,0l0,0l0,0l0,0l0,0l0,0
	l0,0l0,0l0,0l0,0l0,0l0,0h-0.1l0,0l0,0l0,0l0,0l0,0l-0.1-0.1l0,0l-0.1-0.1l0,0l-0.1-0.1l0,0l-0.1-0.2l0.1,0.2l0,0l0.1,0.1l0,0l0,0
	h0.1l-0.1-0.1l-0.1-0.2l0.2,0.2l0,0V401l0,0l-0.1-0.1l0,0l-0.1-0.2l0.1,0.1l-0.3-0.5v0.1l0,0l0,0v0.1l-0.5-0.7l0.1,0.1l-1.9-2.5
	l0.1-0.2l1.5,2.2l-0.2-0.4l-78.7-119.1h-9.2l87,118.4l1.1,1.4h-0.1l0.1,0.2l-0.2-0.2h-0.1l0.5,0.5l0.1,0.1l-1.8-1.6l0.9,0.9l0,0
	l0.7,0.7l-0.8-0.5l-0.2-0.2h-0.1l-0.3-0.2l0.3,0.2h-0.3l-157-119.8H278c-2,0-3.6,1.6-3.6,3.6l0,0v6l165.2,109.8l0.5,0.3H440l1.1,0.8
	l-0.6-0.2l-0.9-0.5h-0.2l1,0.5l-1.2-0.5h-0.1l-164.8-65.5V348l164,51.6h-1.2l-162.8-38v13.3l160.3,24.7l-9.3,0.1l-151-11.6v13.7
	h164.8l-164.8,13.1v13.2l164.6-25.9c0-0.1,0-0.2,0-0.3l0.3-0.1h0.9l-1.1,0.3l2.8-0.4l-0.2,0.1l0,0l-0.3,0.1l0.5-0.2l0,0l0.1-0.1
	h-0.1l0.4-0.2l-0.1,0.1l0,0l0,0l0.2-0.1h-0.1h0.2l0,0h0.1h-0.2l-0.1,0.2h0.1l-0.3,0.2l-0.2,0.3l0.6-0.4l-0.1,0.2l0,0l-0.2,0.3
	l0.2-0.2l-0.1,0.1l0,0l-0.1,0.1l0,0l-0.2,0.3l0,0l-0.3,0.5l0.5-0.7l0,0v-0.1l-1,2l0.6-1l0.5-1.1l0,0l0,0l0.1-0.2l0,0l0,0l-0.3,0.7
	l0.3-0.5l0.1-0.3l0,0l0,0v0.1l0,0v-0.1l0,0v0.1l0,0v0.1l0.1-0.1l-0.1,0.6l0,0v0.2v-0.2l-0.5,1.5l0.4-1l-0.8,2.5l-0.3,1l0,0
	L344,709.1c3.4,4,6.9,7.9,10.6,11.6l87.7-317.4l-76.5,328.2c3.8,3.4,7.7,6.7,11.7,9.9l64.2-334.6h-0.1l0.7-2.8l0.1-0.4v0.2l0.1-0.6
	l0,0l0.1-0.4l0,0v0.1l0.1-0.5v-0.1l-0.1,0.3l0.1-0.5l0,0l0,0v-0.2l0,0l0.1-0.1l0,0l0.1-0.1v0.1l0,0l0,0l0,0l0,0l0,0l0,0l0.1,0.3V402
	v-0.1v0.1v0.1l0,0l0,0l0,0v0.2v0.1v0.7v-0.3L443,403.9v0.6l0,0l0.4,3h-0.2l-0.2-2.2v0.5l0.4,371.9c4.7,1.7,9.4,3.2,14.3,4.5
	l-14.4-377L443,403.9z M443.1,401.9L443.1,401.9z M446.2,398.6l0.1,0.2l116-113.3V284c0-2-1.6-3.6-3.6-3.6h-4.6L445.6,399.2
	L446.2,398.6z"/>
</svg>
