<?xml version="1.0" encoding="utf-8"?>
<!-- Generator: Adobe Illustrator 25.2.0, SVG Export Plug-In . SVG Version: 6.00 Build 0)  -->
<svg version="1.1" id="Layer_1" xmlns="http://www.w3.org/2000/svg" xmlns:xlink="http://www.w3.org/1999/xlink" x="0px" y="0px"
	 viewBox="0 0 937.4 866" style="enable-background:new 0 0 937.4 866;" xml:space="preserve">
<style type="text/css">
	.st0{fill:url(#SVGID_1_);}
</style>
<g id="Layer_2_1_">
	<g id="FINAL">
		<linearGradient id="SVGID_1_" gradientUnits="userSpaceOnUse" x1="-84.4079" y1="-95.4604" x2="900.7609" y2="984.5375">
			<stop  offset="0" style="stop-color:#000000"/>
			<stop  offset="0.3251" style="stop-color:#193560"/>
			<stop  offset="0.6284" style="stop-color:#193560"/>
			<stop  offset="1" style="stop-color:#000000"/>
		</linearGradient>
		<path class="st0" d="M461.4,800.5c-20.4,0-34.4-15.7-34.4-35.8c0-14.8,8-23.4,16.2-28.2l6,12.3c-5.9,3.1-9.6,9.2-9.7,15.8
			c0,12.2,9.3,21.1,21.8,21.1s21.8-8.9,21.8-21.1c-0.1-6.7-3.8-12.7-9.7-15.8l5.9-12.3c8.3,4.8,16.3,13.3,16.3,28.2
			C495.8,784.9,481.9,800.5,461.4,800.5z M494.6,727.9h-66.4v-14.3h54v-28.5h12.4L494.6,727.9z M468.1,677.6h-39.9V663h39.5
			c9.3,0,15.6-5.5,15.6-15.8s-6.4-15.8-15.6-15.8h-39.5v-14.6H468c16.5,0,27.8,9.9,27.8,30.4S484.4,677.6,468.1,677.6z M494.6,603.6
			h-66.4v-35.4c0-12.8,8.1-19.4,16.9-19.4c8.4,0,13.9,5.2,15.2,11.6c1.1-7.2,8-12.9,16.3-12.9c10,0,17.9,6.8,17.9,19.6V603.6z
			 M447.6,563.4c-4.2,0-7.3,3-7.3,7.9v18h14.4v-18C454.8,566.4,451.8,563.4,447.6,563.4L447.6,563.4z M474.7,562.1
			c-4.2,0-7.8,3-7.8,8.7v18.5h15.4v-18.5C482.4,565.3,479.5,562.1,474.7,562.1L474.7,562.1z M230.1,462.8V436
			c13-11.8,23.5-21.4,31.3-28.8c7.9-7.4,13.9-13.5,18.2-18.3c4.3-4.8,7.1-8.8,8.4-11.9c1.3-3,2-6.3,2-9.6c0.2-4-1.5-7.9-4.5-10.6
			c-3-2.7-6.9-4-11.6-4c-5.6-0.1-11.1,1.2-16.1,3.7c-5,2.7-9.5,6.4-13,10.9l-19.1-21.2c5.8-7.3,13.2-13.2,21.6-17.1
			c8.5-3.9,17.8-5.8,27.1-5.8c6.7-0.1,13.3,1,19.7,3.1c5.6,1.9,10.8,4.9,15.3,8.9c4.2,3.8,7.6,8.6,9.9,13.8
			c2.4,5.6,3.6,11.7,3.6,17.9c0,4.9-0.8,9.8-2.3,14.4c-1.8,5.3-4.4,10.2-7.6,14.8c-4.1,6-8.7,11.6-13.6,16.9
			c-5.6,6-12.4,12.9-20.4,20.6H324v29L230.1,462.8z M395.2,465.3c-8.5,0.2-17-1.6-24.7-5.3c-7.2-3.5-13.6-8.5-18.6-14.7
			c-5.4-6.7-9.4-14.3-11.8-22.5c-5.4-18.6-5.4-38.4,0-57.1c2.4-8.2,6.5-15.9,11.8-22.6c5-6.2,11.4-11.3,18.6-14.7
			c15.7-7,33.7-7,49.4,0c7.3,3.5,13.7,8.5,18.7,14.7c5.4,6.7,9.4,14.3,11.8,22.6c5.4,18.6,5.4,38.4,0,57.1
			c-2.4,8.2-6.5,15.9-11.8,22.5c-5.1,6.2-11.5,11.3-18.7,14.7C412.2,463.6,403.7,465.4,395.2,465.3z M395.1,435.9
			c3.9,0.1,7.8-1,11.1-3.2c3.3-2.3,6-5.3,8-8.8c2.3-4.1,4-8.6,5-13.2c2.3-10.9,2.3-22.1,0-33c-1-4.6-2.7-9.1-5-13.2
			c-2-3.5-4.7-6.5-8-8.8c-3.3-2.2-7.1-3.3-11.1-3.2c-3.9-0.1-7.7,1.1-10.9,3.2c-3.3,2.3-6,5.3-8,8.8c-2.3,4.1-4,8.6-5,13.2
			c-2.3,10.9-2.3,22.1,0,33c1,4.6,2.7,9.1,5,13.2c2,3.5,4.7,6.5,8,8.8C387.5,434.8,391.3,435.9,395.1,435.9L395.1,435.9z
			 M523.9,465.3c-8.5,0.2-17-1.6-24.7-5.3c-7.2-3.5-13.6-8.5-18.6-14.7c-5.4-6.7-9.4-14.3-11.8-22.5c-5.4-18.6-5.4-38.4,0-57.1
			c2.5-8.2,6.5-15.9,11.8-22.6c5.1-6.2,11.4-11.3,18.6-14.7c15.7-7,33.7-7,49.4,0c7.3,3.5,13.7,8.5,18.7,14.7
			c5.4,6.7,9.4,14.3,11.8,22.6c5.4,18.6,5.4,38.4,0,57.1c-2.4,8.2-6.5,15.9-11.8,22.5c-5.1,6.2-11.5,11.3-18.7,14.7
			C540.8,463.6,532.4,465.4,523.9,465.3z M523.8,435.9c3.9,0.1,7.8-1,11.1-3.2c3.3-2.3,6-5.3,8-8.8c2.3-4.1,4-8.6,5-13.2
			c2.3-10.9,2.3-22.1,0-33c-1-4.6-2.7-9.1-5-13.2c-2-3.5-4.7-6.5-8-8.8c-3.3-2.2-7.1-3.3-11.1-3.2c-3.9-0.1-7.7,1.1-10.9,3.2
			c-3.3,2.3-6,5.3-8,8.8c-2.3,4.1-4,8.6-5,13.2c-2.3,10.9-2.3,22.1,0,33c1,4.6,2.7,9.1,5,13.2c2,3.5,4.7,6.5,8,8.8
			C516.2,434.8,520,435.9,523.8,435.9z M652.6,465.3c-8.5,0.2-17-1.6-24.7-5.3c-7.2-3.5-13.6-8.5-18.6-14.7
			c-5.4-6.7-9.4-14.3-11.8-22.5c-5.4-18.6-5.4-38.4,0-57.1c2.4-8.2,6.5-15.9,11.8-22.6c5-6.2,11.4-11.3,18.6-14.7
			c15.7-7,33.7-7,49.4,0c7.3,3.5,13.7,8.5,18.8,14.7c5.3,6.7,9.4,14.4,11.8,22.6c5.4,18.6,5.4,38.4,0,57.1
			c-2.4,8.2-6.5,15.9-11.8,22.5c-5.1,6.2-11.5,11.3-18.7,14.7C669.5,463.6,661.1,465.4,652.6,465.3z M652.5,435.9
			c3.9,0.1,7.8-1,11.1-3.2c3.3-2.3,6-5.3,8-8.8c2.3-4.1,4-8.6,5-13.2c2.3-10.9,2.3-22.1,0-33c-1-4.6-2.7-9.1-5-13.2
			c-2-3.5-4.7-6.5-8-8.8c-3.3-2.2-7.1-3.3-11.1-3.2c-3.9-0.1-7.7,1.1-10.9,3.2c-3.3,2.3-6,5.3-8,8.8c-2.3,4.1-4,8.6-5,13.2
			c-2.3,10.9-2.3,22.1,0,33c1,4.6,2.7,9.1,5,13.2c2,3.5,4.7,6.5,8,8.8C644.8,434.8,648.6,435.9,652.5,435.9z M174,403.1l14.4,9.5
			l-2.9-17l13.5-10.8l-17-2.5l-6.1-16.1l-7.6,15.5l-17.2,0.8l12.4,12l-4.5,16.6L174,403.1z M758.8,403.1l14.4,9.5l-2.9-17l13.5-10.8
			l-17-2.5l-6.1-16.1l-7.6,15.5l-17.2,0.8l12.3,12l-4.5,16.6L758.8,403.1z M663.8,660.8c-1.4-1.6-2.8-3-4.4-4.4
			c3.2,1.7,6.2,3.8,9,6.3c1.3-3.2,2.2-5.7,4-11.4c3.4-10.6,6.7-29.7-0.3-38.4c-6-7.5-17-11.5-19.2-12.2c-14.1-4.7-34.2-4.9-49.9,0
			c-2.2,0.7-13.2,4.7-19.2,12.2c-7,8.7-3.6,27.8-0.3,38.4c3,9.3,6.5,16.9,6.5,18.2s-3.7,8.1-3.7,18.2c0,16.1,5.1,35.5,29.7,35.5
			h27.2c23.7-0.2,29.7-18.7,29.7-35.5c0-7.7-2.1-15.3-6-21.9C666.2,664,665,662.4,663.8,660.8L663.8,660.8z M629.9,644.5
			c-9.6,0-19,3.2-26.6,9.1c-1.5,1.3-2.8,2.6-4.1,4.1c1.3-3.2,3.5-6.1,6.3-8.2c-2.3-4.7-5.6-11.9-6.7-16.5
			c-2.1-8.7,4.4-12.3,10.1-14.7c6.4-2.7,14.5-3.1,19.3-3.1s13,0.4,19.3,3.1c5.6,2.4,12.1,6,10.1,14.7c-1,4.4-5.2,13.2-7.8,14.1
			S637.4,644.5,629.9,644.5L629.9,644.5z M302.1,601.8c-30.3,0-55,25-55,55.7s24.7,55.7,55,55.7s55-25,55-55.7
			S332.4,601.8,302.1,601.8z M329.6,685.5c-14.9,15.2-39.4,15.4-54.6,0.5c-0.2-0.2-0.3-0.3-0.5-0.5c-0.9-0.9-0.9-2.4,0-3.3
			c0.9-0.9,2.3-0.9,3.2,0c0,0,0,0,0,0c13.2,13.4,34.8,13.6,48.2,0.4c0.1-0.1,0.3-0.3,0.4-0.4c0.9-0.9,2.3-0.9,3.2,0c0,0,0,0,0,0
			C330.5,683.1,330.5,684.5,329.6,685.5L329.6,685.5z M288.4,657.5c0.1-7.6,6.3-13.7,13.9-13.5s13.7,6.3,13.5,13.9
			c-0.1,7.5-6.2,13.5-13.7,13.5C294.5,671.4,288.3,665.2,288.4,657.5L288.4,657.5z M329.6,632.9c-0.9,0.9-2.3,0.9-3.2,0c0,0,0,0,0,0
			c-13.2-13.4-34.8-13.6-48.2-0.4c-0.1,0.1-0.3,0.3-0.4,0.4c-0.9,0.9-2.3,0.9-3.2,0c0,0,0,0,0,0c-0.9-0.9-0.9-2.4,0-3.3
			c15-15.2,39.4-15.4,54.6-0.4c0.1,0.1,0.3,0.3,0.4,0.4C330.5,630.6,330.6,632,329.6,632.9L329.6,632.9z M597.6,800.6l-32.9,14.5
			l31.7-17.2L597.6,800.6z M534.7,754.2l7.9-4.3c0.2,0.2,0.4,0.4,0.6,0.5L534.7,754.2z M937.4,364.2h-94.9v-92.7H732.6
			C726.6,120.8,603.7,0,453.5,0S180.5,120.8,174.4,271.5H94.6v92.7H0l52.9,92.1L0,548.3h147.2v-5.3l0.2,0.1l-0.2-0.1v-9.4l0.2,0.2
			l-0.2-0.2v-9.4l0.3,0.2l-0.3-0.2v-9.3l0.4,0.2l-0.4-0.2V511h42.6v354.7l112-62.6l0.4,0.2l4-2.3l-3.1,2.8L408.4,866V511h104.2v355
			l105.2-62.1l-3.1-2.8l4,2.3l0.3-0.2l112,62.6V511h59.1v37.3h147.2l-52.9-92.1L937.4,364.2z M453.5,49.1
			c124.4,0,226.5,98.4,234.5,222.4h-7.7c-8-119.7-106.7-214.6-226.9-214.6s-218.8,94.9-226.8,214.6H219
			C227,147.5,329.1,49.1,453.5,49.1z M471.9,271.5c-6.1-10.1-19.3-13.4-29.5-7.3c-3,1.8-5.5,4.3-7.3,7.3h-8.6
			c6.1-14.9,23.1-22,38-16c7.2,3,13,8.7,16,16H471.9z M503.7,271.5c-5.2-23.2-25.7-40.6-50.2-40.6s-45,17.4-50.2,40.6h-7.8
			c1.9-9.8,6.2-18.9,12.5-26.6l-96.3-97.6c-4.4-4.4,2.4-11.3,6.8-6.9c32.1,32.5,64.1,65,96.2,97.6c10.7-9.6,24.5-14.8,38.8-14.8
			c16.3,0.1,31,5.6,40.4,16.3l94.6-95.9c4.4-4.4,11.1,2.4,6.8,6.9l-94.9,96.2c5.6,7.3,9.4,15.8,11.1,24.9L503.7,271.5z M313.2,271.5
			h-3.6c5.9-13.7,13.8-27.3,27.4-34.1C325.3,245.5,318.5,258.4,313.2,271.5z M302.5,271.5h-3.6c5.1-14.4,12-28.7,24.2-37.9
			C312.9,244,307,257.6,302.5,271.5z M291.6,271.5h-3.5c4.5-15.1,10.6-29.8,21.5-41.5C300.6,242.3,295.5,256.8,291.6,271.5
			L291.6,271.5z M280.7,271.5h-3.4c4-15.9,9.5-31.4,19.1-44.9C288.7,240.7,284.1,256,280.7,271.5z M269.7,271.5h-3.4
			c3.5-16.7,8.4-33.1,16.9-48C276.7,238.9,272.7,255.1,269.7,271.5L269.7,271.5z M258.9,271.5h-3.5c3.1-17.5,7.5-34.7,14.9-50.9
			C265.3,237.3,261.5,254.3,258.9,271.5L258.9,271.5z M247.8,271.5h-3.3c2.7-18.3,6.6-36.3,13.1-53.6
			C253,235.5,249.7,253.4,247.8,271.5L247.8,271.5z M404.5,141c1.9,4.3,4.7,8.1,8.2,11.3c0.9,0.9,1.9,1.8,2.9,2.6
			c0.2-0.9,0.4-1.6,0.4-1.6l0,0l9.5-36.1c0.9-0.4,1.7-0.8,2.6-1.2c7.2-3,14.7-5.4,22.4-7l-2.9,11.5l15.8-0.1
			c8.3,0,12.8-3.3,12.8-8.7c0-3-1.8-5.1-5.7-5.9c1.2-0.1,2.5-0.3,3.7-0.4c5.7-0.6,11.5-0.8,17-1c2.6-0.1,5.2-0.2,8-0.2
			c0.1,0.8,0.2,1.7,0.1,2.5c0,10.9-7.1,19-18.9,22c7.5,2.7,12.8,8.3,12.8,17.1c0,14.8-12.1,26.1-38.3,26.1l-43.8,0.1l3.4-13
			c-1.8-0.9-3.6-1.8-5.4-2.7c-5.4-3.1-10.5-6.4-14.6-11c-1.4-1.5-2.6-3.2-3.6-5c-2-3.4-2.8-7.4-2.3-11.3c0.3-3.8,2.7-7.7,5.2-10.4
			c2.6-2.6,5.5-4.8,8.7-6.7c7.2-4.4,16.5-7.9,27-10.4l4-15.2l35.1-0.1c16.7,0,25.2,5,28.7,11.9c7.7,0.9,15.4,2.2,23,4.1
			c0.5,0.1,1.7,0.4,1.5,0.9c0.1,0.4-1.4,0.1-2.1,0c-11.1-1.4-22.3-1.9-33.5-1.4c-5.6,0.2-11.4,0.4-17,1
			c-17.1,1.8-31.7,4.5-46.1,10.6c-4.5,1.8-8.7,4.3-12.4,7.3c-3.6,2.9-7.3,6.8-7.7,12.3C402.8,135.8,403.3,138.6,404.5,141z
			 M654.8,271.5h-3.5c-2.6-17.2-6.4-34.2-11.5-50.9C647.4,236.8,651.7,254,654.8,271.5z M652.6,217.9c6.6,17.3,10.5,35.3,13.2,53.6
			h-3.3C660.5,253.4,657.2,235.5,652.6,217.9L652.6,217.9z M643.9,271.5h-3.4c-3-16.4-7-32.6-13.5-48
			C635.5,238.4,640.4,254.8,643.9,271.5z M633,271.5h-3.4c-3.4-15.5-8-30.8-15.6-44.9C623.5,240.1,629,255.6,633,271.5L633,271.5z
			 M622.2,271.5h-3.5c-3.9-14.7-9.1-29.2-18-41.5C611.5,241.7,617.7,256.4,622.2,271.5z M611.4,271.5h-3.6
			c-4.5-13.9-10.4-27.5-20.7-37.9C599.4,242.8,606.3,257.1,611.4,271.5z M573.3,237.4c13.6,6.9,21.5,20.4,27.4,34.1H597
			C591.8,258.4,585,245.5,573.3,237.4L573.3,237.4z M25.9,533.4l40-69.6l4.3-7.5l-4.3-7.5l-40-69.6h68.7V511h1l36,22.4L25.9,533.4z
			 M132.2,532.7L100.8,511h9.9l21.5,13.4L132.2,532.7z M132.2,523.3L114.4,511h11.4l6.4,4L132.2,523.3z M132.2,513.9l-4.3-2.9h4.3
			L132.2,513.9z M398.4,848.5l-52.6-31.1l7.6,3.3l-23.2-12.5l-10.2-6l4.4-4l-0.6,1.3l32.9,14.5l-31.1-16.8l3.8-3.4l30.6,13.5
			l-28.5-15.4l4-3.6l27.8,12.2l-25.9-14l4.2-3.8l25,11l-23.2-12.6l4.4-4l22.2,9.8l-20.6-11.2l4.6-4.1l19.3,8.5l-18-9.7l4.8-4.3
			l16.5,7.3l-15.3-8.3l5-4.5l13.7,6l-12.7-6.9l5.2-4.7l10.8,4.8l-10.1-5.5l5.4-4.8l8,3.5l-7.5-4l0.5-0.4l-0.6,0.4l-0.3-0.2
			c-0.2,0.2-0.4,0.4-0.6,0.5h0.1l-76,42.5l-0.3-0.2l-102.2,57.2V511h5l1.5,35.2l1.3-35.2h7.1l1.5,35.2l1.4-35.2h7.1l1.5,35.2
			l1.4-35.2h7.1l1.5,35.2l1.4-35.2h7.1l1.5,35.2l1.4-35.2h7.1l1.4,35.2l1.4-35.2h7.1l1.5,35.2l1.4-35.2h7.1l1.5,35.2l1.3-35.2h7.1
			l1.5,35.2l1.4-35.2h7.1l1.5,35.2l1.4-35.2h7.1l1.5,35.2l1.4-35.2h7.1l1.5,35.2l1.4-35.2h7.1l1.5,35.2l1.4-35.2h7.1l1.5,35.2
			l1.4-35.2h7.1l1.5,35.2L347,511h7.1l1.5,35.2L357,511h7.1l1.5,35.2L367,511h7.1l1.5,35.2l1.3-35.2h7.1l1.5,35.2l1.4-35.2h7.1
			l1.5,35.2l1.4-35.2h1.5L398.4,848.5z M721.1,848.7L619,791.6l-0.3,0.2l-77.4-43.3l7.4,6.6l-10.7,5.8l11.5-5.1l5.2,4.6l-13.3,7.2
			l14.3-6.3l5,4.5l-16,8.6l17.1-7.5l4.8,4.3l-18.6,10l20-8.8l4.6,4.1L551.3,788l22.8-10l4.4,3.9l-23.8,12.9l25.6-11.3l4.2,3.8
			L558,801.6l28.5-12.5l4,3.6l-29.1,15.7l31.3-13.8l8.4,7.6l-78.4,46.3V511h0.9l1.4,35.2l1.4-35.2h7.1l1.5,35.2l1.3-35.2h7.1
			l1.5,35.2l1.4-35.2h7.1l1.5,35.2l1.4-35.2h7.1l1.5,35.2l1.4-35.2h7.1l1.5,35.2l1.4-35.2h7.1l1.5,35.2l1.4-35.2h7.1l1.5,35.2
			l1.4-35.2h7.1l1.5,35.2L606,511h7.1l1.5,35.2L616,511h7.1l1.5,35.2l1.4-35.2h7.1l1.5,35.2l1.4-35.2h7.1l1.5,35.2l1.4-35.2h7.2
			l1.5,35.2l1.3-35.2h7.1l1.5,35.2l1.4-35.2h7.1l1.5,35.2l1.4-35.2h7.1l1.5,35.2l1.4-35.2h7.1l1.5,35.2l1.4-35.2h7.1l1.5,35.2
			l1.4-35.2h7.1l1.5,35.2l1.4-35.2h5.6V848.7z M114.6,491V291.5h707.9V491H114.6z M821.7,511l-16.5,11.9V511H821.7z M805.2,523.8
			l20.1-12.8H836l-30.8,22.3L805.2,523.8z M911.5,533.3h-105l35-22.3h1.1V379.1h69l-40,69.6l-4.3,7.5l4.3,7.5L911.5,533.3z
			 M456.7,153h-17.7l4.2-15.8h16.2c6.9,0,10.4,2.3,10.4,6.7C469.7,149.3,464.8,153,456.7,153z"/>
	</g>
</g>
</svg>
