<?xml version="1.0" encoding="utf-8"?>
<!-- Generator: Adobe Illustrator 25.2.0, SVG Export Plug-In . SVG Version: 6.00 Build 0)  -->
<svg version="1.1" id="Layer_1" xmlns="http://www.w3.org/2000/svg" xmlns:xlink="http://www.w3.org/1999/xlink" x="0px" y="0px"
	 viewBox="0 0 885.8 885.8" style="enable-background:new 0 0 885.8 885.8;" xml:space="preserve">
<style type="text/css">
	.st0{fill:url(#SVGID_1_);}
</style>
<g id="Layer_2_1_">
	<g id="FINAL">
		<linearGradient id="SVGID_1_" gradientUnits="userSpaceOnUse" x1="-63.7513" y1="-100.3593" x2="941.3038" y2="977.3155">
			<stop  offset="4.303272e-02" style="stop-color:#849CD0"/>
			<stop  offset="0.349" style="stop-color:#83CAF0"/>
			<stop  offset="0.6042" style="stop-color:#83CAF0"/>
			<stop  offset="0.9906" style="stop-color:#849CD0"/>
		</linearGradient>
		<path class="st0" d="M456.2,346.8c7.1-5,14.9-9.1,21.4-14.7c17.9-15.2,31.4-35,39.1-57.3c6-17.1,11.5-34.2,11.5-52.5
			c-0.1-2.2,0.1-4.4,0.5-6.5c1.8-8.8,1.2-9.9-6.6-13.8c-12.9-6.5-25.8-13.2-38.6-19.9c-11-5.8-22-11.7-33-17.4
			c-1.4-0.6-3.1-0.6-4.5-0.1c-3.7,1.6-7.3,3.7-10.9,5.6c-17.3,9.1-34.8,17.8-51.9,27.3c-7.8,4.3-20.3,5.7-16.1,20.1
			c0.8,5.3,1.8,10.5,2.2,15.8c1.6,19.2,7.2,37.5,15.6,54.6c12.2,25,30.2,45,54.8,58.7C445.5,349.9,450.6,350.8,456.2,346.8z
			 M439.3,335.2c-19-12.9-34.2-29.5-44.4-49.9c-8-15.9-13.2-33.1-15.5-50.8c-0.8-5.9-2-11.7-2-17.6c0.2-2.8,1.6-5.3,3.9-6.9
			c16-8.6,32.2-16.8,48.4-25.2c4.7-2.4,9.1-5.3,14-7.3c2.4-1,6-1.7,8.1-0.7c19.9,10,39.6,20.6,59.5,30.6c5.8,2.9,9.5,6.3,7.6,12
			c-2.9,32.4-11.2,61.6-30.7,86.8c-8.7,11.4-19.4,20.5-31,28.7C451.1,339.3,445.5,339.4,439.3,335.2z M283.9,295.6
			c-11.8-9.2-19.8-21.3-24.7-37.4c3,0.5,4.9,0.6,6.6,1.1c15.4,5.2,30.8,10.4,46.1,15.7c4,1.2,7.2,4.1,8.7,8
			c3.1,7.6,7.2,14.9,11,22.2c1.5,2.9,3.4,5.7,5.3,9C323.5,315.2,297.6,306.3,283.9,295.6z M442.9,28.3
			c-228.6,0-414.6,186-414.6,414.6s186,414.6,414.6,414.6s414.6-186,414.6-414.6S671.5,28.3,442.9,28.3L442.9,28.3z M842.1,436.1
			l-41.8,0.7c0-3.3-0.2-6.6-0.3-9.9l41.8-1.8C842,428.7,842.1,432.5,842.1,436.1L842.1,436.1z M840.5,406.7l-41.7,3.8
			c-0.3-3.3-0.6-6.6-1-9.9l41.6-4.9C839.9,399.3,840.2,403,840.5,406.7L840.5,406.7z M836.8,377.4l-41.3,6.8
			c-0.5-3.2-1.1-6.5-1.7-9.8l41.1-8C835.6,370.1,836.2,373.8,836.8,377.4L836.8,377.4z M831,348.5l-40.7,9.9
			c-0.8-3.2-1.6-6.4-2.5-9.6l40.4-11C829.2,341.3,830.1,344.9,831,348.5z M823,320.1L783.1,333c-1-3.1-2.1-6.3-3.2-9.4l39.5-14
			C820.6,313,821.8,316.6,823,320.1L823,320.1z M812.9,292.3l-38.8,15.8c-1.2-3-2.5-6.1-3.9-9.1l38.3-16.9
			C810,285.5,811.4,288.9,812.9,292.3L812.9,292.3z M800.7,265.3L763.2,284c-1.5-2.9-3-5.9-4.5-8.8l36.9-19.7
			C797.3,258.7,799,262,800.7,265.3L800.7,265.3z M786.6,239.3l-36,21.4c-1.7-2.8-3.4-5.7-5.2-8.5l35.4-22.3
			C782.7,233.1,784.6,236.2,786.6,239.3L786.6,239.3z M770.6,214.5l-34.3,24c-1.9-2.7-3.8-5.4-5.8-8.1l33.5-24.8
			C766.2,208.5,768.4,211.6,770.6,214.5L770.6,214.5z M745.7,182.4c2.4,2.8,4.8,5.6,7.1,8.5l-32.5,26.4c-2.1-2.6-4.2-5.1-6.4-7.6
			L745.7,182.4z M733.3,168.7l-30.4,28.7c-2.3-2.4-4.6-4.8-6.9-7.1l29.6-29.6C728.2,163.5,730.7,166.1,733.3,168.7L733.3,168.7z
			 M712.3,148L684,179c-2.4-2.2-4.9-4.4-7.4-6.6l27.4-31.6C706.8,143.2,709.5,145.7,712.3,148L712.3,148z M689.9,129L664,161.8
			c-2.6-2-5.2-4.1-7.9-6l25-33.6C683.9,124.5,686.9,126.8,689.9,129L689.9,129z M666,111.7l-23.4,34.7c-2.7-1.8-5.5-3.7-8.3-5.4
			l22.4-35.3C659.8,107.6,662.9,109.6,666,111.7z M641,96.1l-20.8,36.3c-2.8-1.6-5.8-3.2-8.6-4.8l19.8-36.9
			C634.5,92.5,637.8,94.3,641,96.1z M614.9,82.4l-18,37.8c-3-1.4-6-2.8-9-4.1l17-38.2C608.2,79.3,611.6,80.9,614.9,82.4z
			 M577.5,66.9c3.5,1.2,7,2.6,10.4,3.9l-15.2,39c-3.1-1.2-6.2-2.4-9.3-3.5L577.5,66.9z M549.3,58c3.5,1,7.1,2,10.6,3.1l-12.2,40
			c-3.1-1-6.3-1.9-9.5-2.8L549.3,58z M520.6,51.2c3.6,0.7,7.2,1.5,10.8,2.3l-9.2,40.8c-3.2-0.7-6.5-1.4-9.7-2.1L520.6,51.2z
			 M491.5,46.6c3.6,0.4,7.3,0.9,11,1.5l-6.2,41.4c-3.3-0.5-6.6-0.9-9.8-1.3L491.5,46.6z M462.1,44.1c3.7,0.2,7.4,0.4,11,0.7
			L470,86.5c-3.3-0.2-6.6-0.4-9.9-0.6L462.1,44.1z M442.9,43.6h0.8l-0.1,41.9h-0.7c-3.3,0-6.6,0-9.9,0.1l-1.1-41.8
			C435.5,43.7,439.2,43.6,442.9,43.6z M413.5,44.7l3,41.7c-3.3,0.2-6.6,0.5-9.9,0.8l-4.2-41.6C406.1,45.3,409.8,45,413.5,44.7z
			 M384.1,47.9l6.1,41.4c-3.2,0.5-6.5,1-9.8,1.6l-7.3-41.2C376.8,49,380.5,48.5,384.1,47.9z M355.1,53.3l9.2,40.8
			c-3.2,0.7-6.5,1.5-9.6,2.3l-10.3-40.6C347.9,55,351.5,54.1,355.1,53.3L355.1,53.3z M326.6,60.8l12.2,40c-3.2,1-6.3,2-9.5,3
			L316,64.2C319.5,63,323,61.9,326.6,60.8L326.6,60.8z M298.6,70.5l15.1,39c-3.1,1.2-6.2,2.4-9.2,3.7l-16.2-38.6
			C291.7,73.2,295.2,71.8,298.6,70.5L298.6,70.5z M271.4,82.2l18,37.8c-3,1.4-6,2.9-8.9,4.4l-19-37.3
			C264.8,85.4,268.1,83.8,271.4,82.2z M245.2,95.9l20.8,36.3c-2.9,1.6-5.7,3.3-8.5,5l-21.8-35.7C238.8,99.6,242.1,97.7,245.2,95.9z
			 M220.1,111.5l23.4,34.7c-2.7,1.8-5.5,3.8-8.1,5.7l-24.3-34.1C214,115.7,217.1,113.5,220.1,111.5z M196.3,128.9l25.9,32.9
			c-2.6,2-5.2,4.1-7.7,6.2l-26.8-32.2C190.5,133.5,193.4,131.1,196.3,128.9z M173.8,147.9l28.2,30.9c-2.4,2.2-4.9,4.5-7.2,6.8
			l-29.1-30.1C168.4,153,171.1,150.4,173.8,147.9z M152.8,168.6l30.4,28.8c-2.3,2.4-4.5,4.8-6.7,7.3l-31.2-27.9
			C147.7,174,150.2,171.3,152.8,168.6L152.8,168.6z M133.3,190.8l32.4,26.4c-2.1,2.5-4.1,5.2-6.1,7.8l-33.2-25.6
			C128.7,196.5,131,193.6,133.3,190.8L133.3,190.8z M115.6,214.3l34.3,24c-1.9,2.7-3.8,5.4-5.6,8.2l-34.9-23
			C111.3,220.4,113.4,217.3,115.6,214.3L115.6,214.3z M99.5,239l36,21.4c-1.7,2.8-3.3,5.7-4.9,8.6L94,248.6
			C95.8,245.4,97.7,242.2,99.5,239z M85.4,264.9l37.4,18.7c-1.5,2.9-2.9,5.9-4.3,8.9l-37.9-17.6C82.2,271.5,83.8,268.1,85.4,264.9z
			 M73.2,291.7l38.8,15.9c-1.2,3-2.5,6.1-3.6,9.2L69.2,302C70.5,298.5,71.9,295.1,73.2,291.7z M63.1,319.4l39.8,12.9
			c-1,3.1-2,6.3-2.9,9.5L59.8,330C60.9,326.4,62,322.9,63.1,319.4z M55,347.8l40.7,9.9c-0.8,3.2-1.5,6.4-2.2,9.6l-40.9-8.8
			C53.3,355,54.2,351.4,55,347.8z M49.1,376.7l41.3,6.9c-0.6,3.2-1.1,6.5-1.5,9.8l-41.5-5.7C47.9,384,48.5,380.3,49.1,376.7
			L49.1,376.7z M45.3,405.9l41.7,3.8c-0.3,3.3-0.6,6.6-0.8,9.9L44.5,417C44.7,413.3,45,409.6,45.3,405.9L45.3,405.9z M43.6,442.9
			c0-2.5,0-5,0.1-7.5l41.8,0.8c0,2.2-0.1,4.5-0.1,6.8c0,1,0,2.1,0,3.2l-41.8,0.4C43.6,445.3,43.6,444.1,43.6,442.9L43.6,442.9z
			 M44.2,464.9l41.8-2.3c0.2,3.3,0.4,6.6,0.7,9.9L45,475.9C44.7,472.2,44.4,468.5,44.2,464.9L44.2,464.9z M46.9,494.3l41.5-5.4
			c0.4,3.3,0.9,6.6,1.4,9.8l-41.3,6.5C47.9,501.6,47.4,497.9,46.9,494.3L46.9,494.3z M51.7,523.4l41-8.4c0.7,3.2,1.4,6.5,2.1,9.7
			l-40.7,9.5C53.3,530.6,52.5,526.9,51.7,523.4L51.7,523.4z M58.7,552L99,540.6c0.9,3.2,1.8,6.4,2.8,9.5l-40,12.5
			C60.8,559.1,59.7,555.5,58.7,552L58.7,552z M67.8,580.2l39.3-14.4c1.1,3.1,2.3,6.2,3.5,9.3l-38.9,15.4
			C70.4,587.1,69.1,583.6,67.8,580.2L67.8,580.2z M79,607.5l38.1-17.3c1.4,3,2.8,6,4.2,9l-37.6,18.3C82.1,614.2,80.5,610.9,79,607.5
			z M92.2,634l36.8-20.1c1.6,2.9,3.2,5.8,4.9,8.6l-36.2,21.1C95.8,640.5,94,637.2,92.2,634z M107.3,659.4l35.2-22.7
			c1.8,2.8,3.6,5.5,5.5,8.3l-34.5,23.7C111.4,665.5,109.3,662.4,107.3,659.4L107.3,659.4z M124.2,683.6l33.4-25.2
			c2,2.6,4,5.3,6.1,7.8l-32.7,26.2C128.8,689.4,126.5,686.5,124.2,683.6L124.2,683.6z M142.9,706.4l31.4-27.6c2.2,2.5,4.4,5,6.6,7.3
			l-30.6,28.5C147.8,711.9,145.3,709.2,142.9,706.4L142.9,706.4z M163.2,727.9l29.3-29.9c2.3,2.3,4.8,4.6,7.2,6.8l-28.5,30.7
			C168.5,733,165.8,730.4,163.2,727.9L163.2,727.9z M185,747.7l27-31.9c2.5,2.1,5.1,4.2,7.6,6.3l-26.1,32.7
			C190.6,752.4,187.8,750.1,185,747.7z M208.2,765.9l24.6-33.8c2.6,1.9,5.4,3.8,8.1,5.7l-23.7,34.5
			C214.1,770.2,211.1,768.1,208.2,765.9L208.2,765.9z M232.6,782.4l22.1-35.5c2.8,1.7,5.6,3.4,8.5,5.1l-21.1,36.2
			C238.9,786.2,235.7,784.3,232.6,782.4L232.6,782.4z M258.2,797l19.4-37.1c2.9,1.5,5.9,3,8.8,4.5L268,802
			C264.7,800.3,261.4,798.7,258.2,797z M294.9,813.9c-3.4-1.3-6.8-2.8-10.2-4.2l16.6-38.4c3,1.3,6.1,2.6,9.1,3.8L294.9,813.9z
			 M322.7,823.8c-3.5-1.1-7-2.3-10.5-3.5l13.7-39.5c3.1,1.1,6.3,2.1,9.4,3.1L322.7,823.8z M351.2,831.6c-3.6-0.8-7.2-1.8-10.7-2.7
			l10.7-40.5c3.2,0.8,6.4,1.7,9.6,2.4L351.2,831.6z M380.2,837.3c-3.6-0.6-7.3-1.2-10.9-1.9l7.7-41.1c3.2,0.6,6.5,1.2,9.8,1.7
			L380.2,837.3z M409.5,840.8c-3.7-0.3-7.4-0.7-11-1.1l4.5-41.6c3.3,0.4,6.6,0.7,9.9,1L409.5,840.8z M438.9,842.2
			c-3.7,0-7.4-0.1-11-0.3l1.6-41.8c3.3,0.1,6.6,0.2,9.9,0.2L438.9,842.2z M100.7,442.9c0-188.7,153.5-342.2,342.2-342.2
			s342.2,153.5,342.2,342.2S631.6,785.1,442.9,785.1S100.7,631.6,100.7,442.9z M457.3,841.9l-1.5-41.8c3.3-0.1,6.6-0.3,9.9-0.5
			l2.6,41.8C464.7,841.6,461,841.8,457.3,841.9L457.3,841.9z M486.7,839.8l-4.5-41.6c3.3-0.3,6.6-0.8,9.8-1.2l5.7,41.5
			C494,839,490.4,839.4,486.7,839.8L486.7,839.8z M515.9,835.5l-7.6-41.2c3.2-0.6,6.5-1.2,9.7-1.9l8.8,40.9
			C523.2,834.1,519.5,834.9,515.9,835.5L515.9,835.5z M544.7,829.1l-10.6-40.5c3.2-0.8,6.4-1.7,9.5-2.7l11.8,40.2
			C551.8,827.2,548.2,828.2,544.7,829.1L544.7,829.1z M572.9,820.5L559.3,781c3.1-1.1,6.3-2.2,9.3-3.4l14.7,39.2
			C579.9,818.1,576.4,819.3,572.9,820.5L572.9,820.5z M600.5,809.8L584,771.4c3-1.3,6.1-2.7,9.1-4l17.6,38
			C607.3,806.9,603.9,808.4,600.5,809.8L600.5,809.8z M627.2,797.2l-19.3-37.1c2.9-1.5,5.9-3.1,8.7-4.7l20.4,36.6
			C633.8,793.7,630.5,795.5,627.2,797.2L627.2,797.2z M652.9,782.5l-22-35.6c2.8-1.7,5.6-3.5,8.3-5.3l23,35
			C659.2,778.6,656.1,780.6,652.9,782.5L652.9,782.5z M677.4,766.1l-24.6-33.8c2.7-1.9,5.3-3.9,7.9-5.9l25.5,33.2
			C683.4,761.7,680.4,763.9,677.4,766.1L677.4,766.1z M700.7,747.8l-27-32c2.5-2.1,5-4.3,7.5-6.5l27.9,31.3
			C706.3,743,703.5,745.5,700.7,747.8L700.7,747.8z M722.5,728l-29.3-29.9c2.3-2.3,4.7-4.7,7-7l30.1,29.1
			C727.7,722.8,725.1,725.4,722.5,728z M742.7,706.6L711.3,679c2.2-2.5,4.3-5,6.4-7.5l32.2,26.8C747.6,701,745.2,703.8,742.7,706.6
			L742.7,706.6z M761.4,683.8L728,658.5c2-2.6,4-5.3,5.9-8l34,24.3C765.8,677.8,763.6,680.8,761.4,683.8L761.4,683.8z M778.3,659.6
			l-35.1-22.8c1.8-2.8,3.6-5.6,5.3-8.4l35.7,21.8C782.3,653.4,780.3,656.5,778.3,659.6L778.3,659.6z M793.4,634.3l-36.7-20.1
			c1.6-2.9,3.1-5.8,4.6-8.7l37.2,19.1C796.9,627.8,795.2,631.1,793.4,634.3L793.4,634.3z M806.6,608l-38.1-17.3c1.4-3,2.7-6,4-9
			l38.5,16.2C809.6,601.3,808.1,604.7,806.6,608z M817.8,580.8l-39.3-14.4c1.1-3.1,2.2-6.2,3.3-9.3l39.7,13.4
			C820.2,573.8,819,577.3,817.8,580.8z M826.9,552.8l-40.2-11.5c0.9-3.2,1.8-6.4,2.6-9.6l40.5,10.3
			C828.9,545.6,827.9,549.2,826.9,552.8L826.9,552.8z M833.9,524.1l-41-8.5c0.7-3.2,1.3-6.5,1.9-9.7l41.2,7.3
			C835.4,516.8,834.7,520.5,833.9,524.1L833.9,524.1z M838.8,495l-41.5-5.4c0.4-3.2,0.8-6.6,1.1-9.8l41.7,4.2
			C839.7,487.6,839.3,491.3,838.8,495L838.8,495z M841.5,465.6l-41.8-2.3c0.2-3.3,0.3-6.6,0.4-9.9l41.9,1.1
			C841.9,458.2,841.8,461.9,841.5,465.6L841.5,465.6z M442.9,0C198.7,0,0,198.7,0,442.9s198.7,442.9,442.9,442.9
			s442.9-198.7,442.9-442.9S687.1,0,442.9,0z M442.9,871.9c-236.5,0-429-192.4-429-429s192.4-429,429-429s429,192.4,429,429
			S679.4,871.9,442.9,871.9z M253.6,235.4c-12.1-11.9-19.4-26.1-23.9-43.3c3,0.5,5.3,0.4,7.4,1.2c4.8,1.9,9.3,4.2,14,6.2
			c32.1,14.2,64.3,28.2,96.3,42.6c3,1.5,5.4,4.2,6.6,7.4c7,20.8,12.9,42.1,25.8,60.4c8.2,11.6,17.4,22.1,28.6,30.8
			c10.1,7.9,20.6,15.3,30.9,22.9h-9.5c-12.4-5.1-25.3-9.1-37-15.5c-29.9-16.4-51.3-40.6-62.9-73c-1.9-5.4-5.1-9-11.1-10.2
			c-5.6-1.2-10.9-3.3-16.4-4.8C284.4,255.3,267.3,249,253.6,235.4z M548.7,242.2c32-14.4,64.2-28.5,96.3-42.6
			c4.7-2.1,9.2-4.4,14-6.2c2-0.8,4.4-0.8,7.4-1.2c-4.6,17.2-11.9,31.4-23.9,43.3c-13.7,13.6-30.8,19.9-48.8,24.8
			c-5.5,1.5-10.8,3.6-16.4,4.8c-6,1.2-9.2,4.9-11.1,10.2c-11.6,32.4-33,56.6-62.9,73c-11.7,6.4-24.6,10.4-37,15.5h-9.5
			c10.3-7.6,20.8-15.1,30.9-22.9c11.2-8.7,20.5-19.2,28.6-30.8c13-18.4,18.8-39.6,25.8-60.4C543.3,246.4,545.7,243.7,548.7,242.2
			L548.7,242.2z M612.2,295.6c-13.8,10.7-39.6,19.6-53.1,18.5c2-3.3,3.8-6,5.3-9c3.8-7.3,7.8-14.6,11-22.2c1.5-3.9,4.7-6.8,8.7-8
			c15.3-5.3,30.8-10.5,46.2-15.7c1.7-0.6,3.6-0.6,6.6-1.1C631.9,274.2,624,286.4,612.2,295.6z M288.6,198l-7.5-11.8
			c99.2-62.5,225.5-62.2,324.5,0.6l-7.5,11.8C503.7,138.7,383.2,138.4,288.6,198z M477.1,261.4c0-6.6-4.1-10.9-9.8-12.9
			c9-2.2,14.5-8.4,14.5-16.6c0-0.6,0-1.3-0.1-1.9c-2.1,0-4.1,0-6.1,0.1c-4.3,0.2-8.7,0.3-13,0.7c-1,0.1-1.9,0.2-2.8,0.3
			c3,0.6,4.4,2.2,4.4,4.5c0,4.1-3.4,6.6-9.8,6.6h-12.1l2.2-8.7c-5.9,1.2-11.6,3-17.1,5.3c-0.7,0.3-1.3,0.6-2,0.9l-7.2,27.2l0,0
			l-0.3,1.2c-0.8-0.6-1.5-1.3-2.2-2c-2.6-2.4-4.8-5.3-6.3-8.5c-0.9-1.9-1.3-3.9-1.1-6c0.3-4.1,3.2-7.1,5.9-9.3
			c2.9-2.3,6.1-4.1,9.5-5.5c11-4.6,22.1-6.7,35.2-8c4.3-0.4,8.8-0.6,13-0.7c8.6-0.4,17.1,0,25.6,1.1c0.5,0.1,1.6,0.3,1.6,0
			c0.1-0.4-0.8-0.6-1.2-0.7c-5.8-1.4-11.7-2.4-17.6-3.1c-2.6-5.2-9.2-9-21.9-9l-26.9,0.1l-3,11.5c-8.1,1.9-15.2,4.5-20.7,7.8
			c-2.4,1.4-4.7,3-6.7,5c-2.1,2.1-3.5,4.9-4,7.8c-0.3,3,0.3,5.9,1.8,8.5c0.8,1.4,1.7,2.6,2.8,3.8c3.2,3.4,7,6.2,11.1,8.3
			c1.3,0.7,2.7,1.4,4.1,2.1l-2.6,9.8l33.5-0.1C467.8,281.1,477.1,272.5,477.1,261.4L477.1,261.4z M449.1,266.7h-13.6l3.2-11.9h12.4
			c5.3,0,8,1.7,8,5.1C459.1,263.9,455.3,266.7,449.1,266.7L449.1,266.7z M214.5,460v-64H241c2.6-0.1,5.1,0.4,7.5,1.3
			c2,0.8,3.8,2,5.2,3.5c1.4,1.5,2.5,3.3,3.1,5.2c0.7,2,1.1,4.1,1.1,6.2c0.2,3.5-0.9,7-2.9,9.8c-1.8,2.4-4.4,4.1-7.3,4.8
			c1.6,0.3,3.2,0.9,4.5,1.8c1.4,0.9,2.6,2.1,3.6,3.5c1,1.5,1.8,3.1,2.3,4.8c0.6,1.8,0.9,3.7,0.9,5.7c0,2.3-0.3,4.6-1,6.8
			c-0.7,2-1.7,3.9-3.2,5.5c-1.5,1.6-3.3,2.8-5.3,3.6c-2.4,0.9-5,1.4-7.5,1.4L214.5,460z M237.9,421.9c1.9,0.2,3.8-0.6,5.1-2
			c1.2-1.5,1.8-3.4,1.7-5.3c0.1-1.9-0.5-3.8-1.7-5.2c-1.3-1.4-3.2-2.2-5.1-2h-10.6v14.6L237.9,421.9z M238.4,448.7
			c2,0.1,4.1-0.6,5.5-2c1.3-1.6,2-3.7,1.9-5.8c0.1-2-0.6-4-1.9-5.6c-1.4-1.6-3.4-2.4-5.5-2.2h-11v15.6L238.4,448.7z M292.2,461.2
			c-7.7,0.2-14.9-3.3-19.6-9.4c-2.4-3.1-4.2-6.7-5.3-10.5c-2.4-8.6-2.4-17.8,0-26.5c1.1-3.8,2.9-7.4,5.3-10.5
			c8.5-10.8,24.1-12.8,34.9-4.3c1.6,1.3,3.1,2.7,4.3,4.3c2.4,3.1,4.2,6.7,5.3,10.5c2.4,8.6,2.4,17.8,0,26.5
			c-1.1,3.8-2.9,7.3-5.3,10.5C307.2,457.8,299.9,461.3,292.2,461.2L292.2,461.2z M292.1,449.7c2.1,0,4.1-0.5,5.8-1.7
			c1.8-1.2,3.2-2.8,4.3-4.6c1.2-2.1,2.1-4.5,2.6-6.9c0.6-2.8,0.9-5.7,0.9-8.5c0-2.9-0.3-5.8-0.9-8.6c-0.5-2.4-1.4-4.8-2.6-6.9
			c-1-1.8-2.5-3.4-4.2-4.5c-1.7-1.1-3.8-1.7-5.8-1.6c-2,0-4.1,0.5-5.8,1.6c-1.8,1.2-3.2,2.7-4.2,4.6c-1.2,2.2-2.1,4.5-2.6,6.9
			c-0.6,2.8-0.9,5.7-0.9,8.6c0,2.9,0.3,5.7,0.9,8.5c0.5,2.4,1.4,4.7,2.6,6.9c1.1,1.8,2.5,3.4,4.2,4.6
			C288.1,449.2,290.1,449.8,292.1,449.7L292.1,449.7z M327.8,460v-64h20.6c4.1-0.1,8.1,0.7,11.8,2.4c3.4,1.5,6.4,3.8,8.8,6.6
			c2.5,3,4.3,6.5,5.4,10.2c2.5,8.4,2.5,17.4,0,25.9c-1.1,3.7-3,7.1-5.4,10c-2.4,2.8-5.4,5.1-8.7,6.6c-3.7,1.6-7.8,2.4-11.8,2.3
			H327.8z M348.4,448.7c2.2,0,4.4-0.5,6.3-1.5c1.9-1,3.4-2.5,4.6-4.2c1.3-2,2.3-4.2,2.8-6.5c0.7-2.7,1-5.6,1-8.4
			c0-6.4-1.2-11.5-3.7-15.2c-2.5-3.7-6.1-5.6-11-5.6h-7.8v41.4H348.4z M395.9,460v-26.4L376.1,396h14.2l12,25.7l12-25.7h14.2
			l-19.8,37.6V460H395.9z M450.3,461.1c-4.3,0.1-8.7-0.7-12.7-2.2c-3.5-1.4-6.6-3.4-9.2-6l6.3-9.9c1.9,2,4.1,3.7,6.7,4.9
			c2.7,1.3,5.8,2,8.8,1.9c2.9,0,5.1-0.7,6.5-2.1c1.4-1.3,2.2-3.1,2.2-5c0.1-1.8-0.7-3.4-2.1-4.5c-1.6-1.3-3.4-2.3-5.3-3.2
			c-2.1-1-4.4-1.9-6.9-2.9c-2.5-1-4.8-2.2-6.9-3.8c-2.1-1.6-3.9-3.5-5.3-5.8c-1.5-2.7-2.3-5.8-2.1-8.9c0-2.5,0.5-4.9,1.4-7.1
			c1-2.3,2.4-4.3,4.2-6c1.9-1.8,4.2-3.2,6.6-4.1c2.8-1,5.9-1.5,8.9-1.5c3.7,0,7.3,0.6,10.8,1.8c3.2,1.2,6.1,3,8.6,5.3l-6.1,9.6
			c-1.8-1.8-4-3.2-6.4-4.1c-2.3-0.9-4.8-1.3-7.3-1.3c-2-0.1-3.9,0.5-5.5,1.8c-1.3,1.2-2.1,2.9-2,4.8c0,1.6,0.8,3.2,2.1,4.1
			c1.6,1.2,3.4,2.2,5.3,3c2.1,0.9,4.4,1.9,6.9,2.9c2.5,1,4.8,2.3,6.9,3.9c2.1,1.6,3.9,3.6,5.3,6c1.5,2.7,2.2,5.8,2.1,8.9
			c0,2.7-0.5,5.3-1.4,7.8c-0.9,2.3-2.4,4.4-4.2,6.1c-2,1.8-4.3,3.2-6.8,4.1C456.7,460.7,453.5,461.2,450.3,461.1L450.3,461.1z
			 M480.3,460v-64h23.6c3-0.1,5.9,0.5,8.6,1.7c2.4,1,4.5,2.5,6.2,4.5c1.6,1.9,2.9,4.1,3.7,6.5c1.7,5.1,1.7,10.6,0,15.6
			c-0.8,2.4-2,4.6-3.7,6.5c-1.7,1.9-3.8,3.5-6.2,4.5c-2.7,1.1-5.7,1.7-8.6,1.6h-10.7V460H480.3z M502.4,425.5
			c2.2,0.1,4.4-0.8,5.9-2.4c3-3.9,3-9.4,0-13.4c-1.5-1.6-3.7-2.5-5.9-2.5h-9.2v18.2L502.4,425.5z M560.3,460l-3-11.3h-19.7l-3,11.3
			h-13.9l19-64h15.6l19,64H560.3z M547.5,409.5l-7.3,27.8h14.6L547.5,409.5z M602.1,461.1c-7.7,0.2-15-3.3-19.7-9.3
			c-2.5-3.1-4.3-6.7-5.4-10.5c-1.3-4.4-1.9-8.9-1.8-13.4c-0.1-4.5,0.6-9,1.8-13.3c1.1-3.8,2.9-7.4,5.4-10.5c4.7-6,12.1-9.5,19.7-9.3
			c2.7-0.1,5.5,0.4,8.1,1.3c2.2,0.8,4.2,2,6,3.5c1.7,1.4,3.1,3.1,4.3,5c1.1,1.8,2.1,3.6,3,5.5l-10.6,4.7c-0.8-2.4-2.3-4.5-4.2-6.2
			c-1.8-1.6-4.2-2.5-6.6-2.4c-2.1,0-4.1,0.5-5.8,1.6c-1.8,1.2-3.2,2.7-4.3,4.5c-1.3,2.1-2.2,4.4-2.7,6.9c-1.3,5.7-1.3,11.7,0,17.4
			c0.5,2.4,1.5,4.7,2.7,6.9c1.1,1.8,2.6,3.4,4.3,4.5c1.7,1.1,3.8,1.7,5.8,1.6c2.5,0.1,5-0.9,6.8-2.6c1.9-1.9,3.3-4.2,4.1-6.7
			l10.6,4.6c-0.8,2-1.8,3.9-2.9,5.8c-1.2,1.9-2.6,3.7-4.3,5.2c-1.8,1.6-3.8,2.8-6,3.7C607.8,460.7,605,461.2,602.1,461.1
			L602.1,461.1z M631.3,460v-64H668v11.3h-23.8v14.5h23.1v11.3h-23.1v15.5H668V460H631.3z M661.2,231.3L649,243.1
			c52,53.4,81,125,80.9,199.5c0,11.9-0.7,23.7-2.2,35.5H159.1c-1.4-11.8-2.2-23.6-2.2-35.5c-0.2-74.8,29-146.6,81.3-200l-12.2-11.8
			c-117,120-114.5,312.1,5.5,429.1s312.1,114.5,429.1-5.5C775.4,536.8,775.6,349.2,661.2,231.3L661.2,231.3z M608.3,614.1
			c-3-1.9-6.2-3.5-9.6-4.7c-3.8-1.4-8-3-12.4-4.8c-4.4-1.7-8.5-4-12.4-6.8c-3.9-2.8-7.1-6.5-9.6-10.6c-2.6-4.3-3.8-9.8-3.8-16.5
			c0-4.6,0.9-9.1,2.7-13.4c1.8-4.3,4.5-8.2,7.8-11.4c3.7-3.5,8-6.2,12.7-7.9c5.6-2.1,11.5-3.1,17.5-3c7-0.1,13.9,1.1,20.5,3.4
			c6.2,2.2,11.9,5.5,16.8,9.8l-13.1,20.9c-3.4-3.3-7.5-5.8-12-7.3c-4.3-1.5-8.7-2.3-13.2-2.3c-3.6,0-6.3,0.8-8.2,2.4
			c-1.9,1.6-2.9,4-2.8,6.4c0,2.6,1.3,4.7,3.8,6.3c3,1.9,6.2,3.4,9.5,4.7l12.4,5c4.4,1.8,8.6,4.1,12.4,6.9c3.9,2.9,7.1,6.5,9.5,10.6
			c2.6,4.3,3.8,9.7,3.8,16.2c0.1,5.2-0.9,10.3-2.8,15.1c-1.8,4.5-4.6,8.4-8.2,11.7c-3.8,3.4-8.3,5.9-13.1,7.6
			c-5.7,1.9-11.6,2.8-17.6,2.7c-9.4,0-17.6-1.3-24.4-4c-6.6-2.5-12.6-6.3-17.6-11.2l13.4-21.6c7.4,7.8,17.6,12.2,28.4,12.2
			c4.1,0,7.3-0.9,9.7-2.8c2.3-1.7,3.6-4.3,3.6-7.1C612.1,618.1,610.6,615.5,608.3,614.1z M483.7,562.6c1.6-5.2,4.2-10,7.7-14.2
			c3.3-3.9,7.4-6.9,12.1-9c4.9-2.2,10.3-3.2,15.7-3.2c3.7-0.1,7.5,0.5,11,1.8c3.1,1.1,6,2.7,8.6,4.8c2.5,2,4.6,4.4,6.4,7
			c1.7,2.6,3.2,5.4,4.4,8.3l-17.2,7.7c-1-2.9-2.7-5.4-4.9-7.5c-2.2-2.2-5.2-3.3-8.2-3.2c-4.9,0-9,2.2-12.1,6.6
			c-3.1,4.4-4.7,10.9-4.7,19.5c0,8.7,1.6,15.2,4.7,19.6s7.1,6.6,12.1,6.6c2.3,0,4.6-0.4,6.7-1.2c1.8-0.6,3.5-1.7,4.9-3v-9.5h-14.2
			V575h33.9v36.4c-3.8,4.4-8.4,8-13.5,10.6c-5.5,2.7-11.6,4-17.8,3.9c-5.4,0.1-10.7-1-15.7-3.2c-4.7-2.1-8.8-5.2-12.1-9.1
			c-3.5-4.2-6.1-9-7.7-14.2C480.1,587.4,480.1,574.6,483.7,562.6L483.7,562.6z M403.5,537.6h21.5l24.8,43.4v-43.4h21.1v86.7h-20
			l-26.3-45.6v45.6h-21.1V537.6z M368.6,537.6h21.1v86.7h-21.1V537.6z M255.4,536.8l12.7,73l15-73h21.3l14.8,73l12.7-73h29.7
			l-26.5,114.6h-28.7l-12.9-69.2l-12.7,69.2h-28.7l-26.5-114.6L255.4,536.8z"/>
	</g>
</g>
</svg>
